<?xml version="1.0" encoding="utf-8"?>
<!-- Generator: Adobe Illustrator 19.1.0, SVG Export Plug-In . SVG Version: 6.00 Build 0)  -->
<svg version="1.1" id="Calque_1" xmlns="http://www.w3.org/2000/svg" xmlns:xlink="http://www.w3.org/1999/xlink" x="0px" y="0px"
	 viewBox="-406 235.3 27.4 125" style="enable-background:new -406 235.3 27.4 125;" xml:space="preserve">
<path d="M-397.6,257c0,0.3,0.1,0.5,0.3,0.6l0,0l4.4,4.6l0,0c0.2,0.2,0.4,0.3,0.6,0.3c0.2,0,0.5-0.1,0.6-0.3l0,0l4.4-4.6h0
	c0.2-0.2,0.3-0.4,0.3-0.6v-1.3l-0.1,0l-1.5-1.5l-3.1,3.1l1.4,1.5c0.2,0.2,0.2,0.4,0,0.6c-0.2,0.2-0.4,0.2-0.6,0l-1.4-1.5l0,0l0,0
	l-1.4,1.4c-0.2,0.2-0.4,0.2-0.6,0c-0.2-0.2-0.2-0.4,0-0.6l1.4-1.4l-3.1-3.1l-1.5,1.5l-0.1,0L-397.6,257L-397.6,257z"/>
<path d="M-387.7,331.5l2.7-18.7h6.5c0-13.5-1.6-23.4-4.1-30.5l3.2-6.7c0.1-0.3,0.2-0.7,0.2-1.1v-14.8c0-1.3-0.9-2.5-2.2-2.8
	l-3.7-0.9v0.9c0,0.8-0.3,1.4-0.8,1.9l0,0l-5.4,5.6v7.2c0.8,0.4,1.4,1.2,1.4,2.1c0,1.3-1,2.3-2.3,2.3s-2.3-1-2.3-2.3
	c0-1,0.6-1.8,1.4-2.1v-7.2l-5.4-5.6l0,0c-0.5-0.5-0.8-1.2-0.8-1.9v-0.9l-3.7,0.9c-1.3,0.3-2.2,1.4-2.2,2.8v14.8
	c0,0.4,0.1,0.8,0.2,1.1l3.2,6.7c-2.5,7.1-4.1,17-4.1,30.5h6.5l2.7,18.7c-1.4,0.6-3.9,2.1-3.9,3.7h17
	C-383.8,333.7-386.2,332.2-387.7,331.5z M-402.6,303.9c0.6-8.5,1.3-11.2,1.3-11.2c0.2-1.1,0.8-1.7,1.9-1.8l0,0h3.7V290
	c-0.8-0.2-1.4-0.8-1.8-1.5c0-0.1,0-0.1,0-0.2c0-1.5,1.2-2.7,2.7-2.7c0.6,0,1.2,0.2,1.7,0.6h1.4c0.5-0.4,1-0.6,1.7-0.6
	c1.5,0,2.7,1.2,2.7,2.7c0,0.1,0,0.1,0,0.2c-0.3,0.7-1,1.3-1.8,1.5v0.8h3.7l0,0c1.1,0.1,1.7,0.8,1.9,1.8c0,0,0.7,2.8,1.3,11.2H-402.6
	z"/>
<path d="M-393.4,293.5h2.2v2.7h2.7v2.2h-2.7v2.7h-2.2v-2.7h-2.7v-2.2h2.7V293.5z"/>
<path d="M-392.3,288.1c-0.3,1.1-1.3,1.9-2.5,2v0.7h5v-0.7C-391,290-392,289.2-392.3,288.1z"/>
<path d="M-385.1,238.9l-7.2-3.6l-7.1,3.6l1.7,3.7c-0.7,1.1-1.1,2.3-1.1,3.7c0,3.7,3,6.6,6.6,6.6c3.7,0,6.6-3,6.6-6.6
	c0-1.4-0.4-2.7-1.2-3.8L-385.1,238.9z M-390.7,239.4h-1.1v1.1h-1.1v-1.1h-1.1v-1.1h1.1v-1.1h1.1v1.1h1.1
	C-390.7,238.2-390.7,239.4-390.7,239.4z"/>
</svg>
