<svg xmlns="http://www.w3.org/2000/svg" xmlns:xlink="http://www.w3.org/1999/xlink" version="1.1" id="Layer_1" x="0px" y="0px" width="100px" height="100px" viewBox="0 0 100 100" enable-background="new 0 0 100 100" xml:space="preserve">
<g>
	<path d="M59.899,49.499c5.082-9.721,10.408-20.94,11.332-26.836c-0.39-1.501-3.912-9.082-6.997-15.52   c-0.162-0.341-0.325-0.679-0.485-1.013c-0.118,1.895-0.445,3.708-0.913,5.443c-0.008,0.352-0.191,1.002-0.28,0.975   c-0.134,0.444-0.278,0.882-0.43,1.315c-0.98,2.807-2.28,5.385-3.577,7.73c-0.78,1.408-3.439,6.258-6.963,12.689   c-0.259,0.472-0.522,0.952-0.789,1.441c-2.509,4.579-5.39,9.841-8.313,15.181c-0.283,0.518-0.567,1.036-0.851,1.554   c-8.023,14.659-16.12,29.46-17.466,31.921c1.132,1.832,6.269,10.175,8.009,13.562c3.215-4.572,11.432-19.186,15.539-26.488   c0.413-0.734,0.785-1.396,1.108-1.971c0.341-0.604,0.627-1.111,0.852-1.505c0.161-0.285,0.293-0.513,0.385-0.672   c0.366-0.624,4.524-7.736,9.071-16.345C59.386,50.479,59.643,49.991,59.899,49.499z"/>
	<path d="M59.936,52.422c-4.109,7.73-7.827,14.118-8.686,15.583c-0.173,0.295-0.478,0.831-0.888,1.558   c1.271,2.918,2.266,5.126,2.782,6.158c0.566,1.132,1.408,2.741,2.384,4.604c4.173,7.973,8.004,15.448,9.323,19.583   c1.62-3.618,3.025-5.883,4.616-8.446c1.43-2.305,3.046-4.91,5.138-9.024c-2.675-5.133-5.109-10.403-7.261-15.062   c-2.17-4.702-4.221-9.143-6.162-12.686C60.864,54.11,60.442,53.343,59.936,52.422z"/>
	<path d="M50.015,34.279c-3.739-6.915-7.175-13.397-9.679-18.393c-0.214-0.428-0.421-0.844-0.622-1.25   c-0.875-1.769-1.611-3.316-2.177-4.589c-0.136-0.307-0.264-0.599-0.38-0.874c-0.184,0.936-0.402,2.04-0.638,3.235   c-0.131,0.664-0.267,1.356-0.407,2.064c-1.046,5.311-2.26,11.486-2.506,12.893c-0.011,0.886,2.149,7.112,8.204,21.896   C44.716,43.955,47.56,38.761,50.015,34.279z"/>
	<path d="M50.324,11.114c0.615-0.032,1.243-0.049,1.866-0.049c3.809,0,6.986,0.595,9.034,1.114c0.831-2.722,1.315-5.647,1.165-8.766   c-2.697-2.956-4.961-3.506-8.393-3.506c-0.874,0-1.821,0.036-2.824,0.074C46.09,0.173,40.329,3.594,37.713,6.75   c0.338,1.207,1.522,3.806,3.202,7.198C43.376,12.613,46.665,11.306,50.324,11.114z"/>
</g>
</svg>