<?xml version="1.0" encoding="utf-8"?>
<!-- Generator: Adobe Illustrator 19.1.0, SVG Export Plug-In . SVG Version: 6.00 Build 0)  -->
<svg version="1.1" id="Calque_1" xmlns="http://www.w3.org/2000/svg" xmlns:xlink="http://www.w3.org/1999/xlink" x="0px" y="0px"
	 viewBox="-370 235.3 100 125" style="enable-background:new -370 235.3 100 125;" xml:space="preserve">
<style type="text/css">
	.st0{fill:#231F20;}
</style>
<g>
	<path class="st0" d="M-328.2,310.2c-6.6,0-12-5.4-12-12c0-3.5,1.5-6.8,4.2-9.1v-24.9c0-3.5,2.9-6.4,6.4-6.4h2.9
		c3.5,0,6.4,2.9,6.4,6.4V289c2.7,2.3,4.2,5.6,4.2,9.1C-316.2,304.8-321.6,310.2-328.2,310.2z M-329.7,260.9c-1.8,0-3.2,1.4-3.2,3.2
		v26.5l-0.6,0.5c-2.2,1.7-3.5,4.3-3.5,7.1c0,4.9,4,8.8,8.8,8.8s8.8-4,8.8-8.8c0-2.8-1.3-5.4-3.5-7.1l-0.6-0.5v-26.5
		c0-1.8-1.4-3.2-3.2-3.2H-329.7z"/>
	<circle class="st0" cx="-328.2" cy="298" r="6.2"/>
	<path class="st0" d="M-328.2,296.2c-1.3,0-2.4-1.1-2.4-2.4v-13.6c0-1.3,1.1-2.4,2.4-2.4c1.3,0,2.4,1.1,2.4,2.4v13.6
		C-325.8,295.1-326.9,296.2-328.2,296.2z"/>
	<path class="st0" d="M-303.6,292.4c-5.3,0-9.5-4.3-9.5-9.5s4.3-9.5,9.5-9.5c2.5,0,4.9,1,6.7,2.8c0.5,0.5,0.5,1.4,0,1.9
		c-0.5,0.5-1.4,0.5-1.9,0c-1.3-1.3-3-2-4.9-2c-3.8,0-6.9,3.1-6.9,6.9c0,3.8,3.1,6.9,6.9,6.9c1.6,0,3-0.5,4.3-1.5
		c0.6-0.5,1.4-0.4,1.9,0.2c0.5,0.6,0.4,1.4-0.2,1.9C-299.4,291.7-301.4,292.4-303.6,292.4z"/>
	<path class="st0" d="M-313.9,273.9c-1.8,0-3.3-1.5-3.3-3.3s1.5-3.3,3.3-3.3c1.8,0,3.3,1.5,3.3,3.3S-312.1,273.9-313.9,273.9z
		 M-313.9,268.9c-0.9,0-1.7,0.8-1.7,1.7c0,0.9,0.8,1.7,1.7,1.7c0.9,0,1.7-0.8,1.7-1.7S-313,268.9-313.9,268.9z"/>
</g>
</svg>
