<?xml version="1.0" encoding="utf-8"?>
<!-- Generator: Adobe Illustrator 19.1.0, SVG Export Plug-In . SVG Version: 6.00 Build 0)  -->
<svg version="1.1" id="Calque_1" xmlns="http://www.w3.org/2000/svg" xmlns:xlink="http://www.w3.org/1999/xlink" x="0px" y="0px"
	 viewBox="-370 235.3 100 125" style="enable-background:new -370 235.3 100 125;" xml:space="preserve">
<g>
	<path d="M-286,279.3v-8c0,0-2,0-7,0v-11c0,0-5.4,0-7.1,0c-4.3,0-5.6,5.3-5.6,5.3l-1.7,5.7c-9.8,0-20,0-22.6,0c-5.6,0-7,4.9-7,6.9
		c0,0.5,0,1.1,0,1.1h-32.8c2.7,11,8.7,18.2,16.8,24.4c0.6-0.1,1-0.3,1.9-0.8c1.7-1.1,4.2-2.7,8.6-2.7c4.5,0,7,1.7,8.6,2.8
		c1.2,0.8,1.5,1,2.7,1c1.2,0,1.6-0.2,2.7-1c1.7-1.1,4.2-2.8,8.6-2.8c4.5,0,7,1.7,8.6,2.8c1.2,0.8,1.5,1,2.7,1c1.2,0,1.5-0.2,2.7-1
		c1.7-1.1,4.2-2.8,8.6-2.8s7,1.7,8.6,2.8c0.7,0.5,1.1,0.5,1.5,0.7c8-6.2,13.9-15.3,16.7-24.3H-286z M-325,284.3h-6v-6h6V284.3z
		 M-314,284.3h-7v-6h7V284.3z M-303,284.3h-6v-6h6V284.3z M-292,284.3h-6v-6h6V284.3z"/>
	<path d="M-285.5,307.9c-2.4,0-3.6-0.8-5-1.7c-1.5-1-3.2-2.1-6.4-2.1c-3.2,0-4.9,1.1-6.4,2.1c-1.3,0.9-2.5,1.7-4.9,1.7
		c-2.4,0-3.6-0.8-5-1.7c-1.5-1-3.2-2.1-6.4-2.1c-3.2,0-4.9,1.1-6.4,2.1c-1.3,0.9-2.5,1.7-5,1.7c-2.4,0-3.6-0.8-4.9-1.7
		c-1.5-1-3.2-2.1-6.4-2.1s-4.9,1.1-6.4,2.1c-1.3,0.9-2.5,1.7-5,1.7c-0.7,0-1.3,0.6-1.3,1.3c0,0.7,0.6,1.3,1.3,1.3
		c3.2,0,4.9-1.1,6.4-2.1c1.3-0.9,2.5-1.7,5-1.7c2.4,0,3.6,0.8,5,1.7c1.5,1,3.2,2.1,6.4,2.1c3.2,0,4.9-1.1,6.4-2.1
		c1.3-0.9,2.5-1.7,5-1.7c2.4,0,3.6,0.8,5,1.7c1.5,1,3.2,2.1,6.4,2.1c3.2,0,4.9-1.1,6.4-2.1c1.3-0.9,2.5-1.7,5-1.7s3.6,0.8,5,1.7
		c1.5,1,3.2,2.1,6.4,2.1c0.7,0,1.3-0.6,1.3-1.3C-284.2,308.5-284.8,307.9-285.5,307.9z"/>
</g>
</svg>
