<?xml version="1.0" encoding="utf-8"?>
<!-- Generator: Adobe Illustrator 19.1.0, SVG Export Plug-In . SVG Version: 6.00 Build 0)  -->
<svg version="1.1" id="Layer_1" xmlns="http://www.w3.org/2000/svg" xmlns:xlink="http://www.w3.org/1999/xlink" x="0px" y="0px"
	 viewBox="-370 248.3 100 100" style="enable-background:new -370 248.3 100 100;" xml:space="preserve">
<path d="M-288.8,305.3h-16.9c-0.6,0-1.2,0.3-1.5,0.8c-0.5-0.7-1.2-1.1-2.1-1.1h-1.3c-1,0-1.8,0.6-2.3,1.4c-0.4-0.8-1.3-1.4-2.3-1.4
	h-1.3c-1,0-1.8,0.6-2.3,1.4c-0.4-0.8-1.3-1.4-2.3-1.4h-1.3c-1,0-1.8,0.6-2.3,1.4c-0.4-0.8-1.3-1.4-2.3-1.4h-1.3
	c-0.9,0-1.6,0.4-2.1,1.1c-0.3-0.5-0.8-0.8-1.4-0.8h-16.9c-0.9,0-1.7,0.8-1.7,1.7v1.2c0,0.9,0.8,1.7,1.7,1.7h16.9
	c0.6,0,1.1-0.3,1.4-0.8c0.5,0.7,1.2,1.1,2.1,1.1h1.3c1,0,1.8-0.6,2.3-1.4c0.4,0.8,1.3,1.4,2.3,1.4h1.3c1,0,1.8-0.6,2.3-1.4
	c0.4,0.8,1.3,1.4,2.3,1.4h1.3c1,0,1.8-0.6,2.3-1.4c0.4,0.8,1.3,1.4,2.3,1.4h1.3c0.9,0,1.7-0.4,2.1-1.1c0.3,0.5,0.8,0.8,1.5,0.8h16.9
	c0.9,0,1.7-0.8,1.7-1.7V307C-287.1,306.1-287.9,305.3-288.8,305.3z M-326.8,308.4h-1.3c-0.5,0-0.8-0.4-0.8-0.8
	c0-0.5,0.4-0.8,0.8-0.8h1.3c0.5,0,0.8,0.4,0.8,0.8C-325.9,308.1-326.3,308.4-326.8,308.4z M-321,308.4h-1.3c-0.5,0-0.8-0.4-0.8-0.8
	c0-0.5,0.4-0.8,0.8-0.8h1.3c0.5,0,0.8,0.4,0.8,0.8C-320.1,308.1-320.5,308.4-321,308.4z M-315.1,308.4h-1.3c-0.5,0-0.8-0.4-0.8-0.8
	c0-0.5,0.4-0.8,0.8-0.8h1.3c0.5,0,0.8,0.4,0.8,0.8C-314.3,308.1-314.7,308.4-315.1,308.4z M-309.3,308.4h-1.3
	c-0.5,0-0.8-0.4-0.8-0.8c0-0.5,0.4-0.8,0.8-0.8h1.3c0.5,0,0.8,0.4,0.8,0.8C-308.5,308.1-308.8,308.4-309.3,308.4z M-348.5,303.9
	h16.9v-6.3c5.8,0,8.2-4.7,8.2-10.5v-11.7c0,0,0.1-2.3-2.4-2.3c-2.4,0-2.4,2.5-2.4,2.5v6.4c0,0-0.1,1.9-2.6,1.9v-23.1
	c0,0-0.2-1.7-2.2-1.7c-2,0-2.1,1.7-2.1,1.7v16.4c0,0,0,0.7-0.7,0.7s-0.7-0.7-0.7-0.7v-19.9c0,0,0-1.7-2.2-1.7c-2,0-2.1,1.7-2.1,1.7
	v19.9c0,0,0,0.7-0.7,0.7c-0.6,0-0.7-0.7-0.7-0.7v-16.4c0,0,0-1.7-2.2-1.7c-2,0-2.1,1.7-2.1,1.7v16.4c0,0,0,0.7-0.7,0.7
	s-0.7-0.7-0.7-0.7v-11.8c0,0-0.1-1.7-2-1.7c-2.2,0-2.2,1.7-2.2,1.7v25.7c0,4.1,1.3,6.5,3.5,6.5
	C-348.5,297.6-348.5,303.9-348.5,303.9z M-326.8,275.9c0.5,0.4,1.7,0.5,2.3,0l0.4,0.4c-0.4,0.3-1,0.5-1.5,0.5
	c-0.6,0-1.2-0.2-1.6-0.5L-326.8,275.9z M-333.8,261.7c0.2,0.2,0.5,0.3,0.9,0.3c0.4,0,0.7-0.1,0.9-0.3l0.4,0.4
	c-0.3,0.3-0.8,0.5-1.3,0.5c0,0,0,0,0,0c-0.5,0-1-0.2-1.3-0.5L-333.8,261.7z M-339.5,258.3c0.2,0.2,0.5,0.3,0.9,0.3
	c0.4,0,0.7-0.1,0.9-0.3l0.4,0.4c-0.3,0.3-0.8,0.5-1.3,0.5h0c-0.5,0-1-0.2-1.3-0.5L-339.5,258.3z M-345.1,261.7
	c0.2,0.2,0.5,0.3,0.9,0.3c0.4,0,0.7-0.1,0.9-0.3l0.4,0.4c-0.3,0.3-0.8,0.5-1.3,0.5c0,0,0,0,0,0c-0.5,0-1-0.2-1.3-0.5L-345.1,261.7z
	 M-349.7,267.2C-349.7,267.2-349.7,267.2-349.7,267.2c-0.5,0-1-0.2-1.3-0.5l0.4-0.4c0.2,0.2,0.5,0.3,0.9,0.3c0.4,0,0.7-0.1,0.9-0.3
	l0.4,0.4C-348.7,267-349.2,267.2-349.7,267.2z M-287.7,263.7c-2,0-2,1.7-2,1.7v11.8c0,0-0.1,0.7-0.7,0.7c-0.6,0-0.7-0.7-0.7-0.7
	v-16.4c0,0-0.1-1.7-2.1-1.7c-2.2,0-2.2,1.7-2.2,1.7v16.4c0,0-0.1,0.7-0.7,0.7c-0.6,0-0.7-0.7-0.7-0.7v-19.9c0,0-0.1-1.7-2.1-1.7
	c-2.2,0-2.2,1.7-2.2,1.7v19.9c0,0,0,0.7-0.7,0.7s-0.7-0.7-0.7-0.7v-16.4c0,0-0.1-1.7-2.1-1.7c-2,0-2.2,1.7-2.2,1.7v23.1
	c-2.5,0-2.6-1.9-2.6-1.9v-6.4c0,0,0-2.5-2.4-2.5c-2.5,0-2.4,2.3-2.4,2.3v11.7c0,5.8,2.4,10.5,8.2,10.5v6.3h16.9v-6.3
	c2.2,0,3.5-2.4,3.5-6.5v-25.7C-285.5,265.4-285.5,263.7-287.7,263.7z M-311.7,276.8c-0.6,0-1.1-0.1-1.5-0.5l0.4-0.4
	c0.6,0.5,1.8,0.4,2.3,0l0.4,0.4C-310.5,276.6-311.1,276.8-311.7,276.8z M-304.5,262.6C-304.5,262.6-304.5,262.6-304.5,262.6
	c-0.5,0-1-0.2-1.3-0.5l0.4-0.4c0.2,0.2,0.5,0.3,0.9,0.3c0,0,0,0,0,0c0.4,0,0.7-0.1,0.9-0.3l0.4,0.4
	C-303.5,262.4-304,262.5-304.5,262.6z M-298.8,259.2L-298.8,259.2c-0.5,0-1-0.2-1.3-0.5l0.4-0.4c0.2,0.2,0.5,0.3,0.9,0.3h0
	c0.4,0,0.7-0.1,0.9-0.3l0.4,0.4C-297.8,259.1-298.3,259.2-298.8,259.2z M-293.2,262.6C-293.2,262.6-293.2,262.6-293.2,262.6
	c-0.5,0-1-0.2-1.3-0.5l0.4-0.4c0.2,0.2,0.5,0.3,0.9,0.3c0,0,0,0,0,0c0.4,0,0.7-0.1,0.9-0.3l0.4,0.4
	C-292.2,262.4-292.6,262.5-293.2,262.6z M-287.7,267.2L-287.7,267.2c-0.5,0-1-0.2-1.3-0.5l0.4-0.4c0.2,0.2,0.5,0.3,0.9,0.3
	c0.4,0,0.7-0.1,0.9-0.3l0.4,0.4C-286.7,267-287.2,267.2-287.7,267.2z"/>
</svg>
