<?xml version="1.0" encoding="utf-8"?>
<!-- Generator: Adobe Illustrator 19.1.0, SVG Export Plug-In . SVG Version: 6.00 Build 0)  -->
<svg version="1.1" id="Layer_1" xmlns="http://www.w3.org/2000/svg" xmlns:xlink="http://www.w3.org/1999/xlink" x="0px" y="0px"
	 viewBox="-370 248.3 100 100" style="enable-background:new -370 248.3 100 100;" xml:space="preserve">
<path d="M-310.5,306.7c-15.4,0-27.9-12.5-27.9-27.9s12.5-27.9,27.9-27.9c2.3,0,4.5,0.3,6.6,0.8c-4.3-2-9.1-3.2-14.2-3.2
	c-18.6,0-33.6,15-33.6,33.6c0,18.6,15,33.6,33.6,33.6c15,0,27.7-9.8,32-23.3C-290.9,300.9-300,306.7-310.5,306.7z"/>
<polygon points="-325.5,274.1 -315.3,271.2 -311.9,261 -305.9,269.9 -295.2,269.9 -301.8,278.4 -298.5,288.6 -308.6,284.9 
	-317.3,291.1 -316.9,280.5 "/>
</svg>
