<?xml version="1.0" encoding="utf-8"?>
<!-- Generator: Adobe Illustrator 19.1.0, SVG Export Plug-In . SVG Version: 6.00 Build 0)  -->
<svg version="1.1" id="Your_Icon" xmlns="http://www.w3.org/2000/svg" xmlns:xlink="http://www.w3.org/1999/xlink" x="0px" y="0px"
	 viewBox="-370 248.3 100 100" style="enable-background:new -370 248.3 100 100;" xml:space="preserve">
<path d="M-291.8,292.2c0-5.1-5.9-8.1-10.1-5.2c-0.9,0.6-1.6,1.5-2.1,2.5c-0.1,0.2-0.8,2.7-0.6,2.7c-0.5,0-1,0-1.6,0
	c-6.1,0-12.2,0-18.4,0c-2,0-4.1,0-6.1,0c-0.1,0-1-3.1-1.4-3.7c-1.4-2-3.9-3-6.4-2.6c-2.2,0.4-4.1,2-4.8,4.1
	c-0.1,0.3-0.4,2.2-0.5,2.2c-0.5,0-1.1,0-1.6,0c-2.6,0-5.6,0.5-8.1-0.1c-3.2-0.7-2.3-5.8-2.3-8.1c0-2.2,0.2-4,0.8-6.1
	c0.7-2.6,1.5-5.1,2.2-7.7c0.5-1.8,2.2-2.1,3.7-2.1c10.7,0,21.4,0,32,0c10.3,0,20.5,0,30.8,0c0.2,0,0.4,0,0.6,0
	c0.8,0,0.7,0.9,0.7,1.4c0,1.1-0.4,1-1,1.7c-0.5,0.6,0.3,1.9,0.5,2.4c0.6,1.6,1.2,3.2,1.7,4.8c0.8,2.2,1.6,4.1,1.6,6.5
	c0,1.5,1,7.3-1.5,7.3C-286.2,292.2-289,292.2-291.8,292.2 M-285.5,280.9c2,0,0.4-3,0.2-3.8c-0.6-1.7-1.2-3.4-1.8-5
	c-0.5-1.4-1.8-1.1-3-1.1c-1,0-4.9-0.6-4.9,1.1c-0.3,1.2,0,3,0,4.3c0,1-0.6,4.5,1.1,4.5c1.2,0.3,2.8,0,4,0
	C-288.5,280.9-287,280.9-285.5,280.9 M-297.9,280.9c2,0,1.1-7.4,1.1-8.8c0-1.6-2.4-1.2-3.5-1.2c-1.1,0-3.5-0.5-3.9,0.9
	c-0.4,1.5-0.8,2.9-1.3,4.4c-0.3,0.9-1.4,3.2-0.8,4.1c0.6,1,3.1,0.5,4,0.5C-300.8,280.9-299.4,280.9-297.9,280.9 M-309.5,280.9
	c1.3,0,1.6-2.8,1.9-3.7c0.5-1.6,0.9-3.2,1.4-4.9c0.5-1.8-2.4-1.4-3.4-1.4c-1.4,0-3.5-0.4-4.8,0c-1.3,0-1.6,2.8-1.9,3.7
	c-0.5,1.6-0.9,3.2-1.4,4.9C-318.2,281.7-310.7,280.9-309.5,280.9 M-320.7,280.9c1.3,0,1.6-2.8,1.9-3.7c0.5-1.6,0.9-3.2,1.4-4.9
	c0.5-1.8-2.4-1.4-3.4-1.4c-1.4,0-3.5-0.4-4.8,0c-1.3,0-1.6,2.8-1.9,3.7c-0.5,1.6-0.9,3.2-1.4,4.9
	C-329.5,281.7-321.9,280.9-320.7,280.9 M-331.9,280.9c1.3,0,1.6-2.8,1.9-3.7c0.5-1.6,0.9-3.2,1.4-4.9c0.5-1.8-2.4-1.4-3.4-1.4
	c-1.4,0-3.5-0.4-4.8,0c-1.3,0-1.6,2.8-1.9,3.7c-0.5,1.6-0.9,3.2-1.4,4.9C-340.7,281.7-333.1,280.9-331.9,280.9 M-343.1,280.9
	c1.3,0,1.6-2.8,1.9-3.7c0.5-1.6,0.9-3.2,1.4-4.9c0.5-1.8-2.4-1.4-3.4-1.4c-1.4,0-3.5-0.4-4.8,0c-1.3,0-1.6,2.8-1.9,3.7
	c-0.5,1.6-0.9,3.2-1.4,4.9C-351.9,281.7-344.3,280.9-343.1,280.9"/>
<path d="M-342.4,292.2c0,6.8,10.5,6.8,10.5,0C-331.9,285.5-342.4,285.5-342.4,292.2"/>
<path d="M-303.4,292.2c0,6.8,10.5,6.8,10.5,0C-292.9,285.5-303.4,285.5-303.4,292.2"/>
</svg>
