<?xml version="1.0" encoding="utf-8"?>
<!-- Generator: Adobe Illustrator 19.1.0, SVG Export Plug-In . SVG Version: 6.00 Build 0)  -->
<svg version="1.1" id="waterboard" xmlns="http://www.w3.org/2000/svg" xmlns:xlink="http://www.w3.org/1999/xlink" x="0px" y="0px"
	 viewBox="-370 248.3 100 100" style="enable-background:new -370 248.3 100 100;" xml:space="preserve">
<path d="M-331.1,285.2c0.4-0.1,0.9,0.2,1,0.7c0.1,0.4-0.2,0.9-0.7,1c-0.4,0.1-0.9-0.2-1-0.7C-331.8,285.8-331.5,285.3-331.1,285.2z
	 M-336.6,283.5c0.3-0.4,0.2-0.9-0.1-1.2c-0.4-0.3-0.9-0.3-1.2,0.1c-0.3,0.4-0.2,0.9,0.1,1.2C-337.4,283.8-336.9,283.8-336.6,283.5z
	 M-338.5,279.8c-0.3,0.4-0.2,0.9,0.1,1.2c0.4,0.3,0.9,0.3,1.2-0.1s0.2-0.9-0.1-1.2C-337.7,279.4-338.2,279.5-338.5,279.8z
	 M-336.3,285.9c0.3-0.4,0.2-0.9-0.1-1.2c-0.4-0.3-0.9-0.3-1.2,0.1c-0.3,0.4-0.2,0.9,0.1,1.2C-337.1,286.4-336.6,286.3-336.3,285.9z
	 M-336.5,277.6c0.4,0.3,0.9,0.3,1.2-0.1c0.3-0.4,0.2-0.9-0.1-1.2c-0.4-0.3-0.9-0.3-1.2,0.1C-336.9,276.7-336.8,277.3-336.5,277.6z
	 M-331.4,288.6c0.1,0.4,0.5,0.7,1,0.7c0.4-0.1,0.7-0.5,0.7-1c-0.1-0.4-0.5-0.7-1-0.7C-331.1,287.7-331.4,288.1-331.4,288.6z
	 M-332.7,280.4c-0.3,0.4-0.2,0.9,0.1,1.2c0.4,0.3,0.9,0.3,1.2-0.1c0.3-0.4,0.2-0.9-0.1-1.2C-331.9,280.1-332.4,280.1-332.7,280.4z
	 M-332.4,283.5c0.1,0.4,0.5,0.7,1,0.7c0.4-0.1,0.7-0.5,0.7-1c-0.1-0.4-0.5-0.7-1-0.7C-332.2,282.7-332.5,283.1-332.4,283.5z
	 M-338.9,274.3c0.3-0.4,0.2-0.9-0.1-1.2c-0.4-0.3-0.9-0.3-1.2,0.1s-0.2,0.9,0.1,1.2C-339.7,274.7-339.1,274.6-338.9,274.3z
	 M-310.8,304.5l14.5-2.5l-3.1-19l-14.6,2.5c-5.3,0.9-8.7,5.9-7.9,11.1C-320.9,301.8-316,305.3-310.8,304.5z M-336,288.5
	c0.3-0.4,0.2-0.9-0.1-1.2c-0.4-0.3-0.9-0.3-1.2,0.1s-0.2,0.9,0.1,1.2C-336.8,288.9-336.3,288.8-336,288.5z M-337.2,274.1
	c-0.3,0.4-0.2,0.9,0.1,1.2c0.4,0.3,0.9,0.3,1.2-0.1c0.3-0.4,0.2-0.9-0.1-1.2C-336.4,273.8-336.9,273.8-337.2,274.1z M-339.8,271.1
	c-0.4-0.3-0.9-0.3-1.2,0.1s-0.2,0.9,0.1,1.2c0.4,0.3,0.9,0.3,1.2-0.1C-339.4,272-339.5,271.4-339.8,271.1z M-335.2,272.7
	c-0.3,0.4-0.2,0.9,0.1,1.2c0.4,0.3,0.9,0.3,1.2-0.1c0.3-0.4,0.2-0.9-0.1-1.2C-334.4,272.4-334.9,272.4-335.2,272.7z M-334.3,275.3
	c-0.3,0.4-0.2,0.9,0.1,1.2c0.4,0.3,0.9,0.3,1.2-0.1c0.3-0.4,0.2-0.9-0.1-1.2C-333.5,274.9-334,275-334.3,275.3z M-333.5,284.9
	c0.3-0.4,0.2-0.9-0.1-1.2c-0.4-0.3-0.9-0.3-1.2,0.1c-0.3,0.4-0.2,0.9,0.1,1.2C-334.3,285.2-333.8,285.2-333.5,284.9z M-334.1,282.4
	c0.3-0.4,0.2-0.9-0.1-1.2c-0.4-0.3-0.9-0.3-1.2,0.1c-0.3,0.4-0.2,0.9,0.1,1.2C-334.9,282.8-334.4,282.8-334.1,282.4z M-335.1,300.9
	L-335.1,300.9c1.6,0.1,3.3,0,4.5-0.2l2.4-9.2c-1.4-0.8-3-1.3-4.7-1.5c-2.1-0.1-4.1,0.4-5.8,1.3l2.2,9.4
	C-336.1,300.9-335.7,300.9-335.1,300.9z M-332.3,278.9c0.3-0.4,0.2-0.9-0.1-1.2c-0.4-0.3-0.9-0.3-1.2,0.1c-0.3,0.4-0.2,0.9,0.1,1.2
	C-333.1,279.3-332.6,279.3-332.3,278.9z M-333.1,287.5c0.3-0.4,0.2-0.9-0.1-1.2c-0.4-0.3-0.9-0.3-1.2,0.1c-0.3,0.4-0.2,0.9,0.1,1.2
	C-333.9,287.8-333.4,287.8-333.1,287.5z M-336.3,270.3c-0.3,0.4-0.2,0.9,0.1,1.2c0.4,0.3,0.9,0.3,1.2-0.1s0.2-0.9-0.1-1.2
	C-335.4,269.9-336,270-336.3,270.3z M-338.2,276.4c0.3-0.4,0.2-0.9-0.1-1.2c-0.4-0.3-0.9-0.3-1.2,0.1c-0.3,0.4-0.2,0.9,0.1,1.2
	C-339,276.8-338.5,276.7-338.2,276.4z M-337.7,278.7c0.3-0.4,0.2-0.9-0.1-1.2c-0.4-0.3-0.9-0.3-1.2,0.1c-0.3,0.4-0.2,0.9,0.1,1.2
	C-338.6,279.1-338,279.1-337.7,278.7z M-334.6,280.1c0.3-0.4,0.2-0.9-0.1-1.2c-0.4-0.3-0.9-0.3-1.2,0.1c-0.3,0.4-0.2,0.9,0.1,1.2
	C-335.4,280.5-334.9,280.4-334.6,280.1z M-339.1,269.5c-0.3,0.4-0.2,0.9,0.1,1.2c0.4,0.3,0.9,0.3,1.2-0.1c0.3-0.4,0.2-0.9-0.1-1.2
	C-338.3,269.2-338.8,269.2-339.1,269.5z M-338.1,271.8c-0.3,0.4-0.2,0.9,0.1,1.2c0.4,0.3,0.9,0.3,1.2-0.1c0.3-0.4,0.2-0.9-0.1-1.2
	C-337.3,271.4-337.8,271.5-338.1,271.8z M-337.3,267.8c-0.3,0.4-0.2,0.9,0.1,1.2c0.4,0.3,0.9,0.3,1.2-0.1c0.3-0.4,0.2-0.9-0.1-1.2
	C-336.5,267.5-337,267.5-337.3,267.8z M-326.6,292.9l-2.3,9c-0.1,0.4-0.4,0.7-0.7,0.7c-1.7,0.4-4.1,0.4-5.7,0.4l0,0
	c-0.7-0.1-1.6-0.1-2.2-0.3c-0.4-0.1-0.7-0.4-0.7-0.7l-2.3-9.2c-0.1,0.1-0.2,0.2-0.4,0.4c-0.1,0.1-0.3,0.3-0.4,0.4
	c-0.1,0.1-0.3,0.3-0.4,0.4c-0.2,0.3-0.4,0.6-0.7,1c-0.1,0.1-0.1,0.1-0.1,0.2c-0.2,0.3-0.4,0.7-0.5,1c-0.1,0.1-0.1,0.2-0.1,0.3
	c-0.1,0.4-0.3,0.7-0.4,1.2v0.1c-0.1,0.2-0.1,0.4-0.1,0.7c-0.1,0.2-0.1,0.4-0.1,0.7c0,0.1,0,0.3-0.1,0.4c0,0.4-0.1,0.7-0.1,1
	c0,0.1,0,0.2,0,0.3c0,0.2,0,0.4,0.1,0.7c0,0.2,0.1,0.4,0.1,0.7c0,0.1,0,0.1,0,0.1c0.1,0.4,0.2,1,0.4,1.4l0,0l0,0
	c0.1,0.2,0.1,0.4,0.2,0.7c0,0.1,0.1,0.1,0.1,0.2c0.1,0.1,0.1,0.3,0.1,0.4c0.1,0.1,0.1,0.2,0.1,0.3c0.1,0.1,0.1,0.2,0.1,0.3
	c0.1,0.1,0.1,0.2,0.2,0.3c0.1,0.1,0.1,0.1,0.1,0.3c0.1,0.1,0.1,0.1,0.2,0.3c0.1,0.1,0.1,0.2,0.2,0.3s0.1,0.1,0.1,0.2
	c0.1,0.1,0.2,0.2,0.3,0.4l0.1,0.1c1.5,1.6,3.4,2.7,5.6,3.3c0.1,0,0.3,0.1,0.4,0.1c0.1,0,0.1,0,0.2,0c0.4,0.1,0.7,0.1,1,0.1
	c0.1,0,0.3,0,0.5,0c0.1,0,0.4,0,0.5,0c0.2,0,0.5,0,0.7-0.1c0.1,0,0.1,0,0.3-0.1c4.7-0.7,8.4-4.7,8.7-9.6
	C-323.1,297.8-324.4,294.9-326.6,292.9z M-343.2,272.3l-8.5-12.9l6.1-6.7l4.3,2.3c0.1-1.6,0.3-3,0.9-3.7c0.4-0.4,0.7-0.6,1.3-0.6
	c1.9,0,2.6,4.2,2.9,7l4.4,2.3L-343.2,272.3z M-340.2,255.6l2.6,1.4c-0.4-3-1.1-5.2-1.6-5.2c-0.1,0-0.2,0-0.4,0.2
	C-340,252.6-340.2,253.9-340.2,255.6z M-340.6,263.5c-0.4,0.4-0.5,0.9-0.2,1.4c0.3,0.6,1,0.8,1.6,0.5c0.6-0.3,0.8-1,0.4-1.6
	c-0.1-0.3-0.4-0.4-0.7-0.6c-0.4-2.4-0.7-5.4-0.7-7.8l-1.2-0.6C-341.4,257.9-340.9,261.6-340.6,263.5z M-292.3,303.5l0.8,5.1l4.8-0.8
	l-0.8-5.1L-292.3,303.5z M-290.8,281.5l-5,0.8l3.1,19l4.8-0.8L-290.8,281.5z M-323.9,308.8l0.9,5.1l27.9-4.7l-0.8-5.1L-323.9,308.8z
	"/>
</svg>
