<?xml version="1.0" encoding="utf-8"?>
<!-- Generator: Adobe Illustrator 19.1.0, SVG Export Plug-In . SVG Version: 6.00 Build 0)  -->
<svg version="1.1" id="Calque_1" xmlns="http://www.w3.org/2000/svg" xmlns:xlink="http://www.w3.org/1999/xlink" x="0px" y="0px"
	 viewBox="-370 235.3 100 125" style="enable-background:new -370 235.3 100 125;" xml:space="preserve">
<path d="M-285.1,235.3h-69.8c-2,0-3.7,1.7-3.7,3.7v92.6c0,2,1.7,3.7,3.7,3.7h69.8c2,0,3.7-1.7,3.7-3.7V239
	C-281.4,236.9-283.1,235.3-285.1,235.3z M-349.8,255.6c0-6,4.8-10.8,10.8-10.8c6,0,10.8,4.8,10.8,10.8c0,4.4-2.6,8.1-6.4,9.8v9.8
	l-4.4-2.3l-4.4,2.3v-9.8C-347.2,263.8-349.8,260-349.8,255.6z M-293.7,315.7h-52.6v-3.5h52.6V315.7z M-293.7,301.4h-52.6v-3.5h52.6
	V301.4z M-293.7,287h-52.6v-3.5h52.6V287z M-293.7,272.7h-28.5v-3.5h28.5V272.7z M-293.7,258.3h-28.5v-3.5h28.5V258.3z"/>
</svg>
