<?xml version="1.0" encoding="utf-8"?>
<!-- Generator: Adobe Illustrator 17.0.2, SVG Export Plug-In . SVG Version: 6.00 Build 0)  -->
<!DOCTYPE svg PUBLIC "-//W3C//DTD SVG 1.1//EN" "http://www.w3.org/Graphics/SVG/1.1/DTD/svg11.dtd">
<svg version="1.1" id="Calque_1" xmlns="http://www.w3.org/2000/svg" xmlns:xlink="http://www.w3.org/1999/xlink" x="0px" y="0px"
	 width="841.89px" height="1190.55px" viewBox="0 0 841.89 1190.55" enable-background="new 0 0 841.89 1190.55"
	 xml:space="preserve">
<g>
	<path d="M607.013,321.506c39.995,0,56.219,32.961,62.278,51.129l49.136,161.524c9.8,34.744-34.393,49.129-44.93,15.269
		l-44.214-148.305h-12.868l76.634,263.811h-70.604v205.669c0,35.074-52.751,34.898-52.751,0V663.587H548.19l0.035,206.729
		c0,35.362-52.969,35.362-52.969,0l-0.014-205.381h-70.828l76.038-263.811h-11.893l-67.426,148.832
		c-10.531,32.441-55.11,19.123-44.902-15.641c0,0,57.148-120.075,72.298-161.679c6.557-18.007,21.377-51.129,61.744-51.129H607.013z
		"/>
	<circle cx="558.924" cy="252.124" r="57.314"/>
</g>
<g>
	<path d="M285.395,321.506c40.367,0,55.187,33.122,61.744,51.129c15.15,41.604,72.298,161.679,72.298,161.679
		c10.208,34.765-34.372,48.082-44.902,15.641l-67.426-148.832h-11.892l76.038,263.811h-70.828l-0.014,205.381
		c0,35.362-52.969,35.362-52.969,0l0.035-206.729h-21.503v207.016c0,34.898-52.751,35.074-52.751,0V664.935H102.62l76.634-263.811
		h-12.868l-44.214,148.305c-10.538,33.859-54.731,19.475-44.93-15.269l49.136-161.524c6.059-18.169,22.283-51.129,62.278-51.129
		H285.395z"/>
	<circle cx="236.744" cy="252.124" r="57.314"/>
</g>
</svg>
