<?xml version="1.0" encoding="utf-8"?>
<!-- Generator: Adobe Illustrator 19.1.0, SVG Export Plug-In . SVG Version: 6.00 Build 0)  -->
<svg version="1.1" id="Layer_1" xmlns="http://www.w3.org/2000/svg" xmlns:xlink="http://www.w3.org/1999/xlink" x="0px" y="0px"
	 viewBox="-370 248.3 100 100" style="enable-background:new -370 248.3 100 100;" xml:space="preserve">
<g>
	<polygon points="-333.3,305 -324.4,305 -328.8,293.1 	"/>
	<polygon points="-315.6,305 -306.7,305 -311.2,293.1 	"/>
	<path d="M-357,285.5v6.5h6.9v24.8h60.5V292h6.6v-6.5H-357z M-305.3,305.7c0,0.1,0,0.1-0.1,0.2c0,0,0,0,0,0c0,0,0,0,0,0
		c0,0.1-0.1,0.1-0.2,0.2c0,0-2.2,2.6-5.6,2.6c-3.4,0-5.6-2.6-5.6-2.6c-0.1,0-0.1-0.1-0.2-0.2c0,0,0,0,0,0c0,0,0,0,0,0
		c0-0.1-0.1-0.1-0.1-0.2c0,0,0,0,0-0.1c0-0.1,0-0.2,0-0.2c0,0,0,0,0,0c0,0,0,0,0,0l5-13.3h-2.4h-4.6l0,18.4h4.3v2h-10.6v-2h4.3
		l0-18.4h-4.6h-2.4l5,13.3c0,0,0,0,0,0c0,0,0,0,0,0c0,0.1,0,0.2,0,0.2c0,0,0,0,0,0.1c0,0.1,0,0.1-0.1,0.2c0,0,0,0,0,0c0,0,0,0,0,0
		c0,0.1-0.1,0.1-0.2,0.2c0,0-2.3,2.6-5.6,2.6c-3.4,0-5.6-2.6-5.6-2.6c-0.1,0-0.1-0.1-0.2-0.2c0,0,0,0,0,0c0,0,0,0,0,0
		c0-0.1-0.1-0.1-0.1-0.2c0,0,0,0,0-0.1c0-0.1,0-0.2,0-0.2c0,0,0,0,0,0c0,0,0,0,0,0l5.3-14.2c0,0,0,0,0,0c0.1-0.2,0.3-0.4,0.6-0.4
		h3.2h4.6v-2.2h0h1h0h1h0v2.2h4.6h3.2c0.3,0,0.5,0.2,0.6,0.4c0,0,0,0,0,0l5.3,14.2c0,0,0,0,0,0c0,0,0,0,0,0
		C-305.3,305.5-305.3,305.5-305.3,305.7C-305.3,305.6-305.3,305.6-305.3,305.7z"/>
</g>
<g>
	<path d="M-319.8,254.3c3.6,0,6.5,2.9,6.5,6.5s-2.9,6.5-6.5,6.5c-3.6,0-6.5-2.9-6.5-6.5S-323.4,254.3-319.8,254.3z"/>
	<path d="M-329.5,282.7v-5.1h1.6v5.1h16.2l0-5.1h1.6v5.1h5.1v-5.5c0-4.3-2.5-8.6-7.6-8.6l-14.6,0c-4.6,0-7.5,3.8-7.5,8.4v5.6
		L-329.5,282.7L-329.5,282.7z"/>
</g>
<polygon points="-346,277.2 -346,273.7 -350.1,273.7 -350.1,282.9 -346,282.9 -346,279.3 -337,279.3 -337,277.2 "/>
</svg>
