<?xml version="1.0" encoding="utf-8"?>
<!-- Generator: Adobe Illustrator 19.1.0, SVG Export Plug-In . SVG Version: 6.00 Build 0)  -->
<svg version="1.1" id="Your_Icon" xmlns="http://www.w3.org/2000/svg" xmlns:xlink="http://www.w3.org/1999/xlink" x="0px" y="0px"
	 viewBox="-370 248.3 100 100" style="enable-background:new -370 248.3 100 100;" xml:space="preserve">
<g>
	<g>
		<g>
			<path d="M-287.6,309.6h-62.2c-1.9,0-3.3-1.5-3.3-3.3v-38c0-1.9,1.5-3.3,3.3-3.3h17.2v-4.1c0-2.9,2-5.1,4.4-5.1h18.9
				c2.5,0,4.4,2.2,4.4,5.1v4.1h17.3c1.9,0,3.3,1.5,3.3,3.3v38C-284.3,308.1-285.7,309.6-287.6,309.6z M-349.8,266.7
				c-0.9,0-1.6,0.7-1.6,1.6v38c0,0.9,0.7,1.6,1.6,1.6h62.2c0.9,0,1.6-0.7,1.6-1.6v-38c0-0.9-0.7-1.6-1.6-1.6h-18.8v-5.7
				c0-1.9-1.3-3.4-2.8-3.4h-19c-1.6,0-2.8,1.5-2.8,3.4v5.7H-349.8z M-309.3,266.7h-18.8v-6.3h18.8
				C-309.3,260.4-309.3,266.7-309.3,266.7z M-326.5,265h15.5v-3h-15.5V265z"/>
		</g>
	</g>
	<g>
		<path d="M-339.9,288.4c-3.5,0-6.4-2.7-6.7-6.2c-0.1-1.8,0.4-3.5,1.6-4.9c1.2-1.3,2.8-2.1,4.6-2.3c3.7-0.2,6.9,2.6,7.1,6.2
			c0.1,1.8-0.4,3.5-1.6,4.9c-1.2,1.3-2.8,2.1-4.6,2.3C-339.5,288.4-339.7,288.4-339.9,288.4z M-339.8,276.3c-0.1,0-0.2,0-0.4,0
			c-1.4,0.1-2.7,0.7-3.7,1.9c-1,1.1-1.4,2.4-1.3,3.9c0.2,3,2.7,5.2,5.8,5c1.4-0.1,2.7-0.7,3.7-1.9c1-1.1,1.4-2.4,1.3-3.9
			C-334.7,278.4-337,276.3-339.8,276.3z"/>
	</g>
	<g>
		<g>
			<path d="M-318.3,304.9c-0.6,0-1.2-0.1-1.7-0.5l-15.4-9.3c-1-0.6-1.6-1.7-1.6-2.8c0-1.2,0.6-2.2,1.6-2.9l8.5-5.2l-4.1-7.9
				c-0.8-1.6-0.2-3.6,1.4-4.5c0.4-0.2,1-0.4,1.6-0.4c1.3,0,2.4,0.7,3,1.8l5.6,10.7c0.8,1.6,0.3,3.5-1.3,4.4l-6.5,4l7,4.2l3.3-10.5
				c0.3-1,1-1.8,2-2.1c1-0.4,2.1-0.2,2.9,0.3l21.3,12.8c1.6,1,2.1,3,1.1,4.6c-0.6,1-1.6,1.6-2.7,1.6c-0.7,0.1-1.3-0.1-1.9-0.4
				l-17.6-10.7l-3.3,10.5c-0.3,1-1,1.8-2,2.1C-317.6,304.9-318,304.9-318.3,304.9z M-328,272.7c-0.3,0-0.7,0.1-1,0.2
				c-1,0.5-1.4,1.8-0.9,2.7l4.7,9l-9.6,5.9c-0.6,0.4-1,1-1,1.8s0.4,1.4,1,1.7l15.3,9.3c0.5,0.3,1.2,0.4,1.8,0.1s1-0.7,1.3-1.3
				l3.9-12.1l19,11.5c0.4,0.2,0.8,0.3,1.2,0.3c0.7-0.1,1.3-0.4,1.6-1c0.6-1,0.3-2.2-0.7-2.8l-21.3-12.8c-0.5-0.3-1.2-0.4-1.8-0.1
				s-1,0.7-1.2,1.3l-3.9,12.1l-10.3-6.2l8.4-5.1c0.9-0.5,1.3-1.7,0.7-2.7l-5.6-10.7C-326.6,273.2-327.3,272.7-328,272.7z"/>
		</g>
	</g>
	<g>
		<path d="M-302.6,284.5c-0.1,0-0.1,0-0.1,0l-13.5-3.3c-0.1,0-0.2-0.1-0.3-0.2l-3.4-6.4c-0.1-0.2-0.1-0.5,0.1-0.7l5.9-3.6
			c0.1-0.1,0.2-0.1,0.4-0.1l13.5,3.3c0.1,0,0.2,0.1,0.3,0.2c0.1,0.1,0.1,0.2,0.1,0.4l-2.4,9.8C-302.1,284.4-302.3,284.5-302.6,284.5
			z M-315.7,280.2l12.8,3.2l2.2-8.8l-12.8-3.2l-5.3,3.2L-315.7,280.2z"/>
	</g>
	<g>
		<path d="M-314.4,277.9c-0.7,0-1.3-0.4-1.7-1c-0.5-1-0.2-2.1,0.7-2.7c0.3-0.1,0.7-0.3,1-0.3c0.7,0,1.3,0.4,1.7,1
			c0.3,0.4,0.4,1,0.2,1.5c-0.1,0.5-0.4,1-0.9,1.2C-313.7,277.8-314.1,277.9-314.4,277.9z M-314.4,274.9c-0.1,0-0.4,0.1-0.5,0.1
			c-0.4,0.3-0.6,0.9-0.4,1.3c0.3,0.4,0.9,0.6,1.3,0.4c0.2-0.1,0.4-0.4,0.4-0.6s0-0.5-0.1-0.7C-313.7,275.2-314.1,274.9-314.4,274.9z
			"/>
	</g>
	<g>
		<g>
			<path d="M-302.7,306.3c-0.8,0-1.6-0.3-2.1-0.8l-9.3-8.5l0.9-1l9.3,8.5c0.4,0.4,0.9,0.5,1.3,0.4c0.4,0,0.9-0.2,1.2-0.6
				c0.3-0.4,0.5-0.8,0.5-1.3s-0.2-1-0.6-1.3l-10.9-10l0.9-1l11,10.1c0.6,0.6,1,1.3,1,2.1c0,0.8-0.3,1.6-0.8,2.2
				c-0.5,0.6-1.3,1-2.1,1C-302.6,306.3-302.6,306.3-302.7,306.3z"/>
		</g>
	</g>
</g>
</svg>
