<?xml version="1.0" encoding="utf-8"?>
<!-- Generator: Adobe Illustrator 19.1.0, SVG Export Plug-In . SVG Version: 6.00 Build 0)  -->
<svg version="1.1" id="Layer_1" xmlns="http://www.w3.org/2000/svg" xmlns:xlink="http://www.w3.org/1999/xlink" x="0px" y="0px"
	 viewBox="-370 248.3 100 100" style="enable-background:new -370 248.3 100 100;" xml:space="preserve">
<polygon points="-311.2,258.5 -312.7,258.5 -324.1,258.7 -326.1,258.7 -327,259.5 -323,259.6 -314.3,259.9 -309.4,260 "/>
<path d="M-313.4,256.5l-9.4-0.7l-4.3-0.3c0.2,0.5,0.6,1,1,1.4l1,0.9h0l12.9-0.2l0.4,0l0.8-0.7c0.1-0.1,0.1-0.1,0.2-0.2L-313.4,256.5
	z"/>
<path d="M-310.5,250.8c-1.6-1.8-4.3-2-6.1-0.4l-1.9,1.6l-1.9-1.6c-1.8-1.6-4.5-1.4-6.1,0.4c-1,1.1-1.3,2.5-0.9,3.9l5.5,0.4l7.4,0.5
	l4.4,0.3c0,0,0,0,0,0C-309.1,254.3-309.2,252.3-310.5,250.8z"/>
<path d="M-295.7,272.1l-12.7-11.2l-6.8-0.2l-6.8-0.2l-5.9-0.2l-13.4,11.7c-1.3,1.1-1.8,2.8-1.3,4.4l4.4,15.8c0,0,0,0,0,0
	c0.1,0.2,0.1,0.4,0.2,0.6c0,0,0,0.1,0,0.1c0.1,0.2,0.2,0.4,0.3,0.5c0,0,0,0,0.1,0.1c0.1,0.2,0.2,0.3,0.4,0.4c0,0,0,0.1,0.1,0.1
	c0.1,0.1,0.3,0.3,0.4,0.4c0,0,0.1,0.1,0.1,0.1c0.2,0.1,0.3,0.2,0.5,0.3c0,0,0,0,0,0c0.2,0.1,0.4,0.2,0.6,0.2c0,0,0.1,0,0.1,0
	c0.2,0.1,0.4,0.1,0.6,0.1c0,0,0.1,0,0.1,0c0.2,0,0.4,0,0.6,0c0,0,0,0,0,0c0,0,0,0,0,0h1.9V316h27.2v-20.6h1.9c0,0,0,0,0,0
	c0,0,0,0,0.1,0c0.2,0,0.4,0,0.5,0c0.1,0,0.1,0,0.2,0c0.2,0,0.4-0.1,0.6-0.1c0,0,0.1,0,0.1,0c0.2-0.1,0.3-0.1,0.5-0.2
	c0,0,0.1,0,0.1-0.1c0.2-0.1,0.3-0.2,0.5-0.3c0.1,0,0.1-0.1,0.2-0.1c0.1-0.1,0.3-0.2,0.4-0.3c0.1-0.1,0.1-0.1,0.2-0.2
	c0.1-0.1,0.2-0.2,0.2-0.3c0.1-0.1,0.1-0.2,0.2-0.3c0.1-0.1,0.1-0.2,0.2-0.4c0-0.1,0.1-0.1,0.1-0.2c0.1-0.2,0.1-0.3,0.2-0.5
	c0,0,0-0.1,0-0.1l4.4-15.8C-293.9,274.9-294.4,273.1-295.7,272.1z M-306.2,286.8h-5.6c-1.6,1.9-4,3.1-6.7,3.1
	c-2.7,0-5.1-1.2-6.7-3.1h-5.6l-2.8-10l15-13.2l15,13.2L-306.2,286.8z"/>
<path d="M-318.5,273.4c-4.3,0-7.8,3.5-7.8,7.8c0,2.2,0.9,4.1,2.3,5.6c1.4,1.4,3.3,2.2,5.4,2.2s4-0.8,5.4-2.2
	c1.4-1.4,2.3-3.4,2.3-5.6C-310.7,276.9-314.2,273.4-318.5,273.4z"/>
</svg>
