<?xml version="1.0" encoding="utf-8"?>
<!-- Generator: Adobe Illustrator 19.1.0, SVG Export Plug-In . SVG Version: 6.00 Build 0)  -->
<svg version="1.1" id="Layer_1" xmlns="http://www.w3.org/2000/svg" xmlns:xlink="http://www.w3.org/1999/xlink" x="0px" y="0px"
	 viewBox="-370 248.3 100 100" style="enable-background:new -370 248.3 100 100;" xml:space="preserve">
<g>
	<g>
		<rect x="-299.7" y="283" transform="matrix(0.7072 0.7071 -0.7071 0.7072 113.9309 292.3809)" width="7.4" height="1.5"/>
	</g>
	<g>
		<path d="M-309.4,295c-0.6,0.6-0.6,1.5,0,2.1l0,0c0.6,0.6,1.5,0.6,2.1,0l2-2l8.2-8.2l1-1l-1-1l0,0l-1-1l-1,1L-309.4,295z"/>
	</g>
	<g>
		<path d="M-295,286.9L-295,286.9l-0.5-0.5l-0.5,0.5l-8.8,8.8l-2.5,2.5c-0.2,0.2-0.3,0.5-0.2,0.8l-2.8,0.8l-1.8-1.8l0.8-2.8
			c0.3,0.1,0.6,0,0.8-0.2l2.5-2.5l0,0l9.3-9.3l-0.5-0.5l0,0c0,0,0,0,0,0l-0.5-0.5l-9.3,9.3l0,0l-2.5,2.5c0,0,0,0.1-0.1,0.1
			c-0.1,0-0.1,0.1-0.2,0.2l-2,6.7c0,0.1,0,0.3,0.1,0.4c0.1,0.1,0.2,0.1,0.4,0.1l6.7-2c0,0,0,0,0,0c0.1,0,0.2-0.1,0.3-0.2l2.5-2.5
			l8.8-8.8l0.5-0.5L-295,286.9L-295,286.9z"/>
	</g>
	<g>
		<path d="M-290.1,281l-3.1-3.1c-0.6-0.6-1.5-0.6-2.1,0l-1.3,1.3c0,0,0,0,0,0l-1,1l1,1l3.1,3.1l1,1l1-1l0.6-0.6l0.6-0.6
			C-289.5,282.5-289.5,281.6-290.1,281z"/>
	</g>
</g>
<g>
	<g>
		<g>
			<path d="M-296.1,275.1v-11.5c0,0,0-0.1,0-0.1c0-0.4-0.2-0.7-0.4-0.9l-6.6-6.6l-3.3-3.3c-0.1-0.1-0.2-0.1-0.2-0.2c0,0,0,0-0.1,0
				c-0.2-0.1-0.3-0.1-0.5-0.1h-31.5c-1.4,0-2.6,1.2-2.6,2.6v56.4c0,1.4,1.2,2.6,2.6,2.6h40c1.4,0,2.6-1.2,2.6-2.6v-18.6l-2.2,2.2
				v16.4c0,0.2-0.2,0.4-0.4,0.4h-40c-0.2,0-0.4-0.2-0.4-0.4v-56.4c0-0.2,0.2-0.4,0.4-0.4h30.4v7.4c0,1.4,1.2,2.6,2.6,2.6h7.4v12.8
				L-296.1,275.1z M-306.1,261.9v-5.8l1.8,1.8l4.4,4.4h-5.8C-305.9,262.3-306.1,262.1-306.1,261.9z"/>
		</g>
	</g>
	<g>
		<g>
			<path d="M-331.4,274.5h16.7c0.6,0,1.1-0.5,1.1-1.1c0-0.6-0.5-1.1-1.1-1.1h-16.7c-0.6,0-1.1,0.5-1.1,1.1
				C-332.5,274-332,274.5-331.4,274.5z"/>
		</g>
	</g>
	<g>
		<g>
			<path d="M-313.6,287.8c0-0.6-0.5-1.1-1.1-1.1h-16.7c-0.6,0-1.1,0.5-1.1,1.1c0,0.6,0.5,1.1,1.1,1.1h16.7
				C-314.1,289-313.6,288.5-313.6,287.8z"/>
		</g>
	</g>
	<g>
		<g>
			<path d="M-331.4,299.9c-0.6,0-1.1,0.5-1.1,1.1c0,0.6,0.5,1.1,1.1,1.1h8.3c0.6,0,1.1-0.5,1.1-1.1c0-0.6-0.5-1.1-1.1-1.1H-331.4z"
				/>
		</g>
	</g>
	<g>
		<g>
			<path d="M-331.4,264.5h8.3c0.6,0,1.1-0.5,1.1-1.1c0-0.6-0.5-1.1-1.1-1.1h-8.3c-0.6,0-1.1,0.5-1.1,1.1
				C-332.5,264-332,264.5-331.4,264.5z"/>
		</g>
	</g>
	<g>
		<g>
			<path d="M-331.4,260.1h8.3c0.6,0,1.1-0.5,1.1-1.1c0-0.6-0.5-1.1-1.1-1.1h-8.3c-0.6,0-1.1,0.5-1.1,1.1
				C-332.5,259.6-332,260.1-331.4,260.1z"/>
		</g>
	</g>
	<g>
		<g>
			<path d="M-305.3,277.1h-26.1c-0.6,0-1.1,0.5-1.1,1.1c0,0.6,0.5,1.1,1.1,1.1h26.1c0.6,0,1.1-0.5,1.1-1.1
				C-304.2,277.6-304.7,277.1-305.3,277.1z"/>
		</g>
	</g>
	<g>
		<g>
			<path d="M-304.2,283c0-0.6-0.5-1.1-1.1-1.1h-26.1c-0.6,0-1.1,0.5-1.1,1.1c0,0.6,0.5,1.1,1.1,1.1h26.1
				C-304.7,284.1-304.2,283.6-304.2,283z"/>
		</g>
	</g>
	<g>
		<path d="M-334.2,260.5h-2.2c-0.2,0-0.4-0.2-0.4-0.4v-2.2c0-0.2,0.2-0.4,0.4-0.4h2.2c0.2,0,0.4,0.2,0.4,0.4v2.2
			C-333.8,260.3-334,260.5-334.2,260.5z M-336,259.8h1.5v-1.5h-1.5V259.8z"/>
	</g>
	<g>
		<path d="M-334.2,264.9h-2.2c-0.2,0-0.4-0.2-0.4-0.4v-2.2c0-0.2,0.2-0.4,0.4-0.4h2.2c0.2,0,0.4,0.2,0.4,0.4v2.2
			C-333.8,264.7-334,264.9-334.2,264.9z M-336,264.1h1.5v-1.5h-1.5V264.1z"/>
	</g>
	<g>
		<path d="M-334.2,274.9h-2.2c-0.2,0-0.4-0.2-0.4-0.4v-2.2c0-0.2,0.2-0.4,0.4-0.4h2.2c0.2,0,0.4,0.2,0.4,0.4v2.2
			C-333.8,274.7-334,274.9-334.2,274.9z M-336,274.1h1.5v-1.5h-1.5V274.1z"/>
	</g>
	<g>
		<path d="M-334.2,279.7h-2.2c-0.2,0-0.4-0.2-0.4-0.4v-2.2c0-0.2,0.2-0.4,0.4-0.4h2.2c0.2,0,0.4,0.2,0.4,0.4v2.2
			C-333.8,279.5-334,279.7-334.2,279.7z M-336,279h1.5v-1.5h-1.5V279z"/>
	</g>
	<g>
		<path d="M-334.2,284.5h-2.2c-0.2,0-0.4-0.2-0.4-0.4v-2.2c0-0.2,0.2-0.4,0.4-0.4h2.2c0.2,0,0.4,0.2,0.4,0.4v2.2
			C-333.8,284.3-334,284.5-334.2,284.5z M-336,283.8h1.5v-1.5h-1.5V283.8z"/>
	</g>
	<g>
		<path d="M-334.2,289.3h-2.2c-0.2,0-0.4-0.2-0.4-0.4v-2.2c0-0.2,0.2-0.4,0.4-0.4h2.2c0.2,0,0.4,0.2,0.4,0.4v2.2
			C-333.8,289.2-334,289.3-334.2,289.3z M-336,288.6h1.5v-1.5h-1.5V288.6z"/>
	</g>
	<g>
		<path d="M-334.2,302.5h-2.2c-0.2,0-0.4-0.2-0.4-0.4v-2.2c0-0.2,0.2-0.4,0.4-0.4h2.2c0.2,0,0.4,0.2,0.4,0.4v2.2
			C-333.8,302.4-334,302.5-334.2,302.5z M-336,301.8h1.5v-1.5h-1.5V301.8z"/>
	</g>
</g>
</svg>
