<?xml version="1.0" encoding="utf-8"?>
<!-- Generator: Adobe Illustrator 19.1.0, SVG Export Plug-In . SVG Version: 6.00 Build 0)  -->
<svg version="1.1" id="Calque_1" xmlns="http://www.w3.org/2000/svg" xmlns:xlink="http://www.w3.org/1999/xlink" x="0px" y="0px"
	 viewBox="-372 238.3 96 120" style="enable-background:new -372 238.3 96 120;" xml:space="preserve">
<path d="M-293,284.3c-7,0-12.8,5.3-13.8,12c-0.1,0-0.1,0-0.2,0h-4l15.7-22.9c0.2-0.3,0.4-0.7,0.4-1.1v-6c0-1.1-0.9-2-2-2h-58
	c0,0-0.1,0-0.1,0l-2.1-3.1c-0.4-0.6-1-0.9-1.7-0.9h-8.2c-1.1,0-2,0.9-2,2s0.9,2,2,2h7.1l10.5,15.9l-7.5,21.4c-0.2,0.7-0.1,1.5,0.4,2
	c0.4,0.4,0.9,0.6,1.5,0.6c0.2,0,0.3,0.3,0.5,0.3l18-4.3c0.4,0,0.9,0,1.5,0h28c0.1,0,0.1,0,0.2,0c1,6.8,6.8,12,13.8,12
	c7.7,0,14-6.3,14-14S-285.3,284.3-293,284.3z M-346.6,284.4l7.7,11.6l-13,3.4L-346.6,284.4z M-293,304.3c-3.3,0-6-2.7-6-6s2.7-6,6-6
	c3.3,0,6,2.7,6,6S-289.7,304.3-293,304.3z"/>
<path d="M-291,298.3c0,1.1-0.9,2-2,2s-2-0.9-2-2s0.9-2,2-2S-291,297.2-291,298.3z"/>
</svg>
