<svg xmlns="http://www.w3.org/2000/svg" xmlns:xlink="http://www.w3.org/1999/xlink" version="1.1" x="0px" y="0px" viewBox="0 0 100 100" enable-background="new 0 0 100 100" xml:space="preserve"><g><path d="M54.437,54.772c6.592-10.727,8.149-17.886,5.042-23.211c-4.776-8.188-13.041-9.939-18.662-8.954   c-4.254,0.748-7.426,5.368-8.938,8.058c-2.533,4.5-4.551,11.014-3.302,14.215c0.244,0.625,0.692,1.342,1.29,2.106   c-0.659,2.188-2.126,8.763,2.265,13.615c4.129,4.562,6.341,9.178,5.38,11.224c-5.651,12.03-7.749,17.57-6.103,20.743   c0.672,1.292,1.894,2.075,3.738,2.398C35.272,94.989,35.397,95,35.524,95c5.891-0.004,12.644-23.337,12.692-23.582   c0.016-0.086,0.029-0.173,0.044-0.262c0.74,1.8,0.734,2.84,0.571,3.418c-3.199,11.194-3.678,16.294-1.769,18.814   c0.808,1.068,2.003,1.61,3.554,1.61c0.008,0,0.017,0,0.022,0c0.821-0.003,1.59-0.423,2.28-1.247   c3.394-4.044,5.993-20.113,5.455-23.234c-0.591-3.43-3.878-8.071-6.083-11.186c-0.731-1.033-1.184-1.83-1.465-2.396   C52.297,56.571,53.761,55.869,54.437,54.772z M55.722,70.976c0.556,3.231-2.852,20.172-5.156,21.33   c-0.844-0.013-1.168-0.296-1.356-0.544c-1.806-2.385,1.113-12.602,2.212-16.448c1.149-4.022-3.146-10.085-6.477-14.296   c-0.138-0.176-0.246-0.311-0.301-0.378c-0.046-0.066-0.083-0.117-0.107-0.154c-0.414-0.587-1.217-0.745-1.824-0.358   c-0.605,0.387-0.804,1.18-0.448,1.803c0.037,0.066,0.08,0.129,0.149,0.225c1.126,1.631,3.671,6.053,3.156,8.759   c-0.819,4.284-7.402,21.05-9.958,21.399c-1.28-0.226-1.646-0.67-1.812-0.986c-1.2-2.312,2.224-10,6.15-18.356   c2.222-4.729-3.893-12.045-5.821-14.176c-2.678-2.962-2.508-6.956-2.061-9.398c4.039,3.907,10.403,8.044,13.999,8.186   c0.072,0.002,0.143,0.005,0.21,0.005c0.702,0,1.256-0.145,1.693-0.357c0.012,0,0.026,0,0.039,0.002   c0.281,0.714,0.875,1.95,2.116,3.702C52.033,63.632,55.233,68.148,55.722,70.976z M49.635,54.438   c-0.051-1.224-0.863-2.47-2.082-3.739c0.663-0.049,1.325-0.161,1.948-0.36c2.688-0.856,5.484-8.737,6.91-13.359   c0.22-0.711-0.179-1.464-0.889-1.684c-0.711-0.22-1.465,0.179-1.685,0.889c-1.773,5.743-4.149,11.057-5.154,11.587   c-1.924,0.613-4.325,0.035-4.789-0.261c-0.437-0.343-0.882-0.691-1.329-1.038c-1.707-1.327-4.289-3.334-4.507-4.083   c-0.342-1.275-0.033-3.968,3.391-9.558c0.39-0.635,0.19-1.462-0.445-1.852c-0.635-0.388-1.462-0.189-1.853,0.445   c-3.239,5.287-4.413,8.994-3.694,11.663c0.412,1.53,2.343,3.091,5.456,5.511c1.775,1.38,6.495,5.046,5.996,6.075   c-0.028,0.06-0.117,0.241-0.736,0.213c-3.972-0.156-13.812-7.718-15.087-10.99c-0.691-1.769,0.428-7.098,3.14-11.915   c2.175-3.867,4.747-6.319,7.054-6.724c0.771-0.135,1.599-0.209,2.466-0.209c4.496,0,9.983,2.003,13.403,7.866   c1.581,2.708,2.78,7.773-5.009,20.444C51.809,53.904,50.659,54.263,49.635,54.438z"></path><path d="M77.832,35.306c-0.194-2.207-1.77-4.042-4.32-5.033c-2.016-0.784-4.64-4.859-5.473-6.349   c-1.375-2.579-2.946-4.256-4.525-5.326c0.386-0.782,0.683-1.626,0.865-2.522c0.503-2.434,0.146-4.897-1.002-6.943   c-1.182-2.108-3.058-3.52-5.28-3.979C57.599,5.053,57.09,5,56.585,5c-4.049,0-7.655,3.242-8.574,7.708   c-1.048,5.092,1.771,9.992,6.283,10.922c0.496,0.102,1.005,0.152,1.511,0.152c0.001,0,0.001,0,0.001,0   c1.098,0,2.157-0.244,3.146-0.678c1.682,2.378,3.364,5.951,3.984,11.135c0.615,5.161,2.732,5.931,3.942,5.931   c0.556,0,1.076-0.168,1.501-0.419c0.452,0.598,1.069,1.549,1.386,2.619c0.789,2.673,2.245,3.073,3.044,3.073l0,0   c0.944,0,1.891-0.56,2.599-1.536c0.758-1.048,1.355-2.78,0.947-4.686C77.397,38.3,77.965,36.834,77.832,35.306z M55.806,21.088   L55.806,21.088c-0.324,0-0.65-0.033-0.967-0.098c-3.059-0.63-4.937-4.101-4.188-7.74c0.661-3.22,3.158-5.556,5.936-5.556   c0.323,0,0.648,0.033,0.967,0.1c1.445,0.297,2.68,1.24,3.473,2.658c0.83,1.479,1.085,3.284,0.715,5.081   c-0.136,0.663-0.355,1.286-0.634,1.861c-1.147-0.392-2.244-0.532-3.208-0.532c-1.807,0-3.056,0.493-3.107,0.514   c-0.328,0.129-0.546,0.442-0.562,0.794c-0.016,0.353,0.178,0.683,0.494,0.841c0.026,0.014,1.058,0.565,2.389,1.898   C56.687,21.024,56.251,21.088,55.806,21.088z"></path><path d="M66.563,42.907c-0.253,0.014-0.488,0.137-0.648,0.336c-0.191,0.238-1.861,2.397-1.573,4.515   c0.125,0.91,0.604,1.689,1.384,2.254c0.494,0.355,0.996,0.535,1.503,0.535l0,0c0.856,0,1.589-0.531,1.953-1.419   c0.59-1.43,0.22-3.828-1.933-5.963C67.068,42.986,66.826,42.896,66.563,42.907z"></path></g></svg>