<?xml version="1.0" encoding="utf-8"?>
<!-- Generator: Adobe Illustrator 19.1.0, SVG Export Plug-In . SVG Version: 6.00 Build 0)  -->
<svg version="1.1" id="Layer_1" xmlns="http://www.w3.org/2000/svg" xmlns:xlink="http://www.w3.org/1999/xlink" x="0px" y="0px"
	 viewBox="-380 248.3 79.4 100" style="enable-background:new -380 248.3 79.4 100;" xml:space="preserve">
<g>
	<path d="M-357.3,319.5h-1.3c-2,0-3.6-1.6-3.6-3.6v-43.8c-3.8-2.2-6.3-7.1-6.3-12.6c0-7.6,4.7-13.8,10.5-13.8
		c5.8,0,10.5,6.2,10.5,13.8c0,5.5-2.5,10.5-6.3,12.6v43.8C-353.7,317.9-355.3,319.5-357.3,319.5z M-357.9,248.5
		c-4.2,0-7.6,4.9-7.6,10.9c0,4.7,2.2,9,5.4,10.4l0.9,0.4v45.6c0,0.4,0.3,0.7,0.7,0.7h1.3c0.4,0,0.7-0.3,0.7-0.7v-45.6l0.9-0.4
		c3.2-1.4,5.4-5.7,5.4-10.4C-350.3,253.4-353.7,248.5-357.9,248.5z"/>
</g>
<g>
	<path d="M-321.2,319.5h-1.3c-2,0-3.6-1.6-3.6-3.6v-62.4c0-4.5,3.6-8.1,8.1-8.1c4.5,0,8.1,3.6,8.1,8.1V283c0,4.3-3.4,7.9-7.7,8.1
		v24.8C-317.6,317.9-319.2,319.5-321.2,319.5z M-318,248.3c-2.9,0-5.2,2.3-5.2,5.2v62.4c0,0.4,0.3,0.7,0.7,0.7h1.3
		c0.4,0,0.7-0.3,0.7-0.7v-28l1.7,0.3c0.3,0,0.6,0.1,0.8,0.1c2.9,0,5.2-2.3,5.2-5.2v-29.5C-312.8,250.7-315.1,248.3-318,248.3z"/>
</g>
<g>
	<path d="M-336.8,319.5h-1.3c-2,0-3.6-1.6-3.6-3.6v-43.2c-2.4-1.5-3.8-4.1-3.8-6.9v-18.4c0-0.8,0.6-1.4,1.4-1.4s1.4,0.6,1.4,1.4
		v18.4c0,2,1.2,3.9,3,4.7l0.8,0.4v44.9c0,0.4,0.3,0.7,0.7,0.7h1.3c0.4,0,0.7-0.3,0.7-0.7V271l0.8-0.4c1.8-0.9,3-2.7,3-4.7v-18.4
		c0-0.8,0.6-1.4,1.4-1.4c0.8,0,1.4,0.6,1.4,1.4v18.4c0,2.8-1.5,5.4-3.8,6.9v43.2C-333.2,317.9-334.8,319.5-336.8,319.5z"/>
</g>
<g>
	<path d="M-339.5,262.2c-0.8,0-1.4-0.6-1.4-1.4v-13.3c0-0.8,0.6-1.4,1.4-1.4s1.4,0.6,1.4,1.4v13.3
		C-338.1,261.6-338.7,262.2-339.5,262.2z"/>
</g>
<g>
	<path d="M-335.3,262.2c-0.8,0-1.4-0.6-1.4-1.4v-13.3c0-0.8,0.6-1.4,1.4-1.4s1.4,0.6,1.4,1.4v13.3
		C-333.9,261.6-334.5,262.2-335.3,262.2z"/>
</g>
</svg>
