<?xml version="1.0" encoding="utf-8"?>
<!-- Generator: Adobe Illustrator 19.1.0, SVG Export Plug-In . SVG Version: 6.00 Build 0)  -->
<svg version="1.1" id="Calque_1" xmlns="http://www.w3.org/2000/svg" xmlns:xlink="http://www.w3.org/1999/xlink" x="0px" y="0px"
	 viewBox="0 -298.3 841.9 1190.6" style="enable-background:new 0 -298.3 841.9 1190.6;" xml:space="preserve">
<style type="text/css">
	.st0{fill:#FFFFFF;}
</style>
<path d="M715.6,329.1v81.6H606.2v-81.6c0-29.8-13.8-55.7-38.3-68.9c-19.7,41.2-60.3,68.5-109,68.5c-44.8,0-82.5-27.5-103.9-61.2
	H169.5c-3.6,58.9-11.9,100-21.7,100c-13,0-23.5-71.6-23.5-160.5s10.5-162.9,23.5-162.9c9.8,0,18.2,38.2,21.7,97.1h185.3
	c10.4-16.8,24.1-28.3,41-38.9V65.5h-0.6c0,0-25.1,2.4-25.1-22.2c0-10.3,5.1-19.8,14.8-24.3c3.5-1.6,7.8-0.9,11-3.2
	c8.9-6.5,13-20.1,19.5-28.7c6.3-8.3,14-13.8,22.5-17.4v-26.2c-25.3-7-36.2-29.5-42.6-46.4H368c-6.9,8.4-20.3,21.8-35.6,21.8
	c-22.5,0-40.7-17.8-40.7-40.3s18.2-40.7,40.7-40.7c13.7,0,25.7,0.3,33.1,17.1h31.1c9.6-33.7,34.5-44.4,63.8-44.4
	c29.3,0,54.2,10.7,63.8,44.4h31.3c7.4-16.8,19.4-16.9,33.1-16.9c22.5,0,40.7,18.3,40.7,40.8s-18.2,40-40.7,40
	c-15.3,0-28.7-13.3-35.6-21.8h-27.4c-6.3,16.8-28.8,39.3-45.6,46.3v26.4c8.4,3.6,17.3,9.5,23.5,17.7c6.5,8.6,11.9,22.6,20.8,29.1
	c3.1,2.3,7.9,2.4,11.4,4c9.7,4.4,15,12.4,15,22.7c0,24.6-24.9,22.2-24.9,22.2H522v37c16.8,10.7,31.4,25.9,41.8,43.9
	C650.6,161.9,715.6,237.9,715.6,329.1z M663.8,425.4c-2.2,0-4.2,1.2-5.4,3c-4.3,7.1-41.7,69.7-41.7,93.3c0,26,21.1,47.1,47.1,47.1
	s47.1-21.1,47.1-47.1c0-23.6-37.5-86.2-41.7-93.3C668,426.6,666,425.4,663.8,425.4z"/>
<rect x="440.6" y="-309.8" transform="matrix(-0.8414 -0.5404 0.5404 -0.8414 771.6389 454.778)" class="st0" width="24" height="848"/>
<rect x="428.1" y="-320.7" transform="matrix(-0.8414 -0.5404 0.5404 -0.8414 754.6451 428.1295)" width="24" height="848"/>
</svg>
