<?xml version="1.0" encoding="utf-8"?>
<!-- Generator: Adobe Illustrator 19.1.0, SVG Export Plug-In . SVG Version: 6.00 Build 0)  -->
<svg version="1.1" id="Layer_1" xmlns="http://www.w3.org/2000/svg" xmlns:xlink="http://www.w3.org/1999/xlink" x="0px" y="0px"
	 viewBox="-375 253.3 90 90" style="enable-background:new -375 253.3 90 90;" xml:space="preserve">
<g>
	<polygon points="-329.7,286.2 -329.7,286.2 -329.7,286.2 -327.7,283.2 -329.3,268.2 -328.3,266.7 -329.7,265.1 -329.7,265.1 
		-329.7,265.1 -329.7,265.1 -329.7,265.1 -331.1,266.7 -330.1,268.2 -331.7,283.2 	"/>
	<g>
		<circle cx="-329.7" cy="257.4" r="6.1"/>
		<path d="M-313.6,274c-1.1-2.5-2.6-4.3-4.2-5.6c-0.7-0.6-1.2-0.9-1.5-1c-2.6-1.6-5.3-2.2-7.3-2.4l2.2,24.5h-5.3h-5.3l2.2-24.5
			c-2,0.2-4.8,0.8-7.3,2.4c-0.3,0.1-0.8,0.4-1.5,1c-1.6,1.3-3.1,3.1-4.2,5.6l0,0c-2.6,5.6-1.3,18.1,0.1,21.4c0.2,0.4,0.3,0.7,0.5,1
			c0.4,0.7,1.1,1.2,1.9,1.2c1.2,0,2.2-1,2.2-2.3c0-1.2-1-2.3-2.2-2.3c0,0-0.1,0-0.1,0c-0.4-4-0.8-12,2-15.8c0.7-0.9,1.3-0.3,1.4-0.2
			l0.5,4.2l0.4,2.9l0,0l0.5,3.8l3.6,27.9c0,0.7,1,1.2,2.3,1.2c1.2,0,2.2-0.5,2.3-1.1h0l0-0.1v-21.4c0-0.4,0.4-0.8,0.8-0.8
			c0.4,0,0.8,0.3,0.8,0.8l0,0v21.4c0,0,0,0,0,0c0,0,0,0,0,0c0,0.7,1,1.2,2.3,1.2c1.1,0,2.1-0.4,2.3-1h0l0.1-0.2l4.2-31.7l0.9-7.3
			c0.2-0.2,0.7-0.4,1.2,0.3c2.8,3.8,2.4,11.8,2,15.8c0,0-0.1,0-0.1,0c-1.2,0-2.2,1-2.2,2.3c0,1.2,0.9,2.1,2,2.2v1.5c0,0,0,0.1,0,0.1
			h-1.1c-0.4,0-0.7,0.3-0.7,0.7v10.6c0,0.4,0.3,0.7,0.7,0.7h2.9c0.4,0,0.7-0.3,0.7-0.7v-10.6c0-0.4-0.3-0.7-0.7-0.7h-1.1
			c0,0,0-0.1,0-0.1v-1.5c0.6-0.1,1.2-0.6,1.4-1.1c0.2-0.2,0.3-0.5,0.5-1C-312.3,292.1-311,279.7-313.6,274L-313.6,274z"/>
	</g>
</g>
</svg>
