<?xml version="1.0" encoding="utf-8"?>
<!-- Generator: Adobe Illustrator 19.1.0, SVG Export Plug-In . SVG Version: 6.00 Build 0)  -->
<svg version="1.1" id="Calque_1" xmlns="http://www.w3.org/2000/svg" xmlns:xlink="http://www.w3.org/1999/xlink" x="0px" y="0px"
	 viewBox="-370 235.3 100 125" style="enable-background:new -370 235.3 100 125;" xml:space="preserve">
<g>
	<path d="M-327.6,296.8l-1.7-7l-13.6,3.4l-1.4-5.9c0,0,6.1-9.1,5-13.5l-1-4.3l-4-16.6c-1-4.4-7.3-3.1-6.2,1.5l2.9,12.1
		c0.2,0.7-1.6,1.1-1.7,0.4l-4.3-18.5c0-0.1-0.1-0.3-0.1-0.4c-0.4-1.4-1.6-2.5-3.4-2.1l0,0l-0.5,0.1l0,0c-1.7,0.5-2.3,2-2.1,3.4
		c0,0.1,0,0.3,0.1,0.4l2.7,11.4l-1.6,0.4l-1.9-8.2c-1.5,1.3-3.4,4-2.4,8.1l1,4.2l-1.3,0.3l-1.2-4.9c-1.4,1.2-4,4-3,8.5l6.6,28
		l-6.1,1.5c-1.9,0.5-3.1,2.4-2.7,4.4c0.4,1.7,1.9,2.8,3.5,2.8c0.3,0,0.6,0,0.9-0.1l6-1.5L-327.6,296.8z"/>
	<polygon points="-358.6,306.6 -354,326.1 -335,325.8 -340.7,302.1 	"/>
</g>
<g>
	<path d="M-312.5,296.8l1.7-7l13.6,3.4l1.4-5.9c0,0-6.1-9.1-5-13.5l1-4.3l3.9-16.6c1-4.4,7.3-3.1,6.2,1.5l-2.9,12.1
		c-0.2,0.7,1.6,1.1,1.7,0.4l4.3-18.5c0-0.1,0.1-0.3,0.1-0.4c0.4-1.4,1.6-2.5,3.4-2.1l0,0l0.5,0.1l0,0c1.7,0.5,2.3,2,2.1,3.4
		c0,0.1,0,0.3-0.1,0.4l-2.7,11.4l1.6,0.4l1.9-8.2c1.5,1.3,3.4,4,2.4,8.1l-1,4.2l1.3,0.3l1.2-4.9c1.4,1.2,4,4,3,8.5l-6.6,28l6.1,1.5
		c1.9,0.5,3.1,2.4,2.7,4.4c-0.4,1.7-1.9,2.8-3.5,2.8c-0.3,0-0.6,0-0.9-0.1l-6-1.5L-312.5,296.8z"/>
	<polygon points="-281.5,306.6 -286.1,326.1 -305.1,325.8 -299.4,302.1 	"/>
</g>
<polygon points="-326.4,287.7 -333.4,280.8 -331.8,279.1 -324.8,286 "/>
<polygon points="-313.5,308.5 -318.4,300.7 -316.2,299.2 -311.2,307.1 "/>
<polygon points="-326.4,308.5 -328.7,307.1 -323.7,299.2 -321.4,300.7 "/>
<polygon points="-315.3,288.1 -317.1,286.3 -309.6,279.1 -307.9,280.9 "/>
<polygon points="-319.2,282.8 -321.9,282.8 -321.9,274.5 -319.2,274.5 "/>
</svg>
