<?xml version="1.0" encoding="utf-8"?>
<!-- Generator: Adobe Illustrator 19.1.0, SVG Export Plug-In . SVG Version: 6.00 Build 0)  -->
<svg version="1.1"
	 id="Calque_1" xmlns:rdf="http://www.w3.org/1999/02/22-rdf-syntax-ns#" xmlns:svg="http://www.w3.org/2000/svg" xmlns:cc="http://creativecommons.org/ns#" xmlns:dc="http://purl.org/dc/elements/1.1/"
	 xmlns="http://www.w3.org/2000/svg" xmlns:xlink="http://www.w3.org/1999/xlink" x="0px" y="0px" viewBox="-370 235.3 100 125"
	 style="enable-background:new -370 235.3 100 125;" xml:space="preserve">
<path d="M-317.9,248.1c-0.6,0-1.1,0.2-1.5,0.7s-0.7,1-0.7,1.6c0,0.6,0.2,1.2,0.6,1.6c0.9,0.9,1.9,1.8,3,2.7l-19.4,33.7
	c-0.2,0.3-0.2,0.6-0.1,1l3,9.9c-3.3,5.7-5.9,10.1-7.3,12.6c-0.6,1.1-1.1,1.9-1.5,2.6l3.2,1.8c0.4-0.7,0.8-1.4,1.5-2.6
	c1.4-2.4,3.9-6.8,7.2-12.5l10.2-2.4c0.3-0.1,0.6-0.3,0.8-0.6l2.6-4.6l8.4-14.6c0,0,0,0,0,0l8.3-14.4c1.3,0.5,2.5,0.8,3.8,1.2
	c0.5,0.1,1.1,0.1,1.6-0.1c0.5-0.2,0.9-0.7,1.1-1.2c0.2-0.5,0.3-1.1,0.1-1.6c-0.2-0.5-0.5-1-1-1.2c-0.2-0.1-0.3-0.2-0.5-0.2
	c-7.7-2.1-16.2-7-21.9-12.7C-316.7,248.3-317.3,248.1-317.9,248.1z M-341.5,250.9l-23.5,13.6c4.5,17.4,19.4,24.5,28.6,30.5
	c-0.6-2.2-1.8-4.4-1.7-6.8c2.8-5.3,5.8-10.5,8.8-15.8C-332.9,265.3-337,257.5-341.5,250.9z M-314.5,256.2c3.9,2.9,8.2,5.5,12.7,7.3
	l-7.5,13.1l-12.7-7.3L-314.5,256.2z M-323.3,271.4l12.8,7.3l-7.2,12.5l-2.9-1.7c-0.4,0.7-0.8,1.4-1.2,2.2l2.9,1.7l-1.8,3l-7.4,1.8
	c2-3.5,3.8-6.5,6.7-11.4c0.3-0.4,0.3-0.9,0.2-1.4c-0.1-0.5-0.4-0.9-0.9-1.2c-0.4-0.2-0.9-0.3-1.4-0.2s-0.9,0.5-1.1,0.9
	c-2.9,4.8-4.7,7.9-6.7,11.4l-2.2-7.2l1.8-3.1l2.9,1.7c0.4-0.7,0.8-1.4,1.2-2.1l-2.9-1.7L-323.3,271.4z M-314.8,295.2
	c-0.9,1.7-1.7,3.6-3.2,5c-3.1,1.3-6.4,1.8-9.7,2.6c4.3,4.5,5.6,7.2,7.1,14.3c1.1,5.1,8.1,7.5,11.2,2.9c6.1-8.6,15.5-12.2,26.6-15
	c3.3-0.8,3.8-2.4,6.1-4.8c3.8-4.1,0.4-6.5-5.2-2.8c-3.1,2-12.2,0.9-20.6,0.9c-5.6,0-8.3-0.2-10.6-1.7
	C-313.6,296.2-314.2,295.7-314.8,295.2z M-342.7,316.3c-0.5-0.1-1,0.1-1.2,0.6l-1.2,2.2c-0.3,0.6-0.1,1.3,0.5,1.7l2.1,1.2
	c0.6,0.3,1.3,0.1,1.7-0.5l1.2-2.1c0.3-0.6,0.1-1.3-0.4-1.7l-2.2-1.2C-342.4,316.4-342.5,316.3-342.7,316.3z"/>
</svg>
