<?xml version="1.0" encoding="utf-8"?>
<!-- Generator: Adobe Illustrator 19.1.0, SVG Export Plug-In . SVG Version: 6.00 Build 0)  -->
<svg version="1.1" id="Calque_1" xmlns="http://www.w3.org/2000/svg" xmlns:xlink="http://www.w3.org/1999/xlink" x="0px" y="0px"
	 viewBox="-395 272.9 50.4 50.4" style="enable-background:new -395 272.9 50.4 50.4;" xml:space="preserve">
<g id="Layer_2">
	<path d="M-375.2,306.3c0-0.4-0.6-6.5-0.9-12.3c-1.3,5.4-2.6,12.3-2.6,12.3c0,1.3,1.1,2.6,2.4,2.6l2.3,0
		C-374.7,308.3-375.2,307.3-375.2,306.3z"/>
</g>
<g id="Layer_1">
	<path d="M-376.8,279.6c-2.2,0-4-1.8-4-4c0-2.2,1.8-4,4-4c2.2,0,4,1.8,4,4C-372.8,277.9-374.6,279.6-376.8,279.6z"/>
</g>
<g id="Layer_3">
	<g>
		<path d="M-356.8,296.4l-0.9-1.3l-3.6,2.5l0.9,1.3c0.4,0.6,1.1,0.9,1.8,0.9c0.4,0,0.9-0.1,1.2-0.4
			C-356.3,298.7-356.1,297.4-356.8,296.4z"/>
		<path d="M-360.2,304.5h-8.6c0,0,2-7.9,2.6-14.2l2.3,3.3h5.3l-9-13c-0.1-0.2-0.3-0.3-0.4-0.4c-0.9-1-2.6-2-5.2-0.5
			c0,0-1.9,0.7-1.9,4.9c-0.4,3.6,1.2,21.7,1.2,21.7c0,1.3,1.1,2.6,2.4,2.6l11.6,0c1.3,0,2.4-0.8,2.4-2.1
			C-357.7,305.3-358.9,304.5-360.2,304.5z"/>
		<polygon points="-363.2,294.8 -361.9,296.7 -359.2,294.8 		"/>
	</g>
</g>
</svg>
