<?xml version="1.0" encoding="utf-8"?>
<!-- Generator: Adobe Illustrator 19.1.0, SVG Export Plug-In . SVG Version: 6.00 Build 0)  -->
<svg version="1.1" id="Calque_1" xmlns="http://www.w3.org/2000/svg" xmlns:xlink="http://www.w3.org/1999/xlink" x="0px" y="0px"
	 viewBox="-370 235.3 100 125" style="enable-background:new -370 235.3 100 125;" xml:space="preserve">
<style type="text/css">
	.st0{display:none;}
	.st1{display:inline;}
</style>
<g class="st0">
	<circle class="st1" cx="-340.8" cy="256" r="6.2"/>
	<circle class="st1" cx="-358.1" cy="279.1" r="6.2"/>
	
		<rect x="-352.1" y="281.4" transform="matrix(0.7071 0.7071 -0.7071 0.7071 98.9764 330.0863)" class="st1" width="6.2" height="6.2"/>
	
		<rect x="-356.5" y="285.8" transform="matrix(0.7071 0.7071 -0.7071 0.7071 100.7938 334.4856)" class="st1" width="6.2" height="6.2"/>
	
		<rect x="-360.9" y="290.2" transform="matrix(0.7071 0.7071 -0.7071 0.7071 102.6213 338.8765)" class="st1" width="6.2" height="6.2"/>
	
		<rect x="-352.1" y="290.2" transform="matrix(0.707 0.7072 -0.7072 0.707 105.1863 332.7263)" class="st1" width="6.2" height="6.2"/>
	
		<rect x="-356.5" y="294.6" transform="matrix(0.7071 0.7071 -0.7071 0.7071 107.0117 337.0592)" class="st1" width="6.2" height="6.2"/>
	
		<rect x="-347.8" y="294.5" transform="matrix(0.7072 0.707 -0.707 0.7072 109.4724 330.8268)" class="st1" width="6.2" height="6.2"/>
	
		<rect x="-343.4" y="290" transform="matrix(0.7072 0.707 -0.707 0.7072 107.6085 326.4138)" class="st1" width="6.2" height="6.2"/>
	
		<rect x="-339" y="294.4" transform="matrix(0.7069 0.7073 -0.7073 0.7069 111.9921 324.7815)" class="st1" width="6.2" height="6.2"/>
	
		<rect x="-334.6" y="298.8" transform="matrix(0.7072 0.707 -0.707 0.7072 116.3978 322.7719)" class="st1" width="6.2" height="6.2"/>
	
		<rect x="-330.2" y="303.2" transform="matrix(0.7069 0.7073 -0.7073 0.7069 120.7846 321.1417)" class="st1" width="6.2" height="6.2"/>
	
		<rect x="-352.2" y="298.9" transform="matrix(0.7072 0.707 -0.707 0.7072 111.2929 335.221)" class="st1" width="6.2" height="6.2"/>
	
		<rect x="-347.8" y="303.2" transform="matrix(0.7071 0.7071 -0.7071 0.7071 115.6506 333.4803)" class="st1" width="6.2" height="6.2"/>
	
		<rect x="-343.5" y="307.6" transform="matrix(0.7071 0.7071 -0.7071 0.7071 120.0137 331.6776)" class="st1" width="6.2" height="6.2"/>
	
		<rect x="-347.8" y="312" transform="matrix(0.7069 0.7073 -0.7073 0.7069 121.8147 336.166)" class="st1" width="6.2" height="6.2"/>
	
		<rect x="-365.3" y="294.6" transform="matrix(0.7069 0.7073 -0.7073 0.7069 104.4259 343.4066)" class="st1" width="6.2" height="6.2"/>
	
		<rect x="-347.7" y="277" transform="matrix(0.7071 0.7071 -0.7071 0.7071 97.1524 325.6934)" class="st1" width="6.2" height="6.2"/>
	
		<rect x="-343.3" y="272.6" transform="matrix(0.7071 0.7071 -0.7071 0.7071 95.3459 321.3239)" class="st1" width="6.2" height="6.2"/>
</g>
<g>
	<path d="M-346.9,235.3c4.5,0,8.2,3.6,8.2,8.2c0,4.5-3.7,8.1-8.2,8.1c-4.5,0-8.2-3.6-8.2-8.1C-355.1,238.9-351.4,235.3-346.9,235.3z
		"/>
	<path d="M-293.3,235.3c4.5,0,8.2,3.6,8.2,8.2c0,4.5-3.7,8.1-8.2,8.1c-4.5,0-8.1-3.6-8.1-8.1C-301.4,238.9-297.8,235.3-293.3,235.3z
		"/>
	<path d="M-274.6,263.9v25c0,4.9-6.4,4.9-6.4,0v-24.4h-2l0,66.1c0,2.5-2.1,4.6-4.6,4.6c-2.5,0-4.6-2.1-4.6-4.6l0-38.4h-2v38.4
		c0,2.5-2,4.6-4.6,4.6c-2.5,0-4.6-2.1-4.6-4.6l0-66.1l-3,0l-10.7,22.9c-0.1,0.2-0.1,0.3-0.2,0.4c0,0.1-0.1,0.1-0.1,0.2
		c-0.1,0.2-0.3,0.4-0.5,0.6c-0.1,0-0.1,0.1-0.2,0.1c-0.1,0.1-0.2,0.1-0.3,0.2c-0.2,0.1-0.4,0.2-0.7,0.3c-0.1,0-0.2,0-0.2,0.1
		c-0.1,0-0.2,0-0.2,0c-0.2,0-0.3,0.1-0.5,0.1c-0.2,0-0.4,0-0.5-0.1c-0.1,0-0.2,0-0.2,0c-0.1,0-0.2,0-0.2-0.1c-0.1,0-0.2-0.1-0.3-0.1
		s-0.2-0.1-0.3-0.2c-0.1-0.1-0.2-0.1-0.3-0.2c-0.1,0-0.1-0.1-0.2-0.1c-0.2-0.2-0.4-0.4-0.5-0.6c0-0.1-0.1-0.1-0.1-0.2
		c0-0.1-0.1-0.1-0.1-0.2l-0.1-0.2l-10.7-22.9l-3,0l0,66.1c0,2.5-2,4.6-4.6,4.6c-2.5,0-4.6-2.1-4.6-4.6l0-38.4h-2l0,38.4
		c0,2.5-2,4.6-4.6,4.6c-2.5,0-4.6-2.1-4.6-4.6l0-66.1h-2v24.4c0,4.9-6.4,4.9-6.4,0v-25c0-5.9,3.6-10.6,9.4-10.6h18.3
		c0.9,0,1.7,0.1,2.5,0.3c2.5,0.6,4.4,2.2,5.5,4.3l0.7,1.4l9.1,19.5l9.1-19.5l0.7-1.4c1.2-2.1,3-3.7,5.5-4.3c0.8-0.2,1.6-0.3,2.5-0.3
		h18.3C-278.2,253.3-274.6,258-274.6,263.9z"/>
	<path d="M-329.1,259.4l-0.7-1.4C-329.5,258.4-329.3,258.9-329.1,259.4z"/>
</g>
</svg>
