<?xml version="1.0" encoding="utf-8"?>
<!-- Generator: Adobe Illustrator 19.1.0, SVG Export Plug-In . SVG Version: 6.00 Build 0)  -->
<svg version="1.1" id="Calque_1" xmlns="http://www.w3.org/2000/svg" xmlns:xlink="http://www.w3.org/1999/xlink" x="0px" y="0px"
	 viewBox="-370 235.3 100 125" style="enable-background:new -370 235.3 100 125;" xml:space="preserve">
<g>
	<path d="M-294.2,292.5c-0.4,0-0.4,0-55.2,0c-8.6-0.2-15.5-7.2-15.5-15.6c0-8.6,7.1-15.7,15.8-15.7c0.9,0,1.8,0.1,2.7,0.2
		c3-10.2,12.5-17.4,23.5-17.4c8.9,0,17,4.7,21.3,12.3c2.3-1,4.9-1.5,7.4-1.5c10.5,0,19.1,8.5,19.1,18.9
		C-275.1,284.1-283.7,292.5-294.2,292.5z M-349.1,265.9c-6.1,0-11.1,4.9-11.1,11c0,5.9,4.9,10.8,10.9,11c54.8,0,54.8,0,55.1,0
		c7.9,0,14.4-6.4,14.4-14.2c0-7.8-6.5-14.2-14.4-14.2c-2.6,0-5.1,0.7-7.3,2c-0.6,0.3-1.3,0.4-1.9,0.2c-0.6-0.2-1.1-0.7-1.4-1.3
		c-3.2-7.1-10.3-11.7-18.1-11.7c-9.6,0-17.8,6.7-19.5,16c-0.1,0.7-0.5,1.2-1.1,1.6c-0.6,0.3-1.3,0.4-1.9,0.2
		C-346.6,266.1-347.8,265.9-349.1,265.9z M-304.6,314.2l4.1-9.8c0.3-0.7,0.2-1.6-0.2-2.2c-0.5-0.7-1.2-1-2-1l-5.5,0.2l0.3-0.6
		c0.5-1.2-0.1-2.6-1.3-3.1c-1.2-0.5-2.6,0.1-3.1,1.3l-1.7,4c-0.3,0.7-0.2,1.6,0.2,2.2c0.5,0.7,1.2,1,2,1l5.5-0.2l-2.7,6.4
		c-0.5,1.2,0.1,2.6,1.3,3.1c0.3,0.1,0.6,0.2,0.9,0.2C-305.8,315.6-304.9,315.1-304.6,314.2z M-329.8,325.1l7.2-17.5
		c0.3-0.7,0.2-1.6-0.2-2.2c-0.5-0.7-1.2-1-2-1l-10.4,0.4l2.2-5.2c0.5-1.2-0.1-2.6-1.3-3.1c-1.2-0.5-2.6,0.1-3.1,1.3l-3.6,8.6
		c-0.3,0.7-0.2,1.6,0.2,2.2c0.5,0.7,1.2,1,2,1l10.4-0.4l-5.8,14.1c-0.5,1.2,0.1,2.6,1.3,3.1c0.3,0.1,0.6,0.2,0.9,0.2
		C-331,326.5-330.2,326-329.8,325.1z"/>
</g>
</svg>
