<?xml version="1.0" encoding="utf-8"?>
<!-- Generator: Adobe Illustrator 19.1.0, SVG Export Plug-In . SVG Version: 6.00 Build 0)  -->
<svg version="1.1" id="Layer_1" xmlns="http://www.w3.org/2000/svg" xmlns:xlink="http://www.w3.org/1999/xlink" x="0px" y="0px"
	 viewBox="-385 248.3 70 100" style="enable-background:new -385 248.3 70 100;" xml:space="preserve">
<style type="text/css">
	.st0{fill:#010101;}
</style>
<g id="Layer_1_1_">
	<path class="st0" d="M-349.4,245.7c5.8,0,10.6,4.7,10.6,10.6c0,5.8-4.7,10.6-10.6,10.6c-5.8,0-10.6-4.7-10.6-10.6
		C-360,250.4-355.2,245.7-349.4,245.7z"/>
</g>
<g id="Layer_2">
	<polygon class="st0" points="-364.1,291.1 -364.1,295.4 -323.1,295.5 -323.1,294.7 	"/>
	<polygon class="st0" points="-366.1,290.9 -375,290.1 -375,295.3 -366.1,295.4 	"/>
	<g>
		<path class="st0" d="M-324.6,303.9c0.8-1.8,1.3-3.8,1.4-5.8l-51.9-0.2c0,0.7,0.1,1.5,0.2,2.2L-324.6,303.9z"/>
		<path class="st0" d="M-374.2,302.7c1.6,4.6,5.3,8.1,10,9.2l0,7.8h30.1l0-7.9c3.4-0.8,6.1-2.8,8-5.5L-374.2,302.7z"/>
	</g>
	<g>
		<polygon class="st0" points="-334,288 -334,288 -334,286.6 -360.9,288.8 -334,291.1 		"/>
		<polygon class="st0" points="-323.2,288 -323.2,285.7 -332,286.4 -332,288 -332,288 -332,291.3 -323.1,292.1 -323.1,288 		"/>
	</g>
	<g>
		<path class="st0" d="M-324.8,277.1c-2.2-4.5-6.7-7.9-12.6-7.9l-23.7,0c-7.1,0-12.6,5.2-13.7,12.1L-324.8,277.1z"/>
		<path class="st0" d="M-375,283.9v3.6l8.9,0.8V288h0v-3.3h2v0h0v1.7l40.9-3.3c-0.1-1.2-0.3-2.4-0.6-3.5L-375,283.9z"/>
	</g>
</g>
</svg>
