<?xml version="1.0" encoding="utf-8"?>
<!-- Generator: Adobe Illustrator 19.1.0, SVG Export Plug-In . SVG Version: 6.00 Build 0)  -->
<svg version="1.1" id="Calque_1" xmlns="http://www.w3.org/2000/svg" xmlns:xlink="http://www.w3.org/1999/xlink" x="0px" y="0px"
	 viewBox="-370 235.3 100 125" style="enable-background:new -370 235.3 100 125;" xml:space="preserve">
<g>
	<path d="M-294.1,294.8c-0.4,0-0.4,0-55.3,0c-8.6-0.2-15.5-7.2-15.5-15.7c0-8.6,7.1-15.7,15.8-15.7c0.9,0,1.8,0.1,2.7,0.2
		c3-10.2,12.6-17.4,23.6-17.4c8.9,0,17,4.7,21.3,12.3c2.3-1,4.9-1.5,7.4-1.5c10.5,0,19.1,8.5,19.1,18.9
		C-275,286.3-283.6,294.8-294.1,294.8z M-349.1,268.1c-6.1,0-11.2,4.9-11.2,11c0,5.9,4.9,10.9,10.9,11c54.9,0,54.9,0,55.2,0
		c7.9,0,14.4-6.4,14.4-14.2c0-7.8-6.5-14.2-14.4-14.2c-2.6,0-5.1,0.7-7.3,2c-0.6,0.3-1.3,0.4-1.9,0.2c-0.6-0.2-1.1-0.7-1.4-1.3
		c-3.2-7.1-10.3-11.7-18.2-11.7c-9.6,0-17.8,6.7-19.5,16c-0.1,0.7-0.5,1.2-1.1,1.6c-0.6,0.3-1.3,0.4-1.9,0.2
		C-346.7,268.3-347.9,268.1-349.1,268.1z M-353.4,306.3l2.2-5.4c0.5-1.2-0.1-2.6-1.3-3.1c-1.2-0.5-2.6,0.1-3.1,1.3l-2.2,5.4
		c-0.5,1.2,0.1,2.6,1.3,3.1c0.3,0.1,0.6,0.2,0.9,0.2C-354.7,307.8-353.8,307.2-353.4,306.3z M-342.9,311.7l4.5-10.8
		c0.5-1.2-0.1-2.6-1.3-3.1c-1.2-0.5-2.6,0.1-3.1,1.3l-4.5,10.8c-0.5,1.2,0.1,2.6,1.3,3.1c0.3,0.1,0.6,0.2,0.9,0.2
		C-344.1,313.2-343.2,312.6-342.9,311.7z M-321.9,322.9l9.1-22c0.5-1.2-0.1-2.6-1.3-3.1c-1.2-0.5-2.6,0.1-3.1,1.3l-9.1,22
		c-0.5,1.2,0.1,2.6,1.3,3.1c0.3,0.1,0.6,0.2,0.9,0.2C-323.2,324.3-322.3,323.8-321.9,322.9z M-291.8,311.7l4.5-10.8
		c0.5-1.2-0.1-2.6-1.3-3.1c-1.2-0.5-2.6,0.1-3.1,1.3l-4.5,10.8c-0.5,1.2,0.1,2.6,1.3,3.1c0.3,0.1,0.6,0.2,0.9,0.2
		C-293,313.2-292.1,312.6-291.8,311.7z M-327.9,306.3l2.2-5.4c0.5-1.2-0.1-2.6-1.3-3.1c-1.2-0.5-2.6,0.1-3.1,1.3l-2.2,5.4
		c-0.5,1.2,0.1,2.6,1.3,3.1c0.3,0.1,0.6,0.2,0.9,0.2C-329.1,307.8-328.2,307.2-327.9,306.3z M-302.3,306.3l2.2-5.4
		c0.5-1.2-0.1-2.6-1.3-3.1c-1.2-0.5-2.6,0.1-3.1,1.3l-2.2,5.4c-0.5,1.2,0.1,2.6,1.3,3.1c0.3,0.1,0.6,0.2,0.9,0.2
		C-303.5,307.8-302.7,307.2-302.3,306.3z"/>
</g>
</svg>
