<svg xmlns="http://www.w3.org/2000/svg" xmlns:xlink="http://www.w3.org/1999/xlink" version="1.1" id="Layer_1" x="0px" y="0px" width="100px" height="100px" viewBox="0 0 100 100" enable-background="new 0 0 100 100" xml:space="preserve">
<path d="M94.971,35.386c0-1.49-1.207-2.697-2.698-2.697h-3.597c-1.491,0-2.698,1.207-2.698,2.697c0,1.17,0.748,2.155,1.788,2.53  c-0.222,17.377-15.633,31.589-35.063,32.805V63.25c14.96-1.18,26.745-12.055,26.97-25.327c1.051-0.369,1.809-1.359,1.809-2.537  c0-1.49-1.207-2.697-2.698-2.697h-3.597c-1.49,0-2.698,1.207-2.698,2.697c0,1.17,0.748,2.155,1.788,2.53  c-0.224,10.325-9.596,18.802-21.573,19.921v-6.252c7.502-1.115,13.259-6.782,13.47-13.66c1.057-0.366,1.818-1.358,1.818-2.539  c0-1.49-1.207-2.697-2.697-2.697h-3.598c-1.49,0-2.698,1.207-2.698,2.697c0,1.167,0.744,2.15,1.779,2.527  c-0.203,3.955-3.57,7.241-8.074,8.199v-8.193c1.046-0.371,1.798-1.359,1.798-2.533c0-1.49-1.207-2.697-2.697-2.697h-3.598  c-1.49,0-2.698,1.207-2.698,2.697c0,1.174,0.753,2.162,1.799,2.533v8.193c-4.505-0.958-7.872-4.244-8.075-8.199  c1.036-0.377,1.779-1.36,1.779-2.527c0-1.49-1.207-2.697-2.697-2.697h-3.598c-1.49,0-2.698,1.207-2.698,2.697  c0,1.181,0.763,2.173,1.819,2.539c0.211,6.878,5.968,12.545,13.47,13.66v6.252c-11.978-1.119-21.35-9.596-21.574-19.921  c1.04-0.375,1.789-1.36,1.789-2.53c0-1.49-1.208-2.697-2.698-2.697h-3.598c-1.49,0-2.698,1.207-2.698,2.697  c0,1.178,0.758,2.168,1.81,2.537c0.224,13.272,12.01,24.147,26.97,25.327v7.471c-19.431-1.216-34.843-15.428-35.063-32.805  c1.039-0.375,1.788-1.36,1.788-2.53c0-1.49-1.208-2.697-2.698-2.697H7.734c-1.49,0-2.698,1.207-2.698,2.697  c0,1.178,0.758,2.168,1.81,2.537c0.223,20.335,18.051,36.96,40.46,38.204v5.351c0,1.436-1.064,5.376-5.925,6.349  c-1.37,0.273-2.256,0.361-2.904,0.427c-2.258,0.226-3.762,0.995-3.762,4.017v2.698h30.578V92.27c0-3.021-1.504-3.791-3.762-4.017  c-0.648-0.065-1.535-0.153-2.904-0.427c-4.86-0.973-5.925-4.913-5.925-6.349v-5.351c22.408-1.244,40.236-17.869,40.46-38.204  C94.213,37.554,94.971,36.563,94.971,35.386z"/>
<rect x="7.734" y="17.624" width="3.598" height="15.289"/>
<rect x="21.225" y="17.624" width="3.598" height="15.289"/>
<rect x="34.715" y="17.624" width="3.598" height="15.289"/>
<rect x="61.695" y="17.624" width="3.598" height="15.289"/>
<rect x="48.205" y="17.624" width="3.598" height="15.289"/>
<rect x="75.186" y="17.624" width="3.597" height="15.289"/>
<rect x="88.676" y="17.624" width="3.597" height="15.289"/>
<path d="M9.55,18.523c-2.573,0-4.514-1.872-4.514-4.355c0-5.885,5.856-8.819,6.106-8.94c0.55-0.272,1.207-0.241,1.733,0.083  c0.525,0.323,0.849,0.895,0.855,1.511c0,0.034,0.045,3.464,0.41,5.791c0.341,2.167-0.377,3.544-1.039,4.319  C12.237,17.943,10.942,18.523,9.55,18.523z M10.285,10.348c-0.876,0.948-1.651,2.236-1.651,3.82c0,0.704,0.702,0.758,0.916,0.758  c0.161,0,0.562-0.032,0.818-0.332c0.242-0.282,0.319-0.787,0.22-1.423C10.449,12.286,10.352,11.286,10.285,10.348z"/>
<path d="M22.842,18.523c-2.573,0-4.514-1.872-4.514-4.355c0-5.885,5.856-8.819,6.105-8.94c0.552-0.272,1.209-0.241,1.734,0.083  c0.524,0.323,0.848,0.895,0.855,1.511c0,0.034,0.044,3.464,0.41,5.791c0.34,2.167-0.377,3.544-1.039,4.319  C25.529,17.943,24.234,18.523,22.842,18.523z M23.576,10.348c-0.875,0.948-1.65,2.236-1.65,3.82c0,0.704,0.701,0.758,0.916,0.758  c0.16,0,0.562-0.032,0.818-0.332c0.241-0.282,0.318-0.787,0.22-1.423C23.741,12.286,23.644,11.286,23.576,10.348z"/>
<path d="M36.332,18.523c-2.573,0-4.514-1.872-4.514-4.355c0-5.885,5.856-8.819,6.105-8.94c0.552-0.272,1.209-0.241,1.733,0.083  c0.525,0.323,0.849,0.895,0.855,1.511c0,0.034,0.045,3.464,0.41,5.791c0.341,2.167-0.376,3.544-1.038,4.319  C39.02,17.943,37.725,18.523,36.332,18.523z M37.066,10.348c-0.875,0.948-1.65,2.236-1.65,3.82c0,0.704,0.701,0.758,0.916,0.758  c0.16,0,0.562-0.032,0.818-0.332c0.241-0.282,0.318-0.787,0.22-1.423C37.231,12.286,37.134,11.286,37.066,10.348z"/>
<path d="M50.021,18.523c-2.573,0-4.514-1.872-4.514-4.355c0-5.885,5.856-8.819,6.105-8.94c0.552-0.272,1.208-0.241,1.734,0.083  c0.524,0.323,0.848,0.895,0.855,1.511c0,0.034,0.044,3.464,0.41,5.791c0.341,2.167-0.377,3.544-1.039,4.319  C52.708,17.943,51.413,18.523,50.021,18.523z M50.756,10.348c-0.876,0.948-1.651,2.236-1.651,3.82c0,0.704,0.701,0.758,0.916,0.758  c0.16,0,0.562-0.032,0.818-0.332c0.241-0.282,0.319-0.787,0.22-1.423C50.92,12.286,50.822,11.286,50.756,10.348z"/>
<path d="M63.377,18.523c-2.573,0-4.514-1.872-4.514-4.355c0-5.885,5.856-8.819,6.106-8.94c0.551-0.272,1.206-0.241,1.733,0.083  c0.525,0.323,0.849,0.895,0.855,1.511c0,0.034,0.045,3.464,0.41,5.791c0.341,2.167-0.377,3.544-1.039,4.319  C66.064,17.943,64.77,18.523,63.377,18.523z M64.112,10.348c-0.876,0.948-1.651,2.236-1.651,3.82c0,0.704,0.702,0.758,0.916,0.758  c0.161,0,0.562-0.032,0.818-0.332c0.242-0.282,0.319-0.787,0.22-1.423C64.276,12.286,64.179,11.286,64.112,10.348z"/>
<path d="M76.867,18.523c-2.573,0-4.514-1.872-4.514-4.355c0-5.885,5.856-8.819,6.106-8.94c0.551-0.272,1.207-0.241,1.733,0.083  c0.525,0.323,0.849,0.895,0.855,1.511c0,0.034,0.045,3.464,0.41,5.791c0.341,2.167-0.377,3.544-1.039,4.319  C79.555,17.943,78.26,18.523,76.867,18.523z M77.603,10.348c-0.876,0.948-1.651,2.236-1.651,3.82c0,0.704,0.702,0.758,0.916,0.758  c0.161,0,0.562-0.032,0.818-0.332c0.242-0.282,0.319-0.787,0.22-1.423C77.767,12.286,77.669,11.286,77.603,10.348z"/>
<path d="M90.357,18.523c-2.573,0-4.514-1.872-4.514-4.355c0-5.885,5.856-8.819,6.105-8.94c0.552-0.272,1.208-0.241,1.734,0.083  c0.525,0.323,0.848,0.895,0.855,1.511c0,0.034,0.045,3.464,0.41,5.791c0.341,2.167-0.377,3.544-1.039,4.319  C93.045,17.943,91.75,18.523,90.357,18.523z M91.093,10.348c-0.876,0.948-1.651,2.236-1.651,3.82c0,0.704,0.701,0.758,0.916,0.758  c0.16,0,0.562-0.032,0.818-0.332c0.241-0.282,0.319-0.787,0.22-1.423C91.257,12.286,91.159,11.286,91.093,10.348z"/>
</svg>