<?xml version="1.0" encoding="utf-8"?>
<!-- Generator: Adobe Illustrator 19.1.0, SVG Export Plug-In . SVG Version: 6.00 Build 0)  -->
<svg version="1.1" id="Calque_1" xmlns="http://www.w3.org/2000/svg" xmlns:xlink="http://www.w3.org/1999/xlink" x="0px" y="0px"
	 viewBox="-383 251.5 75 93.8" style="enable-background:new -383 251.5 75 93.8;" xml:space="preserve">
<style type="text/css">
	.st0{fill:#010101;}
</style>
<g>
	<path class="st0" d="M-319.8,318.6c0-0.4-0.1-1-0.1-1l-4.9-38.9c0,0,9.8-9.1,12.3-12.8c1.3-2,3.4-7.8,1.7-9.6
		c-1.8-1.7-7.6,0.4-9.6,1.7c-3.7,2.5-15,12-15,12l-36.8-4.7c0,0-0.6-0.1-1-0.1c-0.7,0-2.1,1.5-2.1,1.5l-3.7,4.5l33.7,9.6l-15.1,19.4
		l-13.1,0.3l-4.9,1.7l13.7,7.8l7.8,13.7l1.7-4.9l0.3-13.1l19.4-15.1l9.6,33.7l4.5-3.7C-321.3,320.7-319.8,319.3-319.8,318.6z"/>
</g>
</svg>
