<?xml version="1.0" encoding="utf-8"?>
<!-- Generator: Adobe Illustrator 19.1.0, SVG Export Plug-In . SVG Version: 6.00 Build 0)  -->
<svg version="1.1" id="Your_Icon" xmlns="http://www.w3.org/2000/svg" xmlns:xlink="http://www.w3.org/1999/xlink" x="0px" y="0px"
	 viewBox="-370 248.3 100 100" style="enable-background:new -370 248.3 100 100;" xml:space="preserve">
<g>
	<g>
		<path d="M-301.5,314.2h-39v-63h39c2.5,0,4.7,2,4.7,4.4v54.1C-296.9,312.2-299,314.2-301.5,314.2z M-339.1,312.7h37.6
			c1.7,0,3.2-1.4,3.2-3v-54.1c0-1.6-1.5-3-3.2-3h-37.6V312.7z"/>
	</g>
	<g>
		<rect x="-334.3" y="261.2" width="29.6" height="1.5"/>
	</g>
	<g>
		<rect x="-331.3" y="303" width="23.7" height="3"/>
	</g>
	<g>
		<rect x="-330.6" y="264.2" width="23" height="1.5"/>
	</g>
	<g>
		<path d="M-310.5,283.6c1-2.4,0.4-6.1-1-7.7c-0.6,3.1-5.2,5.9-5.2,5.9s0.3-0.9-0.1-0.7c-0.4,0.2-0.9-0.2-0.5-1.2
			c0.4-0.9,1.6-0.1,1.6-0.1l0.3-0.3c0.3-0.4-0.7-0.7-0.4-0.9c0.3-0.2,1.2,0.3,1.2,0.3s0.1,0,0.2-0.6c0.1-0.6-1.2-0.3-0.9-1.2
			c0.2-0.8,0.1-0.7-1-0.8c-1.2-0.1-0.6,0.9-0.6,0.9h-0.1c-0.8,0-1-1.1-0.6-1.9c0.4-0.8-1-0.7-1-0.7l-0.4-1.1h-0.1l-0.4,1.1
			c0,0-1.5,0-1,0.9c0.4,0.8,0.2,1.8-0.6,1.8h-0.1c0,0,0.5-1.1-0.6-0.9c-1.2,0.1-1.3,0-1,0.9s-1,0.5-0.9,1.1c0.1,0.6,0.2,0.6,0.2,0.6
			s0.8-0.5,1.2-0.3c0.3,0.2-0.7,0.5-0.4,0.9l0.3,0.3c0,0,1.2-0.8,1.6,0.1c0.4,0.9-0.1,1.4-0.5,1.2c-0.4-0.2-0.1,0.7-0.1,0.7
			s-4.6-2.7-5.2-5.9c-1.4,1.6-2,5.3-1,7.7c-0.3,0.1-0.6,0.3-0.1,0.8c0.7,0.7,0.9,0.7,1.4,1.8c0.4,1,1.2,2.9,1.4,3.2
			c0,0,0,0.1,0.1,0.1c-0.4,0.3-0.5,0.8,0,1.2c0.2,0.1,0.4,0.2,0.6,0.2c0.2,0.4,0.3,0.7,0.5,0.7c0.2,0.1,0.4-0.4,0.3-0.9
			c0.6-0.2,1.1-0.6,1.4-0.6c0.6,0.1-1,1-0.3,2c0.7,0.9,2.9,0.8,3.6,1.5c0,0.1,0,0.1,0.1,0.1c0,0,0.1,0,0.1-0.1
			c0.7-0.7,2.9-0.6,3.6-1.5c0.7-0.9-0.9-1.9-0.3-2c0.3-0.1,0.9,0.3,1.4,0.6c-0.1,0.5,0.1,1,0.3,0.9c0.1,0,0.3-0.3,0.5-0.7
			c0.2,0,0.4-0.1,0.6-0.2c0.5-0.4,0.4-0.9,0-1.2c0-0.1,0.1-0.1,0.1-0.1c0.2-0.3,0.9-2.2,1.4-3.2c0.4-1,0.6-1,1.4-1.8
			C-309.9,283.9-310.3,283.7-310.5,283.6z M-323.7,287.2c-2.1,1.2,0.7,2.3,0.7,2.3s-1,0.3-1.8-0.1c-0.1,0-0.1-0.1-0.2-0.1
			c-0.6-1.1-1.5-2.9-2.2-4.1c0,0,0,0,0,0c2.5,1.9,4.6,0.7,4.8,0.1C-322.1,284.7-321.6,286.1-323.7,287.2z M-318.5,277.6
			c-0.1,0.6-0.9,2.4-0.9,2.4s0,0.2,0,0.7c0-0.5,0-0.8,0-0.8s-0.8-1.6-0.9-2.3c-0.1-0.6,0.5-0.5,0.7-0.5c0.1,0,0.4,0,0.5,0
			C-319,277.2-318.4,277-318.5,277.6z M-314,289.3c-0.1,0-0.1,0-0.2,0.1c-0.7,0.4-1.8,0.1-1.8,0.1s2.8-1.2,0.7-2.3
			c-2.1-1.2-1.6-2.5-1.4-1.9c0.2,0.6,2.3,1.8,4.8-0.1c0,0,0,0,0,0C-312.4,286.5-313.4,288.2-314,289.3z"/>
	</g>
</g>
</svg>
