<svg xmlns="http://www.w3.org/2000/svg" xmlns:xlink="http://www.w3.org/1999/xlink" xml:space="preserve" width="100px" height="80px" style="shape-rendering:geometricPrecision; text-rendering:geometricPrecision; image-rendering:optimizeQuality; fill-rule:evenodd; clip-rule:evenodd" viewBox="0 0 99.9988 80.394">
 <defs>
  <style type="text/css">
   
    .fil0 {fill:#181818}
   
  </style>
 </defs>
 <g id="Layer_x0020_1">
  <metadata id="CorelCorpID_0Corel-Layer"/>
  <ellipse class="fil0" cx="65.6283" cy="6.54348" rx="6.54323" ry="6.54321"/>
  <path class="fil0" d="M57.8932 76.5295c0,2.02438 1.64407,3.66845 3.66727,3.66845 2.0291,0 3.66963,-1.64407 3.66963,-3.66845l0.00354325 -30.7755 1.63344 0 -0.00944867 30.7755c0,2.02438 1.64171,3.66845 3.66727,3.66845 2.02556,0 3.66727,-1.64407 3.66727,-3.66845l0.0165352 -53.0566 1.60864 0 0 19.5517c0,3.93419 5.13181,3.93419 5.12,0l0 -19.9698c0,-4.34403 -2.5535,-8.60301 -7.63689,-8.60301l-14.6667 -0.0070865c-4.63339,0 -7.53531,3.77829 -7.53531,8.49081l0 20.0902c0,3.90466 5.15897,3.90466 5.15897,0l0 -19.5528 1.64289 0 -0.0070865 53.0566z"/>
  <path class="fil0" d="M44.0249 19.9391c4.2023,0 5.90778,3.46294 6.54439,5.37275l5.16252 16.9722c1.02991,3.65191 -3.61412,5.1637 -4.72079,1.60509l-4.64638 -15.5844 -1.35234 0 8.05381 27.7212 -7.41957 0 0 21.6127c0,3.68498 -5.54283,3.66727 -5.54283,0l0 -21.7544 -2.26059 0 0.00472434 21.7237c0,3.71569 -5.56645,3.71569 -5.56645,0l-0.00118108 -21.5819 -7.44319 0 7.99003 -27.7212 -1.24959 0 -4.64638 15.6399c-1.10668,3.40861 -5.79203,2.00902 -4.71843,-1.64407l5.15897 -16.9899c0.552747,-1.9358 2.24642,-5.37275 6.48769,-5.37275l10.1656 0.00118108z"/>
  <ellipse class="fil0" cx="38.9715" cy="12.6476" rx="6.02254" ry="6.0225"/>
  <path class="fil0" d="M92.5615 42.2757c2.63618,0 3.70624,2.17201 4.10545,3.36963l3.23853 10.6475c0.646053,2.28894 -2.2665,3.23735 -2.96098,1.00628l-2.91491 -9.77583 -0.848018 0 5.0515 17.3891 -4.65347 0 0 13.5553c0,2.31256 -3.47711,2.30075 -3.47711,0l0 -13.6451 -1.4173 0 0.00236217 13.6273c0,2.33028 -3.49246,2.33028 -3.49246,0l0 -13.5376 -4.66882 0 5.01134 -17.3891 -0.783059 0 -2.91491 9.81008c-0.694477,2.13776 -3.63301,1.26022 -2.9598,-1.03109l3.23617 -10.6569c0.346058,-1.21415 1.40903,-3.36963 4.07001,-3.36963l6.37549 0z"/>
  <ellipse class="fil0" cx="89.3922" cy="37.7023" rx="3.77768" ry="3.77767"/>
  <ellipse class="fil0" cx="10.1059" cy="28.9733" rx="4.55063" ry="4.55062"/>
  <path class="fil0" d="M4.72552 77.6468c0,1.40785 1.14447,2.55114 2.55114,2.55114 1.4114,0 2.55232,-1.14329 2.55232,-2.55114l0.00236217 -21.4036 1.1362 0 -0.0070865 21.4036c0,1.40785 1.14211,2.55114 2.55114,2.55114 1.40903,0 2.55114,-1.14329 2.55114,-2.55114l0.0106298 -36.8994 1.11849 0 0 13.5978c0,2.73539 3.56924,2.73539 3.56097,0l0 -13.8884c0,-3.02239 -1.77517,-5.98337 -5.31133,-5.98337l-10.1998 -0.00472434c-3.222,0 -5.24047,2.62673 -5.24047,5.90542l0 13.971c0,2.71649 3.58695,2.71649 3.58695,0l0 -13.5978 1.14329 0 -0.00590542 36.8994z"/>
 </g>
</svg>