<?xml version="1.0" encoding="utf-8"?>
<!-- Generator: Adobe Illustrator 19.1.0, SVG Export Plug-In . SVG Version: 6.00 Build 0)  -->
<svg version="1.1" id="Capa_1" xmlns="http://www.w3.org/2000/svg" xmlns:xlink="http://www.w3.org/1999/xlink" x="0px" y="0px"
	 viewBox="-375 253.3 90 90" style="enable-background:new -375 253.3 90 90;" xml:space="preserve">
<g>
	<polygon points="-325.1,301.1 -323.3,297.9 -351.1,297.9 -345.8,288.6 -347.6,285.3 -356.7,301.1 	"/>
	<polygon points="-317.8,271.9 -321.5,271.9 -306.5,297.9 -317.6,297.9 -319.4,301.1 -300.9,301.1 	"/>
	<polygon points="-313,288.3 -314.8,285 -328.8,309.3 -333.1,301.9 -336.8,301.9 -328.8,315.8 	"/>
	<polygon points="-339.6,297.2 -335.9,297.2 -351.1,270.7 -340.6,270.7 -338.8,267.4 -356.7,267.4 	"/>
	<polygon points="-332.1,267.4 -333.9,270.7 -306.5,270.7 -312,280.2 -310.2,283.5 -300.9,267.4 	"/>
	<polygon points="-344.5,279.9 -342.6,283.1 -328.8,259.2 -324.8,266.2 -321.1,266.2 -328.8,252.8 	"/>
</g>
</svg>
