<?xml version="1.0" encoding="utf-8"?>
<!-- Generator: Adobe Illustrator 19.1.0, SVG Export Plug-In . SVG Version: 6.00 Build 0)  -->
<svg version="1.1" id="Layer_1" xmlns="http://www.w3.org/2000/svg" xmlns:xlink="http://www.w3.org/1999/xlink" x="0px" y="0px"
	 viewBox="-387 248.3 65.2 100" style="enable-background:new -387 248.3 65.2 100;" xml:space="preserve">
<g id="Layer_2">
	<g>
		<path d="M-373.1,257.8v-2.1h4.6c-0.8-0.7-1.3-2-1.3-3.4c0-2.2,1.3-4,2.9-4c1.6,0,3,1.8,3,4c0,1.4-0.5,2.7-1.3,3.4h4.6v2.1h5.8
			c0.7-1.1,1.1-2.2,1.1-3.4c0-4.8-5.9-8.6-13.2-8.6c-7.3,0-13.2,3.9-13.2,8.6c0,1.2,0.4,2.4,1.1,3.4H-373.1z"/>
		<path d="M-379.4,260.6v2.8h3.3c0.1,5,4.1,9,9.1,9c5,0,9-4,9.1-9h2.9v-2.8H-379.4z"/>
	</g>
	<rect x="-380.3" y="314" width="27.2" height="5.9"/>
	<path d="M-353.2,274.3l-21.7,33.7h21.8l0-19.8h2.5V315c0,6.1,8,6.1,8,0v-27.5C-342.6,281.4-346.7,275.4-353.2,274.3z"/>
	<path d="M-360.2,274.1l-18.2,0c-7.2,0-12.5,5.9-12.5,13.2V315c0,6.1,8,6.1,8,0v-26.9h2.6l0,17.2L-360.2,274.1z M-374.8,278.4
		c1.6,0,2.9,1.7,2.9,3.9c0,2.1-1.3,3.9-2.9,3.9c-1.6,0-2.9-1.7-2.9-3.9C-377.7,280.2-376.4,278.4-374.8,278.4z"/>
</g>
</svg>
