<svg xmlns="http://www.w3.org/2000/svg" xmlns:xlink="http://www.w3.org/1999/xlink" version="1.1" x="0px" y="0px" viewBox="0 0 100 100" enable-background="new 0 0 100 100" xml:space="preserve"><g><path d="M43.435,11.342c-0.508,0-1.014-0.213-1.371-0.63l-2.343-2.738c-0.647-0.756-0.559-1.894,0.197-2.541   c0.756-0.648,1.894-0.559,2.541,0.197l2.344,2.738c0.646,0.756,0.558,1.894-0.198,2.542C44.267,11.201,43.85,11.342,43.435,11.342z   "></path><path d="M84.291,59.078c-0.508,0-1.014-0.214-1.37-0.63l-5.107-5.968c-0.646-0.757-0.559-1.895,0.197-2.541   c0.757-0.648,1.895-0.56,2.541,0.197l5.107,5.968c0.646,0.757,0.559,1.894-0.197,2.54C85.122,58.936,84.705,59.078,84.291,59.078z    M74.078,47.144c-0.509,0-1.014-0.214-1.371-0.631L67.6,40.545c-0.646-0.756-0.559-1.894,0.197-2.541   c0.757-0.648,1.894-0.56,2.541,0.197l5.107,5.967c0.646,0.756,0.559,1.894-0.197,2.541C74.908,47.001,74.491,47.144,74.078,47.144z    M63.864,35.21c-0.509,0-1.014-0.213-1.371-0.631l-5.107-5.966c-0.647-0.756-0.559-1.894,0.197-2.541   c0.757-0.647,1.894-0.559,2.541,0.197l5.107,5.967c0.646,0.756,0.559,1.894-0.197,2.541C64.694,35.067,64.277,35.21,63.864,35.21z    M53.648,23.276c-0.508,0-1.014-0.213-1.37-0.63l-5.107-5.967c-0.647-0.756-0.559-1.894,0.197-2.541s1.894-0.559,2.541,0.197   l5.107,5.967c0.646,0.756,0.559,1.894-0.198,2.541C54.479,23.135,54.063,23.276,53.648,23.276z"></path><path d="M91.741,67.782c-0.508,0-1.014-0.214-1.37-0.63l-2.344-2.738c-0.646-0.757-0.559-1.894,0.197-2.541   c0.757-0.646,1.895-0.558,2.541,0.197l2.344,2.738c0.646,0.757,0.559,1.895-0.197,2.541C92.572,67.64,92.156,67.782,91.741,67.782z   "></path></g><path d="M93.089,25.289l-7.646-5.148c-0.825-0.555-1.944-0.337-2.501,0.488c-0.556,0.826-0.338,1.946,0.487,2.502l1.355,0.911  c-27.559-1.082-40.071,19.782-40.198,20.001c-0.501,0.858-0.211,1.959,0.646,2.461c0.286,0.168,0.6,0.247,0.909,0.247  c0.619,0,1.221-0.319,1.557-0.89c0.03-0.052,3.125-5.247,9.561-10.037c7.792-5.8,16.889-8.541,27.066-8.19l-1.265,0.451  c-0.938,0.334-1.427,1.365-1.093,2.303c0.264,0.737,0.957,1.197,1.698,1.197c0.2,0,0.405-0.034,0.605-0.105l8.415-3  c0.641-0.229,1.098-0.798,1.183-1.473C93.955,26.333,93.652,25.668,93.089,25.289z"></path><path d="M39.504,45.966c-1.121-0.25-2.951-0.766-3.811-1.191c-0.177-0.417-0.371-1.432-0.502-2.126  c-0.399-2.103-0.852-4.487-2.539-5.546C31.06,36.1,29.133,36.1,27.727,36.1c-2.299,0-6.288,0.834-7.854,3.133  c-1.243,1.823-3.741,5.737-3.847,5.902c-0.535,0.839-0.289,1.954,0.55,2.489c0.839,0.537,1.952,0.289,2.488-0.55  c0.025-0.04,2.574-4.034,3.786-5.812c0.358-0.526,1.563-1.041,2.895-1.327L22.54,51.384c-0.041,0.146-0.06,0.293-0.063,0.442  c-0.628,1.373-3.076,6.7-5.65,11.973c-0.436,0.894-0.065,1.973,0.829,2.409c0.255,0.125,0.524,0.183,0.789,0.183  c0.667,0,1.309-0.37,1.621-1.012c2.41-4.937,4.708-9.917,5.529-11.707h0.887c1.141,1.886,2.501,4.163,2.961,5.04  c0.157,0.765-0.607,3.594-1.624,5.999c-0.388,0.916,0.041,1.974,0.957,2.361c0.229,0.096,0.468,0.142,0.702,0.142  c0.702,0,1.369-0.411,1.659-1.099c1.041-2.457,2.624-6.893,1.538-8.999c-0.514-0.999-2.091-3.63-3.233-5.517l2.246-8.082  c0.359,1.881,0.703,3.495,1.968,4.25c1.5,0.892,4.48,1.587,5.062,1.716c0.131,0.03,0.264,0.044,0.395,0.044  c0.825,0,1.57-0.571,1.757-1.409C41.087,47.146,40.475,46.184,39.504,45.966z"></path><path d="M18.188,49.497l0.083-0.197c0.591-1.763-0.359-3.68-2.12-4.275c-0.854-0.287-1.768-0.225-2.576,0.175  c-0.75,0.373-1.317,1.002-1.625,1.775l-3.058-1.236l-2.91,7.189l12.546,5.07l2.908-7.19L18.188,49.497z M14.376,46.814  c0.377-0.187,0.803-0.216,1.199-0.081c0.821,0.277,1.264,1.171,1.012,1.931l-0.066,0.159l-2.903-1.173  C13.759,47.285,14.023,46.989,14.376,46.814z"></path><path d="M34.964,31.723c0,2.106-1.591,3.813-3.554,3.813c-1.963,0-3.553-1.708-3.553-3.813c0-2.103,1.591-3.81,3.553-3.81  C33.375,27.914,34.964,29.62,34.964,31.723z"></path><ellipse cx="40.356" cy="63.774" rx="3.21" ry="3.444"></ellipse><path d="M22.987,73.985c0,1.764-1.436,3.194-3.209,3.194c-1.772,0-3.209-1.431-3.209-3.194c0-1.767,1.438-3.195,3.209-3.195  C21.552,70.79,22.987,72.219,22.987,73.985z"></path><path d="M27.796,76.235c-0.766-0.637-1.901-0.532-2.537,0.234c-1.919,2.31-2.174,2.247-4.608,1.65  c-0.452-0.11-0.947-0.232-1.5-0.351c-3.681-0.787-6.671,1.121-9.134,5.831c-0.461,0.882-0.121,1.97,0.762,2.432  c0.267,0.139,0.552,0.205,0.834,0.205c0.649,0,1.277-0.352,1.598-0.966c1.04-1.987,1.983-3.034,2.793-3.567  c-0.624,2.414-1.904,6.688-3.849,9.985c-0.505,0.856-0.221,1.963,0.637,2.467c0.287,0.169,0.602,0.25,0.914,0.25  c0.618,0,1.218-0.316,1.555-0.887c1.038-1.76,1.893-3.726,2.58-5.586c0.696,0.433,1.457,1.027,1.783,1.378  c-0.182,0.586-0.931,1.816-1.689,2.745c-0.628,0.771-0.514,1.906,0.256,2.535c0.335,0.273,0.738,0.407,1.14,0.407  c0.522,0,1.038-0.225,1.395-0.66c1.142-1.395,2.977-4.026,2.441-5.979c-0.28-1.025-1.313-2.011-2.39-2.796l0.605-3.057  c0.037-0.185,0.035-0.365,0.016-0.542c2.256,0.371,4.017-0.043,6.635-3.192C28.667,78.007,28.561,76.871,27.796,76.235z"></path><path d="M50.406,72.699c-0.382-0.918-1.437-1.354-2.356-0.971c-0.92,0.383-1.826,0.666-2.391,0.803  c-0.33-0.448-0.777-1.115-1.083-1.568c-0.534-0.797-0.996-1.483-1.345-1.889c-1.373-1.589-6.695-0.84-7.748-0.407  c-1.915,0.78-5.446,3.107-7.307,5.054c-0.688,0.72-0.662,1.859,0.058,2.549c0.35,0.333,0.797,0.498,1.244,0.498  c0.475,0,0.95-0.187,1.303-0.557c1.126-1.179,3.043-2.532,4.542-3.414l-1.991,8.13c-0.217,0.628-2.172,6.177-4.76,9.942  c-0.564,0.82-0.357,1.941,0.463,2.506c0.312,0.213,0.667,0.316,1.02,0.316c0.574,0,1.137-0.272,1.486-0.781  c2.206-3.208,3.925-7.388,4.73-9.521l0.143,0.018c0.892,1.208,1.796,2.48,2.121,3.063c0.107,0.733-0.413,3.27-1.141,5.53  c-0.304,0.947,0.216,1.963,1.164,2.268c0.184,0.058,0.369,0.088,0.552,0.088c0.762,0,1.469-0.486,1.715-1.251  c0.91-2.824,1.814-6.539,0.96-8.197c-0.424-0.825-1.6-2.468-2.553-3.754l2.295-8.264c0.018,0.026,0.038,0.056,0.056,0.082  c1.164,1.734,1.695,2.48,2.272,2.876c0.45,0.311,1.39,0.952,5.577-0.79C50.353,74.675,50.788,73.62,50.406,72.699z"></path></svg>