<?xml version="1.0" encoding="utf-8"?>
<!-- Generator: Adobe Illustrator 19.1.0, SVG Export Plug-In . SVG Version: 6.00 Build 0)  -->
<svg version="1.1" id="Calque_1" xmlns="http://www.w3.org/2000/svg" xmlns:xlink="http://www.w3.org/1999/xlink" x="0px" y="0px"
	 viewBox="-370 235.3 100 125" style="enable-background:new -370 235.3 100 125;" xml:space="preserve">
<g>
	<path d="M-320,239.3c-25.4,0-46,20.6-46,46c0,25.4,20.6,46,46,46c25.4,0,46-20.6,46-46C-274,259.9-294.6,239.3-320,239.3z
		 M-320,321.3c-19.9,0-36-16.1-36-36c0-19.9,16.1-36,36-36c19.9,0,36,16.1,36,36C-284,305.2-300.1,321.3-320,321.3z"/>
	<circle cx="-333.5" cy="274.1" r="6.7"/>
	<circle cx="-306.5" cy="274.1" r="6.7"/>
	<path d="M-320,288.5c-9.4,0-18,4.4-22.3,11.6c-1.3,2.1-0.6,4.9,1.5,6.2c2.1,1.3,4.9,0.6,6.2-1.5c2.7-4.4,8.5-7.3,14.7-7.3
		c6.2,0,11.9,2.9,14.7,7.3c0.8,1.4,2.3,2.2,3.8,2.2c0.8,0,1.6-0.2,2.3-0.7c2.1-1.3,2.8-4.1,1.5-6.2
		C-302,292.9-310.6,288.5-320,288.5z"/>
</g>
</svg>
