<?xml version="1.0" encoding="utf-8"?>
<!-- Generator: Adobe Illustrator 19.1.0, SVG Export Plug-In . SVG Version: 6.00 Build 0)  -->
<svg version="1.1" id="Calque_1" xmlns="http://www.w3.org/2000/svg" xmlns:xlink="http://www.w3.org/1999/xlink" x="0px" y="0px"
	 viewBox="-370 235.3 100 125" style="enable-background:new -370 235.3 100 125;" xml:space="preserve">
<circle cx="-319" cy="249" r="13.6"/>
<path d="M-304.7,311.3v10.1h-1.7v2c0,0.1-0.1,1.8,1,3c1.1,1.3,3,1.3,3,1.3l1.6,0l0-16.5L-304.7,311.3L-304.7,311.3z"/>
<path d="M-302.8,265.6l-32.4,0c-10.2,0-16.6,8.3-16.6,18.8v44.4c0,8.6,11.4,8.6,11.4,0v-43.2h3.6l0,23.8h3.8v-10.1h4.7v10.1h3.2
	v-10.1h1.7v-7.9c0-0.8,1.5-0.8,1.5,0v7.9h1.5v10.1h3.2v-10.1h4.7v10.1h3.2v-10.1h4.7v10.1h3.9l0-23.8h3.6v42.2h-3.6v1.3v0h3.6
	c0.4,8.3,11.3,8.2,11.3-0.4v-44.1C-285.9,275-291.6,265.6-302.8,265.6z M-329,290.8c0-0.7,0.5-1.2,1.2-1.2c0.7,0,1.2,0.5,1.2,1.2
	c0,0.7-0.5,1.2-1.2,1.2C-328.5,292-329,291.4-329,290.8z M-327,295.6c-0.7,0-1.2-0.5-1.2-1.2c0-0.7,0.5-1.2,1.2-1.2
	c0.7,0,1.2,0.5,1.2,1.2S-326.3,295.6-327,295.6z M-326.3,288.9c-0.7,0-1.2-0.5-1.2-1.2c0-0.7,0.5-1.2,1.2-1.2c0.7,0,1.2,0.5,1.2,1.2
	C-325.1,288.4-325.6,288.9-326.3,288.9z M-323,287.7c-0.7,0-1.2-0.5-1.2-1.2c0-0.7,0.5-1.2,1.2-1.2c0.7,0,1.2,0.5,1.2,1.2
	C-321.8,287.2-322.3,287.7-323,287.7z M-320.7,287.7c0-0.7,0.5-1.2,1.2-1.2c0.7,0,1.2,0.5,1.2,1.2c0,0.7-0.5,1.2-1.2,1.2
	C-320.2,288.9-320.7,288.4-320.7,287.7z M-318.6,295.6c-0.7,0-1.2-0.5-1.2-1.2c0-0.7,0.5-1.2,1.2-1.2c0.7,0,1.2,0.5,1.2,1.2
	S-317.9,295.6-318.6,295.6z M-317.8,292c-0.7,0-1.2-0.5-1.2-1.2s0.5-1.2,1.2-1.2c0.7,0,1.2,0.5,1.2,1.2
	C-316.6,291.4-317.2,292-317.8,292z"/>
<path d="M-300.8,335.2l0-6.1l-1.6,0c-0.1,0-2.5,0-4-1.7c-1.5-1.7-1.3-3.9-1.3-4v-2h-1.7v-10.1h-3.2v10.1h-4.7v-10.1h-3.2v10.1h-4.7
	v-10.1h-3.2v10.1h-4.7v-10.1h-3.8l0,23.9H-300.8z"/>
</svg>
