<?xml version="1.0" encoding="utf-8"?>
<!-- Generator: Adobe Illustrator 19.1.0, SVG Export Plug-In . SVG Version: 6.00 Build 0)  -->
<svg version="1.1" id="Calque_1" xmlns="http://www.w3.org/2000/svg" xmlns:xlink="http://www.w3.org/1999/xlink" x="0px" y="0px"
	 viewBox="-370 235.3 100 125" style="enable-background:new -370 235.3 100 125;" xml:space="preserve">
<g>
	<path d="M-280.2,260.5l-0.3-0.3c-7.3-7.3-19.3-7.3-26.6,0l-16.1,16.1v6.4l0.8-0.8l0,0c4.9-4.9,9-9,12.1-12.1l4.7-4.7
		c5.7-5.7,14.5-6.5,21.1-2.3c-6.4-2.1-13.7-0.6-18.8,4.4l-5.1,5.1c-3.1,3.1-7,7-11.8,11.8l18.3,18.3l-18.5,18.5
		c-2.2,2.2-4.9,3.5-7.7,4c-1.4,1.7-3,3.3-4.8,4.5c5.6,0.7,11.5-1,15.7-5.3l37-37C-272.9,279.8-272.9,267.8-280.2,260.5z
		 M-284.8,262.4c0.4,0.3,0.7,0.6,1.1,1l0,0C-284,263-284.4,262.7-284.8,262.4z M-283.4,263.7L-283.4,263.7c0.4,0.4,0.7,0.7,1,1.1
		C-282.7,264.4-283,264-283.4,263.7z"/>
	<path d="M-321.6,318.3l3.9-3.9c2.7-2.7,6.3-6.3,10.6-10.6l-1.8-1.8c-4.2,4.2-7.6,7.6-10.3,10.3l-4.2,4.2c-0.2,0.2-0.4,0.4-0.7,0.6
		c-0.4,1.4-0.9,2.7-1.6,4C-324.2,320.5-322.8,319.5-321.6,318.3z"/>
</g>
<path d="M-346.1,239.6h-0.4c-10.4,0-18.8,8.5-18.8,18.8v52.3c0,10.4,8.5,18.8,18.8,18.8h0.4c10.4,0,18.8-8.5,18.8-18.8v-52.3
	C-327.2,248.1-335.7,239.6-346.1,239.6z M-346.1,244.1c0.5,0,1,0,1.5,0.1C-345.1,244.2-345.6,244.1-346.1,244.1L-346.1,244.1z
	 M-346.5,244.1L-346.5,244.1c-0.5,0-1,0-1.5,0.1C-347.5,244.2-347,244.1-346.5,244.1z M-331.7,310.8c0,7.9-6.4,14.3-14.3,14.3h-0.4
	c-7.9,0-14.3-6.4-14.3-14.3v-26.2h0c0-6.9,0-12.7,0-17.2v-6.6c0-8.1,5.7-14.8,13.2-16.5c-6,3.1-10.1,9.3-10.1,16.4v7.2
	c0,4.4,0,9.9,0,16.7h25.9V310.8z"/>
<path d="M-337,303.9v5.9c0,5.9-3.4,11.1-8.4,13.6c6.3-1.4,11-7,11-13.7v-5.5c0-3.9,0-8.9,0-15h-2.6C-337,295.3-337,300.1-337,303.9z
	"/>
</svg>
