<?xml version="1.0" encoding="utf-8"?>
<!-- Generator: Adobe Illustrator 19.1.0, SVG Export Plug-In . SVG Version: 6.00 Build 0)  -->
<svg version="1.1" id="Calque_1" xmlns="http://www.w3.org/2000/svg" xmlns:xlink="http://www.w3.org/1999/xlink" x="0px" y="0px"
	 viewBox="-370 235.3 100 125" style="enable-background:new -370 235.3 100 125;" xml:space="preserve">
<g>
	<path d="M-340.5,297.9c-0.3-1.3-0.4-2.7-0.4-4.1c0-11.1,9.1-20.1,20.3-20.1c11.2,0,20.3,9,20.3,20.1c0,1.4-0.2,2.9-0.5,4.2
		c-0.3,1.2-1.3,2-2.5,2c-0.2,0-0.4,0-0.5-0.1c-1.4-0.3-2.2-1.6-1.9-3c0.2-1,0.3-2.1,0.3-3.2c0-8.3-6.8-15.1-15.3-15.1
		c-8.4,0-15.3,6.8-15.3,15.1c0,1,0.1,2,0.3,3c0.3,1.4-0.6,2.7-2,3C-338.9,300.1-340.3,299.3-340.5,297.9z M-333,270.7
		c0.4,1,1.3,1.6,2.3,1.6c0.3,0,0.7-0.1,1-0.2c1.3-0.5,1.9-2,1.4-3.3l-2.5-5.9c-0.5-1.3-2-1.9-3.3-1.4c-1.3,0.5-1.9,2-1.4,3.3
		L-333,270.7z M-311.4,272c0.3,0.1,0.7,0.2,1,0.2c1,0,1.9-0.6,2.3-1.6l2.5-5.9c0.5-1.3-0.1-2.8-1.4-3.3c-1.3-0.5-2.8,0.1-3.3,1.4
		l-2.5,5.9C-313.3,270-312.7,271.5-311.4,272z M-296.1,286.4c0.3,0,0.6-0.1,1-0.2l5.9-2.4c1.3-0.5,1.9-2,1.4-3.3
		c-0.5-1.3-2-1.9-3.3-1.4l-5.9,2.4c-1.3,0.5-1.9,2-1.4,3.3C-298.1,285.8-297.1,286.4-296.1,286.4z M-351.9,283.7l5.9,2.4
		c0.3,0.1,0.6,0.2,1,0.2c1,0,1.9-0.6,2.3-1.6c0.5-1.3-0.1-2.8-1.4-3.3l-5.9-2.4c-1.3-0.5-2.8,0.1-3.3,1.4
		C-353.8,281.7-353.2,283.2-351.9,283.7z M-277.8,303.3h-84.3c-1.4,0-2.5,1.6-2.5,3c0,1.4,1.1,3,2.5,3h84.3c1.4,0,2.5-1.6,2.5-3
		C-275.3,304.9-276.4,303.3-277.8,303.3z M-320.8,284.3c-0.9,0-1.5,0.7-1.5,1.6v8.4l-1.5-1.6c-0.6-0.6-1.6-0.7-2.2,0
		c-0.6,0.6-0.6,1.6,0,2.2l4.3,4.5c0.3,0.3,0.7,0.5,1.2,0.5c0.4,0,0.9-0.2,1.2-0.5l4.3-4.7c0.6-0.6,0.5-1.6-0.1-2.2
		c-0.6-0.6-1.6-0.5-2.2,0.1l-1.9,2v-8.7C-319.3,285-319.9,284.3-320.8,284.3z"/>
</g>
</svg>
