<?xml version="1.0" encoding="utf-8"?>
<!-- Generator: Adobe Illustrator 19.1.0, SVG Export Plug-In . SVG Version: 6.00 Build 0)  -->
<svg version="1.1" id="Layer_1" xmlns="http://www.w3.org/2000/svg" xmlns:xlink="http://www.w3.org/1999/xlink" x="0px" y="0px"
	 viewBox="-376 248.3 87.8 100" style="enable-background:new -376 248.3 87.8 100;" xml:space="preserve">
<style type="text/css">
	.st0{fill:#010101;}
</style>
<path class="st0" d="M-358.4,300.3c2.8,0,5-2.3,5-5c0-2.8-2.3-5-5-5c-2.8,0-5,2.3-5,5C-363.5,298.1-361.2,300.3-358.4,300.3
	L-358.4,300.3z"/>
<path class="st0" d="M-339.6,260.7c-2.7,4-7.9,5.1-11.7,2.6c-3.8-2.6-4.8-7.9-2.1-11.9c1-1.4,2.3-2.5,3.7-3.2
	c-4.3-0.4-8.6,1.4-11.2,5.3c-3.7,5.5-2.2,13,3.3,16.7c5.5,3.7,13,2.2,16.7-3.3c1.5-2.2,2.1-4.8,2-7.3
	C-339.1,259.9-339.3,260.3-339.6,260.7z"/>
<path class="st0" d="M-302.9,253.1h-10.7v-7.5h-12.1v18.1h-8.6v23.1h10.2c2.7,0,4.3,1.7,4.4,4h0v0.2h16.8L-302.9,253.1z
	 M-325.1,281.3h-4v-4h4V281.3z M-325.1,273.2h-4v-4h4V273.2z M-315.8,281.3h-4v-4h4V281.3z M-315.8,273.2h-4v-4h4V273.2z
	 M-307.3,273.2h-4v-4h4V273.2z M-307.3,264.9h-4v-4h4V264.9z"/>
<g>
	<polygon class="st0" points="-320.8,305.4 -318.1,308.1 -308.8,308.1 -308.8,319.8 -302.9,319.8 -302.9,302.5 -320.8,302.5 	"/>
	<path class="st0" d="M-301.3,294.5l-21,0v-0.4c0-2.4-1.6-4.1-4.4-4.1H-349l0,0c-1.5,0.1-2.8,1.3-2.8,2.9v3.8v5.9h-4.2l-6,0
		l0.1,17.3h5.9v-11.7h4.2v2.4v3.8c0,1.6,1.3,2.9,2.9,2.9c1.6,0,2.9-1.3,2.9-2.9v-3.8v-2.4h18.1c0.2,0.6,0.5,1.1,1,1.5l0,0l10.3,9.4
		c1.2,1.1,3,1,4.1-0.2c1.1-1.2,1-3-0.2-4.1l-5.2-4.8l0,0l-4.3-3.9l0-5.9v0l21,0c1.6,0,2.9-1.3,2.9-2.9
		C-298.4,295.8-299.7,294.5-301.3,294.5z M-328,302.5h-18v-2.2h18V302.5z"/>
</g>
</svg>
