<?xml version="1.0" encoding="utf-8"?>
<!-- Generator: Adobe Illustrator 19.1.0, SVG Export Plug-In . SVG Version: 6.00 Build 0)  -->
<svg version="1.1" id="Calque_1" xmlns="http://www.w3.org/2000/svg" xmlns:xlink="http://www.w3.org/1999/xlink" x="0px" y="0px"
	 viewBox="-370 235.3 100 125" style="enable-background:new -370 235.3 100 125;" xml:space="preserve">
<g>
	<path d="M-306.4,265.1c0.1,0.1,0,0.4-0.3,0.7l-2,1.7c-0.3,0.2-0.6,0.3-0.7,0.2s0-0.4,0.3-0.7l2-1.7
		C-306.8,265-306.5,265-306.4,265.1L-306.4,265.1z M-300.7,260.5c0.1,0.1,0,0.4-0.3,0.7l-2.1,1.7c-0.3,0.2-0.6,0.3-0.7,0.2
		c-0.1-0.1,0-0.4,0.3-0.7l2-1.7C-301.2,260.5-300.9,260.4-300.7,260.5L-300.7,260.5z M-277.1,240.2L-277.1,240.2
		c0.3,0.4,0.2,0.8,0,1l-0.9,0.7c-0.3,0.2-0.7,0.2-0.9-0.1l-0.1-0.1c-0.2-0.3-0.2-0.7,0.1-0.9l0.9-0.7
		C-277.8,239.9-277.4,239.9-277.1,240.2L-277.1,240.2z M-276.3,244.9l0.2,0l-1.4,1.2l-6.5,5.3l-0.1,0l-0.1-0.1l0.1,0l-0.2-0.3
		l6.5-5.3l0.2,0.3L-276.3,244.9L-276.3,244.9z M-288.5,254.7l0.2,0.3l-1.3,1l-4.9,4l-1.3,1l-0.1-0.1l1.3-1l-0.2-0.2L-288.5,254.7
		L-288.5,254.7z M-290.7,252l0.6,0.7l-6.1,5l-0.6-0.7L-290.7,252L-290.7,252z M-333,296.1l0.2-0.2c0.2,0.2,0.6,0.2,0.8,0.1l0,0
		l0.1,0.1l0.5-0.4c0,0,0.1,0.1,0.1,0.1c0.9,1.1,2.5,1.3,3.7,0.6l-0.1-0.3c-0.9,0.6-2.1,0.4-2.6-0.5c-0.3-0.5-0.5-1-0.4-1.5
		c1.2-1.1,2.5-2.2,2.9-2.5c0.4-0.3,0.6-0.4,0.8-0.4l1.7,2.1c0.6,0.8,0.5,1.9-0.3,2.6l-3.2,2.6c-0.8,0.6-1.9,0.5-2.6-0.3L-333,296.1
		L-333,296.1z M-296.2,297.6l-1.3-8.7c-5.3,0.7-10.9-0.4-16-2.9c-1.6-0.8-3.5-2.5-3.8-3.1c-0.3-0.4,0.1-0.8,0.1-0.8l4.5-4.1l0.5,0.1
		l0.4-0.3c0,0,0.9,0,1.7-0.6c0.7-0.6,1.1-1.5,2.5-3.3c1.4-1.7,4.7-4.3,6.2-5.6c1.5-1.2,4.5-4.6,4.5-4.6l1.5-1.2l-0.2-0.9l7.8-6.3
		l12.4-10.1c0,0,0.1,0,0.2,0c0.1,0,0.3-0.2,0.3-0.2l0.5-0.4c0.8-0.6,0.2-1.8,0.2-1.8l1.5-1.2l-1.4-1.8l-0.8,0.7l-0.2,0l-0.8-0.1
		l-0.7-0.8l-0.2,0.2l-1.8-2.2l-0.3-0.9l-1-0.1l-1.1,0.9c0,0-0.6,0.7-0.2,1.2c0.4,0.5,0.6,0.4,0.6,0.4l0.3,0.5l0.8,4.2l0.3,0.5
		l-6.3,5.1c0,0-0.2-0.1-0.4,0c-0.2,0-0.3,0.2-0.3,0.2s-1.3,0.4-2.3,0.3c-0.9-0.1-1.7-0.8-1.7-0.8l-1.3,0.1l-8.9,7.2l-0.7-0.2
		l-0.5,0.5l-0.2-0.1c0,0-10.5,8.1-11.3,8.9c-0.8,0.7-0.5,0.8-0.5,0.8l0.2,0.4l-0.3,0.2c0,0,0-0.1-0.7-0.6c-0.7-0.5-1.2,0.6-1.2,0.6
		l-0.1,0.1l-0.2-0.2l-0.4,0.4c0,0-0.5,0-0.7,0.2c-0.2,0.2-0.1,0.6-0.1,0.6l-3,2.5c0,0-0.4,0-0.7,0.2c-0.3,0.3-0.3,0.6-0.2,0.7
		l-0.5,0.4c0,0-0.3,0-0.5-0.1c-0.2,0-0.5-0.1-0.5,0.1c-0.1,0.3,0,0.3,0.2,0.4c0.2,0.1,0.2,0.1,0.4,0.3c0.1,0.2,0.2,0.2,0.2,0.2
		l1.1-0.9l0.2,0.3l-0.7,0.6l0.2,0.4l-22.8,18.8c0,0-0.5,0.4-0.7,0.9c-0.2,0.5-0.1,2.3-0.1,2.3l-0.2,0.7c0,0,0,1.7,0,1.9
		c0,0.2,0.2,0.4,0.2,0.4l-2.7,3.2l-2.7,3.5c0,0-0.4,0.3-1.4,1.5c-0.9,1.2-2,1.6-3,1.7c-1,0.1-1.7,1-2.5,1.9
		c-0.8,0.9-9.8,11.5-9.8,11.5s-0.9,0.7-1.7,1.7c-0.8,1-0.9,1.1-0.9,1.7c0,0.6,0.4,0.7,1.7,1.5c1.3,0.9,6,4.9,7.6,6.5
		c1.6,1.6,2,1.7,2.9,1.5c0.9-0.2,1-1.3,1-1.3s5.9-12.4,8.4-17.6c2.5-5.2,5.8-10.7,5.8-10.7l1.4-1.8l0.7-0.6c0,0,0.4,0.1,0.6,0.5
		c0.2,0.3,0.7,0.7,1,0.9c0.3,0.1,1.1,0.7,1.5,1.3c0.4,0.6,0.9,2.6,0.9,2.6s1,2.9,1.5,4.4c0.4,1.5,1.3,1.6,2.1,1.8
		c0.7,0.2,2,0.1,3.6-1.2c1.6-1.2,1.2-1.9,0.7-2.6c-0.5-0.6-1-2-1-2l-1.1-3.6c0,0-0.8-2.6-1-3.6c-0.2-0.8,0.1-1.4,0.2-1.6
		c0.7,0.4,1.7,0.3,2.4-0.3l3.2-2.6c0.7-0.6,0.9-1.5,0.7-2.3c0.1-0.1,0.4-0.4,0.8-0.6l0.3,0.2l0.3,0l0.7,1.1l0.2-0.2
		c0,0,0.1-0.1-0.3-0.9c-0.2-0.3-0.4-0.6-0.5-0.8c0.2-0.5-0.3-1.1-0.3-1.1l-0.5-0.7l1-0.8C-315.4,296.4-305.6,298.6-296.2,297.6
		L-296.2,297.6z"/>
</g>
</svg>
