<svg xmlns="http://www.w3.org/2000/svg" xmlns:xlink="http://www.w3.org/1999/xlink" version="1.1" x="0px" y="0px" width="100px" height="100px" viewBox="0 0 100 100" enable-background="new 0 0 100 100" xml:space="preserve">
<g id="Captions">
</g>
<g id="Your_Icon">
	<path fill-rule="evenodd" clip-rule="evenodd" fill="#000000" d="M60.484,45.232c-2.16-3.047-2.922-3.809-5.969-5.842   c-0.256-0.252-0.639-0.127-0.639,0.252c0,1.02,0.128,2.033,0.128,3.053c0,3.047-0.255,4.447-1.399,7.238l-3.047,5.213   c-0.131,0.254,0.255,0.766,0.634,0.51l8.386-5.336l1.905-4.195C60.613,45.742,60.613,45.488,60.484,45.232 M74.714,25.414   c0.383,0,0.638,0.127,0.638,0.51l3.43,11.816l-1.269,0.762l-7.88-12.455c-0.255-0.254-0.127-0.889,0.379-0.889L74.714,25.414z    M70.901,53.367c0,0,4.957,12.961,4.957,13.088c0.131,0.506,0.51,0.889,0.889,1.145l13.85,11.182   c0.383,0.383,0.638,0.889,0.766,1.396v0.889c0,2.033-0.766,3.939-2.289,5.336c-0.124,0-0.255,0.254-0.255,0.51   s0.255,0.635,0.638,0.635h1.906c1.523,0,3.047-0.891,3.812-2.285l4.702-8.008C100,77.131,100,77,100,76.748   c0-0.383-0.252-0.762-0.635-1.018l-2.792-1.268l-9.658-11.182c-0.382-0.383-0.889-0.639-1.399-0.639   c-0.379,0-0.634,0.127-0.889,0.256c-0.635-0.762-1.017-1.396-1.145-2.285l-4.701-19.316l1.399-0.889h0.124   c0.51,0.379,1.145,0.633,1.909,0.633c0.379,0,0.762,0,1.014-0.254c0.889-0.508,1.271-0.891,1.909-1.779   c0.124-0.125,0.124-0.506,0.124-0.762v-0.127c0-0.762-0.507-1.523-1.269-1.902c-0.765-0.512-1.271-1.273-1.271-2.289   c-0.128-3.434-0.89-7.115-2.161-10.293c-0.635-1.398-1.523-2.412-2.923-3.178c-3.812-1.779-7.876-2.668-12.07-2.668h-1.779   c-1.269,0-2.158,0.379-3.174,1.018l-4.702,3.174c-0.128,0.131-0.255,0.131-0.507,0.131c-0.51,0-0.889-0.383-0.889-0.889v-0.639   c0-3.051-1.654-5.842-4.323-7.242c-1.017-0.633-1.779-0.889-2.923-0.889c-1.017,0-1.524,0.125-2.413,0.635   c-1.399,0.51-2.416,1.523-3.305,2.668c-0.634,0.889-0.89,1.908-0.89,3.051c0,2.922,2.417,5.717,5.208,6.734l3.054,0.506   c0.634,0,1.013,0.383,1.013,1.018c0,0.256-0.124,0.506-0.379,0.762l-3.178,3.178c-0.255,0.379-0.379,0.51-0.379,1.018v0.889   c0,3.557,0.507,7.369,1.523,10.799c0,0.51,0.124,0.891,0.124,1.271c0,0.639-0.124,1.145-0.379,1.779l-4.323,10.676   c-0.251,0.379-0.379,0.889-0.379,1.268c0,0.51,0.127,1.02,0.379,1.4l-5.335,3.428c-0.255-0.889-0.634-1.395-1.396-1.904   l-0.762-0.381l-3.306-1.02c-0.762-0.252-1.396-0.758-1.778-1.396l-2.417-4.062c-0.124,0-0.124-0.131-0.251-0.256l-1.906-0.635   l-3.812-0.51h-0.255c-1.268,0-2.413,0.635-3.047,1.779L0,87.547h43.203c0.382,0,0.765-0.379,0.765-0.758c0,0,0-0.133-5.591-20.078   l5.97-3.812c0.383,0.252,0.634,0.252,1.017,0.252c0.382,0,0.638,0,0.889-0.125l2.671-1.271c0.634-0.383,1.013-0.889,1.013-1.65   c0-0.256,0-0.381-0.124-0.635l7.114-4.322l-1.017,2.543c-0.893,2.285-1.396,4.701-1.526,7.115l-0.891,17.027l-0.123,1.65   c-0.131,0.127-0.131,0.252-0.256,0.252l-5.466,1.527c-0.507,0.127-0.889,0.633-0.889,1.141c0,0.637,0.638,1.145,1.145,1.145h12.58   c0.763,0,1.27-0.635,1.4-1.27c0.758-6.1,1.523-12.197,2.412-18.426c0-0.125,0-0.252-0.127-0.379l-0.256-0.129   c-0.251,0-0.506-0.25-0.506-0.633v-1.652c0-0.383,0.124-0.637,0.255-0.889c4.063-4.701,4.191-5.084,6.604-10.676   c0-0.127,0.131-0.254,0.255-0.254C70.777,53.24,70.901,53.367,70.901,53.367"/>
</g>
</svg>