<?xml version="1.0" encoding="utf-8"?>
<!-- Generator: Adobe Illustrator 19.1.0, SVG Export Plug-In . SVG Version: 6.00 Build 0)  -->
<svg version="1.1" id="Layer_1" xmlns="http://www.w3.org/2000/svg" xmlns:xlink="http://www.w3.org/1999/xlink" x="0px" y="0px"
	 viewBox="-370 248.3 100 100" style="enable-background:new -370 248.3 100 100;" xml:space="preserve">
<style type="text/css">
	.st0{fill:none;}
</style>
<g>
	<path d="M-289.5,285c0,1.7-1.3,3-3,3s-3-1.3-3-3c0-1.7,1.3-3,3-3S-289.5,283.3-289.5,285z"/>
</g>
<path d="M-288.9,268.1h-29.9l11.4-19.2c0.3-0.6,0-1.3-0.6-1.6c-0.6-0.3-1.3,0-1.6,0.6l-11.6,19.6l-6.6-13.3c-0.3-0.6-1-0.8-1.6-0.5
	c-0.6,0.3-0.8,1-0.5,1.6l6.4,12.8h-24.9c-3,0-5.3,2.4-5.3,5.3v39.4c0,2.9,2.4,5.3,5.3,5.3h59.7c2.9,0,5.3-2.4,5.3-5.3v-39.4
	C-283.5,270.5-285.9,268.1-288.9,268.1z M-295.4,274h5.8c0.7,0,1.2,0.5,1.2,1.2c0,0.7-0.5,1.2-1.2,1.2h-5.8c-0.7,0-1.2-0.5-1.2-1.2
	C-296.6,274.5-296.1,274-295.4,274z M-301,309.2c0,1.8-1.4,3.2-3.2,3.2h-42.3c-1.8,0-3.2-1.4-3.2-3.2v-32c0-1.8,1.4-3.2,3.2-3.2
	h42.3c1.8,0,3.2,1.4,3.2,3.2C-301,277.2-301,309.2-301,309.2z M-297.4,297.3c-0.9,0-1.6-0.7-1.6-1.6c0-0.9,0.7-1.6,1.6-1.6
	s1.6,0.7,1.6,1.6C-295.8,296.6-296.5,297.3-297.4,297.3z M-292.5,297.3c-0.9,0-1.6-0.7-1.6-1.6c0-0.9,0.7-1.6,1.6-1.6
	c0.9,0,1.6,0.7,1.6,1.6C-290.9,296.6-291.6,297.3-292.5,297.3z M-292.5,289.5c-2.5,0-4.5-2-4.5-4.5c0-2.5,2-4.5,4.5-4.5
	c2.5,0,4.5,2,4.5,4.5C-288,287.5-290,289.5-292.5,289.5z M-287.6,297.3c-0.9,0-1.6-0.7-1.6-1.6c0-0.9,0.7-1.6,1.6-1.6
	c0.9,0,1.6,0.7,1.6,1.6C-286,296.6-286.7,297.3-287.6,297.3z"/>
<g>
	<path class="st0" d="M-323.8,297.5h-2c-0.6,0-1.1,0.5-1.1,1.1l2.2,10.1c0,0.6,0.5,1.1,1.1,1.1h16.2c0.6,0,1.1-0.5,1.1-1.1l2.2-10.1
		c0-0.6-0.5-1.1-1.1-1.1h-1.9 M-315.5,304.3c-0.3,0-0.6-0.3-0.6-0.6c0-0.3,0.3-0.6,0.6-0.6c0.3,0,0.6,0.3,0.6,0.6
		C-314.9,304-315.2,304.3-315.5,304.3z"/>
	<path class="st0" d="M-313.9,297.5h-1.1"/>
	<g>
		<circle cx="-315.5" cy="303.7" r="0.6"/>
		<path d="M-306.2,310.2h-18.5c-0.3,0-0.5,0.2-0.5,0.5c0,0.3,0.2,0.5,0.5,0.5h18.5c0.3,0,0.5-0.2,0.5-0.5
			C-305.7,310.4-305.9,310.2-306.2,310.2z"/>
	</g>
	<path d="M-313.9,297.5c0-0.1,0.1-0.1,0.1-0.2h-1.2l0,0.2H-313.9z"/>
	<path d="M-316.1,297.5l0-0.2h-1.2c0,0.1,0.1,0.1,0.1,0.2H-316.1z"/>
	<path d="M-323.7,309.9h16.4c0.6,0,1.1-0.5,1.1-1.1l2.2-10.4c0-0.6-0.5-1.1-1.1-1.1h-2.1c0,0.1,0.1,0.1,0.1,0.2h1.9
		c0.6,0,1.1,0.5,1.1,1.1l-2.2,10.1c0,0.6-0.5,1.1-1.1,1.1h-16.2c-0.6,0-1.1-0.5-1.1-1.1l-2.2-10.1c0-0.6,0.5-1.1,1.1-1.1h2
		c0-0.1,0.1-0.1,0.1-0.2h-2.1c-0.6,0-1.1,0.5-1.1,1.1l2.2,10.4C-324.8,309.4-324.3,309.9-323.7,309.9z"/>
	<path d="M-317.2,297.5c0-0.1-0.1-0.1-0.1-0.2h-6.4c0,0.1-0.1,0.1-0.1,0.2H-317.2z"/>
	<polygon points="-315,297.5 -315,297.3 -316.1,297.3 -316.1,297.5 	"/>
	<path d="M-307.1,297.5c0-0.1-0.1-0.1-0.1-0.2h-6.6c0,0.1-0.1,0.1-0.1,0.2H-307.1z"/>
	<path d="M-306.6,297.3c0-2.6-1.7-4-4.1-4.7c1,0.1,1.9,0.3,1.9,0.3c-2-1.1-2-5.1-2-5.1c0.4-7.7-4.7-7.3-4.7-7.3l0,0l0,0
		c0,0-5.1-0.4-4.7,7.3c0,0,0,4-2,5.1c0,0,0.5,0,1.3-0.1c-2,0.9-3.5,2.1-3.5,4.5 M-316.9,286.5c0,0,1.7-0.6,3.8-2.1c0,0,0,0,0,0
		c0,0,0,0.1,0.1,0.1c0.2,0.3,0.6,1.2-0.2,1.6l1.3,0.2h0l0.2,0c0,0.2,0,0.4,0,0.6c-0.1,1-0.3,2-0.7,2.7c-0.7,1.4-1.9,2.4-3.2,2.4
		c-2,0-3.6-2.2-3.9-5C-319.4,287.2-317.8,286.9-316.9,286.5z M-314.1,294.1l-1.4,2.2l-1.4-2.2c-1-0.2-1.7-0.7-2.1-1.3
		c0.8,0.1,1.5,0.2,1.6,0.5l-0.7-1.7c0.7,0.7,1.6,1.1,2.5,1.1c0.9,0,1.8-0.4,2.5-1.1l-0.5,1.1c0.2-0.3,0.8-0.4,1.6-0.3
		C-312.1,293.2-312.9,293.8-314.1,294.1z"/>
</g>
<path d="M-335.1,276.2h-10.8c-0.8,0-1.5,0.7-1.5,1.5v7.3c0,0.8,0.7,1.5,1.5,1.5h10.8c0.8,0,1.5-0.7,1.5-1.5v-7.3
	C-333.6,276.8-334.3,276.2-335.1,276.2z M-337.3,284.1c0,0,0,0.1-0.2,0.2c0,0-1.3,0.5-3.1,0.5c0,0-1.8,0-3-0.5c0,0-0.2,0-0.2-0.4
	c0,0,0.1-0.7,0.6-1.5c0,0,0.1-0.2,0.5-0.3c0,0,0.8-0.2,1.1-0.5c0,0,0.1-0.1,0.1-0.1c0,0,0,0,0,0c0,0,0.1-0.2,0.1-0.2c0,0,0,0,0,0
	c0-0.1,0-0.2,0-0.2c0,0,0,0,0,0c-0.1-0.2-0.2-0.4-0.3-0.6c0,0-0.1-0.1-0.1-0.2c0,0-0.1-0.3,0-0.4c0,0-0.1-0.3-0.1-0.8
	c0,0,0.2-1,1-1.2c0,0,0.7-0.2,1.2,0.1c0.5,0.2,0.6,0.6,0.6,0.6c0.3,0.5,0.1,1.1,0.1,1.1c0,0.1,0.1,0.2,0,0.4c0,0-0.1,0.3-0.2,0.4
	c-0.1,0.2-0.2,0.4-0.3,0.6c0,0,0,0,0,0c0,0,0,0.1,0,0.1c0,0,0,0,0,0c0,0,0,0.2,0.1,0.2c0,0,0,0,0,0c0,0,0,0,0,0c0,0,0,0,0,0
	c0,0.1,0.2,0.2,0.6,0.4c0,0,1.1,0.3,1.2,0.7C-337.7,282.5-337.1,282.9-337.3,284.1z"/>
</svg>
