<svg xmlns="http://www.w3.org/2000/svg" xmlns:xlink="http://www.w3.org/1999/xlink" version="1.1" id="Your_Icon" x="0px" y="0px" width="100px" height="100px" viewBox="0 0 100 100" enable-background="new 0 0 100 100" xml:space="preserve">
<g>
	<path d="M93.096,36.465l-1.182-0.68l6.624-3.83l0.008-3.458L73.059,13.779c-3.228-1.869-6.149-1.962-8.195-0.611v-0.017   L3.414,48.635l-0.271,0.154l-0.137,0.076v0.009C1.146,50.096,0.007,52.518,0,55.871c-0.016,7.075,4.968,15.721,11.127,19.271   l20.069,11.585c2.03,1.171,3.858,1.3,5.13,0.562v0.007l0.145-0.084l61.584-35.561l0.126-0.069v-0.01   c1.12-0.642,1.812-1.956,1.819-3.829C100.018,43.726,96.916,38.665,93.096,36.465z M61.992,18.263l0.441-0.254   c0.086-0.051,0.162-0.093,0.256-0.145l1.407-0.815c0.028-0.017,0.062-0.025,0.086-0.042c1.877-0.985,4.511-1.835,7.891-0.255   c0.152,0.06,0.299,0.128,0.45,0.213c0.17,0.084,0.34,0.178,0.52,0.279L95.549,30.23l-6.625,3.823l-2.998,1.732l-6.624,3.823   l-2.999,1.732L36.69,64.213l-12.909-7.45l-2.991-1.731l-9.598-5.537c-0.602-0.349-1.204-0.638-1.783-0.868L61.992,18.263z    M31.204,83.262l-20.07-11.584c-4.491-2.591-8.136-8.9-8.118-14.064s3.685-7.253,8.169-4.654l6.6,3.804l-6.614,3.823l-0.019,3.457   l0.008,0.007L31.22,75.636c2.167,1.248,3.925,3.974,3.916,6.08C35.128,83.815,33.369,84.512,31.204,83.262z M96.983,46.274   c-0.093,2.014-1.272,3.22-3.668,4.655c-0.067,0.043-0.137,0.076-0.205,0.119c-0.102,0.06-0.202,0.128-0.313,0.187   c-0.076,0.043-0.146,0.085-0.214,0.119L38.116,82.805c-0.296-3.899-3.259-8.546-6.879-10.627l-17.07-9.86l6.615-3.82l15.9,9.172   l42.61-24.596l2.997-1.741l6.626-3.822l4.17,2.413c2.158,1.249,3.915,3.975,3.907,6.081C96.993,46.096,96.993,46.189,96.983,46.274   z"/>
	<polygon points="30.946,52.627 37.539,56.566 54.496,47.046 47.671,42.97 44.727,41.21 38.002,37.192 21.045,46.711 28.001,50.867     "/>
	<polygon points="63.142,26.9 65.429,25.617 71.034,22.471 69.109,21.32 67.736,20.499 66.89,20.974 64.878,22.104 62.211,23.601    41.371,35.3 44.67,37.271  "/>
	<polygon points="64.484,29.97 53.814,35.959 47.968,39.242 48.049,39.291 50.995,41.05 51.268,41.213 66.199,32.831 68.364,31.615    73.608,28.67 76.648,26.963 77.633,26.412 74.334,24.441 73.292,25.025 73.025,25.177 66.646,28.757  "/>
	<polygon points="70.615,34.176 68.262,35.497 54.565,43.184 57.865,45.155 70.783,37.903 73.605,36.318 80.321,32.549    83.362,30.841 84.23,30.354 80.932,28.384 80.005,28.903 76.967,30.61  "/>
	<path d="M91.346,44.937c-0.174-0.212-0.449-0.503-0.764-0.688l-1.67-0.965L38.787,72.228l0.653,0.899   c0.344,0.47,0.666,0.956,0.97,1.453l0.508,0.834l49.151-28.383l0.418-0.232c0,0-1.472,0.837-0.004-0.004   C91.953,45.952,91.346,44.937,91.346,44.937z"/>
</g>
</svg>