<?xml version="1.0" encoding="utf-8"?>
<!-- Generator: Adobe Illustrator 19.1.0, SVG Export Plug-In . SVG Version: 6.00 Build 0)  -->
<svg version="1.1" id="Layer_1" xmlns="http://www.w3.org/2000/svg" xmlns:xlink="http://www.w3.org/1999/xlink" x="0px" y="0px"
	 viewBox="-370 248.3 100 100" style="enable-background:new -370 248.3 100 100;" xml:space="preserve">
<path d="M-306.4,278.1c-0.1,0-0.1,0-0.2,0c-0.3-0.1-0.6-0.3-0.7-0.5l-2.5-4.1c-0.4-0.6-0.1-1.3,0.4-1.6c0.5-0.3,1.3-0.1,1.6,0.4
	l1.9,3l3-2c0.5-0.4,1.3-0.2,1.6,0.3c0.4,0.5,0.2,1.3-0.3,1.6l-3.9,2.7C-305.9,278-306.1,278.1-306.4,278.1z"/>
<path d="M-326,282.1c-0.7,0-1.2-0.5-1.2-1.2c0-0.8-0.8-1.6-1.9-1.6s-1.9,0.7-1.9,1.6c0,0.7-0.5,1.2-1.2,1.2c-0.7,0-1.2-0.5-1.2-1.2
	c0-2.1,1.9-3.9,4.2-3.9s4.2,1.8,4.2,3.9C-324.8,281.5-325.3,282.1-326,282.1z"/>
<path d="M-332,287.2c-0.7,0-1.2-0.5-1.2-1.2v-4.7c0-0.7,0.5-1.2,1.2-1.2c0.7,0,1.2,0.5,1.2,1.2v4.7
	C-330.8,286.7-331.4,287.2-332,287.2z"/>
<path d="M-326,287.2c-0.7,0-1.2-0.5-1.2-1.2v-4.7c0-0.7,0.5-1.2,1.2-1.2c0.7,0,1.2,0.5,1.2,1.2v4.7
	C-324.8,286.7-325.3,287.2-326,287.2z"/>
<path d="M-327.1,284.2h-3.6c-0.7,0-1.2-0.5-1.2-1.2c0-0.7,0.5-1.2,1.2-1.2h3.6c0.7,0,1.2,0.5,1.2,1.2
	C-326,283.7-326.5,284.2-327.1,284.2z"/>
<path d="M-305.3,288.5h-5.6c-0.7,0-1.2-0.5-1.2-1.2c0-0.7,0.5-1.2,1.2-1.2h5.6c0.7,0,1.2,0.5,1.2,1.2
	C-304.1,288-304.6,288.5-305.3,288.5z"/>
<path d="M-308.2,292.4c-0.7,0-1.2-0.5-1.2-1.2v-3.3c0-0.7,0.5-1.2,1.2-1.2c0.7,0,1.2,0.5,1.2,1.2v3.3
	C-307,291.8-307.5,292.4-308.2,292.4z"/>
<path d="M-305.5,296.4h-5c-0.7,0-1.2-0.5-1.2-1.2v-3.6c0-0.7,0.5-1.2,1.2-1.2h5c0.7,0,1.2,0.5,1.2,1.2c0,0.7-0.5,1.2-1.2,1.2h-3.8
	v1.3h3.8c0.7,0,1.2,0.5,1.2,1.2C-304.3,295.9-304.9,296.4-305.5,296.4z"/>
<path d="M-306.1,276.3c-0.1,0-0.2,0-0.4-0.1c-0.6-0.2-1-0.9-0.7-1.5c0.7-1.9,0.4-4-0.5-5.9c-1-1.9-2.6-3.3-4.6-3.9
	c-2-0.7-4.1-0.5-6,0.4c-1.9,0.9-3.3,2.5-3.9,4.4c-0.2,0.6-0.9,1-1.5,0.7c-0.6-0.2-1-0.9-0.7-1.5c0.8-2.6,2.7-4.7,5.1-5.9
	c2.4-1.2,5.2-1.4,7.9-0.5c2.6,0.8,4.7,2.7,6,5c1.3,2.4,1.5,5.2,0.7,7.7C-305.1,276-305.7,276.3-306.1,276.3z"/>
<path d="M-342.1,294.7c-0.3,0-0.6-0.1-0.8-0.4c-0.4-0.4-0.4-0.9-0.2-1.3l3.9-8.2c0.3-0.6,1-0.8,1.6-0.6c0.6,0.2,0.8,1,0.6,1.6
	l-2.5,5.2l4.1-1.9c0.6-0.3,1.3,0,1.6,0.6s0,1.3-0.6,1.6l-7.2,3.4C-341.7,294.6-342,294.7-342.1,294.7z"/>
<path d="M-329.4,292.6c-2.1,0-4.1-0.6-5.8-1.8c-0.5-0.4-0.7-1.1-0.3-1.6c0.4-0.5,1.1-0.7,1.6-0.3c1.3,0.9,2.8,1.3,4.4,1.3
	c4.3,0,7.8-3.5,7.8-7.8s-3.4-7.9-7.7-7.9s-7.8,3.5-7.8,7.8c0,0.7,0.1,1.5,0.3,2.2c0.1,0.7-0.1,1.3-0.8,1.5c-0.7,0.1-1.3-0.1-1.5-0.8
	c-0.3-1-0.4-1.9-0.4-2.9c0-5.6,4.6-10.2,10.2-10.2c5.6,0,10.2,4.6,10.2,10.2C-319.1,288-323.7,292.6-329.4,292.6z"/>
<path d="M-295.3,303.2c-0.1,0-0.4-0.1-0.5-0.1l-7.2-3.3c-0.6-0.3-0.9-1-0.6-1.6s1-0.9,1.6-0.6l4.1,1.9l-2.5-5.2
	c-0.3-0.6,0-1.3,0.6-1.6c0.6-0.3,1.3,0,1.6,0.6l3.9,8.2c0.2,0.4,0.1,1-0.2,1.3C-294.7,303.1-295,303.2-295.3,303.2z"/>
<path d="M-308,301.2c-5.6,0-10.2-4.6-10.2-10.2c0-5.6,4.6-10.2,10.2-10.2c5.6,0,10.2,4.6,10.2,10.2c0,1-0.1,1.9-0.4,2.9
	c-0.1,0.7-0.8,1-1.5,0.8c-0.7-0.1-1-0.8-0.8-1.5c0.2-0.7,0.3-1.5,0.3-2.2c0-4.3-3.5-7.8-7.8-7.8s-7.8,3.5-7.8,7.8s3.5,7.8,7.8,7.8
	c1.6,0,3.1-0.4,4.4-1.3c0.5-0.4,1.3-0.2,1.6,0.3c0.4,0.5,0.2,1.3-0.3,1.6C-304,300.6-306,301.2-308,301.2z"/>
</svg>
