<svg xmlns:dc="http://purl.org/dc/elements/1.1/" xmlns:cc="http://creativecommons.org/ns#" xmlns:rdf="http://www.w3.org/1999/02/22-rdf-syntax-ns#" xmlns:svg="http://www.w3.org/2000/svg" xmlns="http://www.w3.org/2000/svg" xmlns:sodipodi="http://sodipodi.sourceforge.net/DTD/sodipodi-0.dtd" xmlns:inkscape="http://www.inkscape.org/namespaces/inkscape" width="100" height="100" viewBox="0 0 80 80" version="1.1" id="svg2" inkscape:version="0.48.2 r9819" sodipodi:docname="torture.svg">
  <metadata id="metadata10">
    <rdf:RDF>
      <cc:Work rdf:about="">
        <dc:format>image/svg+xml</dc:format>
        <dc:type rdf:resource="http://purl.org/dc/dcmitype/StillImage"/>
        <dc:title/>
      </cc:Work>
    </rdf:RDF>
  </metadata>
  <defs id="defs8"/>
  <sodipodi:namedview pagecolor="#ffffff" bordercolor="#666666" borderopacity="1" objecttolerance="10" gridtolerance="10" guidetolerance="10" inkscape:pageopacity="0" inkscape:pageshadow="2" inkscape:window-width="1600" inkscape:window-height="853" id="namedview6" showgrid="true" inkscape:zoom="3.315" inkscape:cx="91.179076" inkscape:cy="77.754591" inkscape:window-x="-4" inkscape:window-y="-4" inkscape:window-maximized="1" inkscape:current-layer="svg2" inkscape:snap-grids="false">
    <inkscape:grid type="xygrid" id="grid3807"/>
  </sodipodi:namedview>
  <g id="g3041" transform="matrix(-0.24587194,0.37331924,-0.37331924,-0.24587194,42.143362,-46.634016)" style="fill:#000000;stroke:none"/>
  <path style="fill:#000000;fill-opacity:1;stroke:none" d="m 38.944523,36.081966 c -0.567245,-0.0016 -0.389621,1.375534 -0.04209,2.27041 l 7.757966,19.752215 c 2.012308,2.604229 4.213437,0.870388 6.537134,-0.371783 0.514525,-0.238816 0.652904,-1.071155 0.3125,-1.96875 l -7.635032,-21.607808 -3.30708,0.115762 z" transform="scale(0.8,0.8)" id="rect3877-4-8" inkscape:connector-curvature="0" sodipodi:nodetypes="cccccccc"/>
  <path style="fill:#000000;fill-opacity:1;stroke:none" d="M 35.4375 29.84375 C 31.848724 29.84375 28.9375 32.754961 28.9375 36.34375 C 28.9375 39.932526 31.848724 42.84375 35.4375 42.84375 C 39.026281 42.84375 41.9375 39.932526 41.9375 36.34375 C 41.9375 32.754961 39.026281 29.84375 35.4375 29.84375 z M 30.875 35.8125 C 30.875 35.8125 31.989531 38.174116 31.21875 38.84375 C 30.923851 39.099946 30.287522 38.901697 30.09375 38.5625 C 29.622298 37.737221 30.875 35.8125 30.875 35.8125 z " transform="scale(0.8,0.8)" id="path3879-9-4"/>
  <path style="fill:#000000;fill-opacity:1;stroke:none" d="m 38.568591,44.407937 c -0.562079,-0.125828 -1.143729,0.01756 -1.150254,0.331726 l -0.244555,11.773948 c 0,0 0.393648,9.938525 0.590386,14.947037 0.07818,0.361582 0.594197,0.560109 1.15718,0.438389 l 3.390683,-0.726821 c 0.562988,-0.121718 0.941861,-0.521054 0.863684,-0.882637 L 42.78634,56.847815 42.83428,45.952128 c 0.0014,-0.314234 -0.336939,-0.664664 -0.899022,-0.790496 z" id="path11649" inkscape:connector-curvature="0" sodipodi:nodetypes="ssccccccsss"/>
  <path style="fill:#000000;fill-opacity:1;stroke:none" d="m 46.25,9.65625 c -0.410644,0.042795 -0.763298,0.3157748 -0.96875,0.6875 0.0033,0.06527 -0.0034,0.155676 0,0.21875 0.04507,0.105451 0.133686,0.205504 0.1875,0.3125 0.262419,-0.281796 0.6055,-0.46875 1,-0.46875 l 1.78125,0 c 0.306833,0 0.609523,0.103137 0.84375,0.28125 -0.159739,-0.2112 -0.382399,-0.385499 -0.65625,-0.46875 l -1.65625,-0.5 C 46.609035,9.6663977 46.417938,9.6387485 46.25,9.65625 z m 0.21875,0.9375 c -0.162071,0 -0.326111,0.05861 -0.46875,0.125 -0.0083,0.0038 -0.02307,-0.004 -0.03125,0 -0.08089,0.04002 -0.116228,0.09799 -0.1875,0.15625 -0.06031,0.0493 -0.135533,0.0955 -0.1875,0.15625 -0.005,0.0057 0.0049,0.02547 0,0.03125 -0.0089,0.01075 -0.0217,0.0202 -0.03125,0.03125 0.929006,1.694808 2.727151,3.264951 3.986668,4.371271 L 49.5625,12.15625 c 0.0012,-0.308116 -0.08734,-0.603884 -0.21875,-0.84375 -0.01188,-0.02229 -0.01838,-0.04103 -0.03125,-0.0625 -0.01117,-0.01864 -0.01931,-0.04443 -0.03125,-0.0625 -0.05299,-0.07927 -0.122437,-0.153322 -0.1875,-0.21875 -0.0385,-0.03985 -0.08259,-0.05908 -0.125,-0.09375 -0.04016,-0.03198 -0.08179,-0.06714 -0.125,-0.09375 -0.109099,-0.06892 -0.220968,-0.09448 -0.34375,-0.125 -0.08317,-0.02067 -0.163443,-0.0625 -0.25,-0.0625 z m -1.664995,1.169153 -1.196673,3.893776 1.40625,0.410837 L 45,12.0625 c -1.36e-4,-0.04098 -0.02926,0.0086 -0.02666,-0.03168 -0.05857,-0.0897 -0.112872,-0.175953 -0.169582,-0.267918 z m 0.414995,0.567086 0.01333,3.853353 4.330418,1.388332 -0.03999,-0.750429 C 48.149623,15.548116 46.52944,14.212539 45.21875,12.329989 z m -1.875,4.361669 -0.25,0.714592 1.90625,0.625 0,-0.786266 z m 1.848337,0.620413 0.02666,0.781679 4.34375,1.375 -0.01333,-0.799597 z M 42.799168,18.361239 38.34375,32.96875 c -0.209409,0.688861 0.18614,1.415586 0.875,1.625 l 1.65625,0.5 c 0.688861,0.209409 1.415585,-0.18614 1.625,-0.875 L 45,26 45,19.062071 z m 2.40625,0.794582 0.01333,6.125429 0,14.46875 c 0,0.849976 0.592513,1.5625 1.3125,1.5625 l 1.71875,0 c 0.719987,0 1.3125,-0.712524 1.3125,-1.5625 l -0.01333,-19.223766 z" transform="scale(0.8,0.8)" id="rect3887-82-5" inkscape:connector-curvature="0" sodipodi:nodetypes="scccsscccsscssccccscsccccssscccscccccccccccccccccccccccccccsssscc"/>
  <path style="font-size:medium;font-style:normal;font-variant:normal;font-weight:normal;font-stretch:normal;text-indent:0;text-align:start;text-decoration:none;line-height:normal;letter-spacing:normal;word-spacing:normal;text-transform:none;direction:ltr;block-progression:tb;writing-mode:lr-tb;text-anchor:start;baseline-shift:baseline;color:#000000;fill:#000000;fill-opacity:1;stroke:none;stroke-width:0.16000000000000000;marker:none;visibility:visible;display:inline;overflow:visible;enable-background:accumulate;font-family:Sans;-inkscape-font-specification:Sans" d="m 34.481289,14.10528 -0.138639,0.466874 5.236383,1.654219 0.02132,-0.49887 z" id="path12172" inkscape:connector-curvature="0" sodipodi:nodetypes="ccccc"/>
  <path inkscape:connector-curvature="0" id="path12182" d="m 34.868335,12.767314 -0.117781,0.413831 4.823929,1.504622 -0.02087,-0.445827 z" style="font-size:medium;font-style:normal;font-variant:normal;font-weight:normal;font-stretch:normal;text-indent:0;text-align:start;text-decoration:none;line-height:normal;letter-spacing:normal;word-spacing:normal;text-transform:none;direction:ltr;block-progression:tb;writing-mode:lr-tb;text-anchor:start;baseline-shift:baseline;color:#000000;fill:#000000;fill-opacity:1;stroke:none;stroke-width:0.16000000000000000;marker:none;visibility:visible;display:inline;overflow:visible;enable-background:accumulate;font-family:Sans;-inkscape-font-specification:Sans" sodipodi:nodetypes="ccccc"/>
  <path style="font-size:medium;font-style:normal;font-variant:normal;font-weight:normal;font-stretch:normal;text-indent:0;text-align:start;text-decoration:none;line-height:normal;letter-spacing:normal;word-spacing:normal;text-transform:none;direction:ltr;block-progression:tb;writing-mode:lr-tb;text-anchor:start;baseline-shift:baseline;color:#000000;fill:#000000;fill-opacity:1;stroke:none;stroke-width:0.20253672000000000;marker:none;visibility:visible;display:inline;overflow:visible;enable-background:accumulate;font-family:Sans;-inkscape-font-specification:Sans" d="m 35.408912,0.270851 0.185954,8.2704245 c 0.862183,1.9069175 2.884978,3.6759445 3.956509,4.6421515 l 0.09331,-0.536463 c 0,0 -2.950682,-2.46103 -3.621557,-4.1843199 -0.03821,-1.7626343 -0.04248,-8.1731363 -0.04248,-8.1731363 z" id="path12184" inkscape:connector-curvature="0" sodipodi:nodetypes="ccccccc"/>
  <path style="fill:#000000;fill-opacity:1;stroke:none" d="m 0.83607016,73.025401 78.19004784,0 0,6.350582 -78.19004784,0 z" id="rect12189" inkscape:connector-curvature="0"/>
  <path style="fill:#000000;stroke:none" d="m 23.776591,32.898078 c 0,0 -1.25098,1.924883 -0.777983,2.752864 0.194406,0.340307 0.841189,0.55626 1.137052,0.299224 0.773306,-0.671826 -0.359069,-3.052088 -0.359069,-3.052088 z" id="path12191" inkscape:connector-curvature="0" sodipodi:nodetypes="caac"/>
  <path sodipodi:nodetypes="caac" inkscape:connector-curvature="0" id="path12193" d="m 25.203852,42.271991 c 0,0 -1.25098,1.924883 -0.777983,2.752864 0.194406,0.340307 0.841189,0.55626 1.137052,0.299224 0.773306,-0.671826 -0.359069,-3.052088 -0.359069,-3.052088 z" style="fill:#000000;stroke:none"/>
</svg>