<?xml version="1.0" encoding="utf-8"?>
<!-- Generator: Adobe Illustrator 19.1.0, SVG Export Plug-In . SVG Version: 6.00 Build 0)  -->
<svg version="1.1" id="Calque_1" xmlns="http://www.w3.org/2000/svg" xmlns:xlink="http://www.w3.org/1999/xlink" x="0px" y="0px"
	 viewBox="-370 235.3 100 125" style="enable-background:new -370 235.3 100 125;" xml:space="preserve">
<style type="text/css">
	.st0{fill:none;}
</style>
<g>
	<path class="st0" d="M-320,246.1c-21.6,0-39.2,17.6-39.2,39.2c0,21.6,17.6,39.2,39.2,39.2c21.6,0,39.2-17.6,39.2-39.2
		C-280.8,263.7-298.4,246.1-320,246.1z M-333,283.2c-4.1,0-7.5-5.2-7.5-11.6c0-6.4,3.3-11.6,7.5-11.6c4.1,0,7.5,5.2,7.5,11.6
		C-325.6,278-328.9,283.2-333,283.2z M-319.8,312.3c-4.8,0-8.7-3.9-8.7-8.7c0-4.8,3.9-8.7,8.7-8.7c4.8,0,8.7,3.9,8.7,8.7
		C-311.1,308.4-315,312.3-319.8,312.3z M-307,283.2c-4.1,0-7.5-5.2-7.5-11.6c0-6.4,3.3-11.6,7.5-11.6c4.1,0,7.5,5.2,7.5,11.6
		C-299.5,278-302.8,283.2-307,283.2z"/>
	<path d="M-320,240.3c-24.8,0-45,20.2-45,45c0,24.8,20.2,45,45,45s45-20.2,45-45C-275,260.5-295.2,240.3-320,240.3z M-320,324.5
		c-21.6,0-39.2-17.6-39.2-39.2s17.6-39.2,39.2-39.2c21.6,0,39.2,17.6,39.2,39.2C-280.8,306.9-298.4,324.5-320,324.5z"/>
	<ellipse cx="-333" cy="271.6" rx="7.5" ry="11.6"/>
	<ellipse cx="-307" cy="271.6" rx="7.5" ry="11.6"/>
	<circle cx="-319.8" cy="303.6" r="8.7"/>
</g>
</svg>
