<?xml version="1.0" encoding="utf-8"?>
<!-- Generator: Adobe Illustrator 19.1.0, SVG Export Plug-In . SVG Version: 6.00 Build 0)  -->
<svg version="1.1" id="Layer_1" xmlns="http://www.w3.org/2000/svg" xmlns:xlink="http://www.w3.org/1999/xlink" x="0px" y="0px"
	 viewBox="-373 248.3 93.1 100" style="enable-background:new -373 248.3 93.1 100;" xml:space="preserve">
<path d="M-351.1,277c0,12.6,13.5,22.7,30.2,22.7c16.7,0,30.2-10.2,30.2-22.7C-290.7,277-351.1,277-351.1,277z"/>
<path d="M-336.6,319.8c-5.5,0-9.9-4.5-9.9-9.9c0-5.5,4.5-9.9,9.9-9.9c5.5,0,9.9,4.5,9.9,9.9C-326.7,315.3-331.2,319.8-336.6,319.8
	L-336.6,319.8z M-336.6,303.7c-3.4,0-6.1,2.7-6.1,6.1c0,3.4,2.7,6.1,6.1,6.1c3.4,0,6.1-2.8,6.1-6.1
	C-330.5,306.4-333.3,303.7-336.6,303.7L-336.6,303.7z"/>
<path d="M-305.6,319.8c-5.5,0-9.9-4.5-9.9-9.9c0-5.5,4.5-9.9,9.9-9.9c5.5,0,9.9,4.5,9.9,9.9C-295.7,315.3-300.1,319.8-305.6,319.8
	L-305.6,319.8z M-305.6,303.7c-3.4,0-6.1,2.7-6.1,6.1c0,3.4,2.7,6.1,6.1,6.1c3.4,0,6.1-2.8,6.1-6.1
	C-299.5,306.4-302.2,303.7-305.6,303.7L-305.6,303.7z"/>
<g>
	<path d="M-351.1,274.4h3.8c0,0,0,0,0,0c-0.1-6.3-3.4-13.8-10.6-14.2c-2.5-0.1-2.4,3.7,0,3.8C-352.9,264.3-351.2,270.4-351.1,274.4
		C-351.1,274.4-351.1,274.4-351.1,274.4z"/>
	<path d="M-349.2,276.2C-349.2,276.2-349.2,276.2-349.2,276.2L-349.2,276.2z"/>
</g>
<path d="M-310.1,248.6L-310.1,248.6c0.1-0.2,0.1-0.4,0.2-0.6c0.7-2.4-3-3.4-3.7-1c0,0.2-0.1,0.3-0.1,0.5c-2.4,8.8-4.9,17.6-7.3,26.4
	c0,0.2-0.1,0.3-0.1,0.5h30.4C-290.7,262.7-298.8,252.6-310.1,248.6z"/>
</svg>
