<?xml version="1.0" encoding="utf-8"?>
<!-- Generator: Adobe Illustrator 19.1.0, SVG Export Plug-In . SVG Version: 6.00 Build 0)  -->
<svg version="1.1" id="Calque_1" xmlns="http://www.w3.org/2000/svg" xmlns:xlink="http://www.w3.org/1999/xlink" x="0px" y="0px"
	 viewBox="-370 235.3 100 125" style="enable-background:new -370 235.3 100 125;" xml:space="preserve">
<path d="M-290.5,245.8h-4.9v-4.9c0-1.2-1-2.2-2.2-2.2h-3.8c-1.2,0-2.2,1-2.2,2.2v4.9h-45.9c-1.2,0-2.2,1-2.2,2.2l-2,30.8v35.8v3.9
	v2.2h2.2h3.8h1.1v9.5c0,1.2,1,2.2,2.2,2.2h3.8c1.2,0,2.2-1,2.2-2.2v-9.5h36.9v9.5c0,1.2,1,2.2,2.2,2.2h3.8c1.2,0,2.2-1,2.2-2.2v-9.5
	h1.1h3.8h2.2v-2.2v-3.9v-35.8l-2-30.8C-288.4,246.8-289.3,245.8-290.5,245.8z M-343.2,293.8c-2.9,0-5.2-2.3-5.2-5.2
	c0-2.9,2.3-5.2,5.2-5.2c2.9,0,5.2,2.3,5.2,5.2C-338,291.4-340.3,293.8-343.2,293.8z M-313.4,305.4h-4.2v4.2h-4.8v-4.2h-4.2v-4.8h4.2
	v-4.2h4.8v4.2h4.2C-313.4,300.6-313.4,305.4-313.4,305.4z M-346.4,279.2c-1.2,0-2.2-1-2.2-2.2l2-21.2c0-1.2,1-2.2,2.2-2.2h48.9
	c1.2,0,2.2,1,2.2,2.2l2,21.2c0,1.2-1,2.2-2.2,2.2H-346.4z M-296.3,293.8c-2.9,0-5.2-2.3-5.2-5.2c0-2.9,2.3-5.2,5.2-5.2
	c2.9,0,5.2,2.3,5.2,5.2C-291.1,291.4-293.4,293.8-296.3,293.8z"/>
</svg>
