<?xml version="1.0" encoding="utf-8"?>
<!-- Generator: Adobe Illustrator 19.1.0, SVG Export Plug-In . SVG Version: 6.00 Build 0)  -->
<svg version="1.1" id="Calque_1" xmlns="http://www.w3.org/2000/svg" xmlns:xlink="http://www.w3.org/1999/xlink" x="0px" y="0px"
	 viewBox="-370 235.3 100 125" style="enable-background:new -370 235.3 100 125;" xml:space="preserve">
<path d="M-348,304.8c-0.8,0.8-1.8,1.3-2.9,1.5c1.5,0.4,3.1,1,4.5,1.9c3,1.7,5.4,4.2,6.7,6.9c0-1.6,0.7-3.2,1.8-4.3l17.7-17.3
	l-7.5-7.9L-348,304.8z"/>
<path d="M-291.4,259.8c-2.5-1.5-4.5-3.5-5.7-5.6c0,1.6-0.7,3.3-2,4.5l-20.2,19.1l7.6,7.4l22.5-22c0.7-0.7,1.6-1.2,2.6-1.5
	C-288.2,261.4-289.9,260.7-291.4,259.8z"/>
<path d="M-346.6,308.6c-2.6-1.5-5.5-2.3-8.2-2.3c-3.5,0-6.3,1.4-7.6,3.7c-3,5.2-2.9,10.9,0.3,14l6.1-10.5h0.1
	c1.7-0.3,3.9,0.2,5.8,1.3s3.3,2.7,4,4.4v0.1l-6.1,10.5c0.7,0.2,1.4,0.3,2.1,0.3c3.8,0,7.7-2.7,10.2-7c1.2-2.1,1.2-4.7-0.1-7.4
	C-341.3,312.8-343.6,310.4-346.6,308.6z"/>
<path d="M-291.2,259.4c2.3,1.3,4.9,2.1,7.2,2.1c3.1,0,5.5-1.2,6.7-3.3c0.2-0.3,0.3-0.6,0.5-0.9c2.2-4.3,1.9-8.9-0.7-11.5l-5.3,9.2
	h-0.1c-0.3,0.1-0.6,0.1-1,0.1c-1.3,0-2.8-0.4-4.1-1.2c-1.7-1-3-2.4-3.5-3.9v-0.1l5.3-9.2c-0.6-0.2-1.2-0.2-1.8-0.2
	c-3.4,0-6.8,2.4-9,6.2C-299.3,250.6-296.7,256.2-291.2,259.4z"/>
<path d="M-345.3,266.3L-345.3,266.3l60,63.4c0.2,0.2,0.5,0.3,0.8,0.3l0,0c0.3,0,0.5-0.1,0.8-0.3l7.6-7.6c0.2-0.2,0.3-0.5,0.3-0.8
	c0-0.3-0.1-0.6-0.3-0.8l-62.6-60.8L-345.3,266.3z"/>
<polygon points="-346.7,251.8 -347.3,251.2 -353.7,257.5 -353.1,258.1 "/>
<path d="M-332.7,250.7l5-8.6c0.2-0.3,0.2-0.7,0-1.1c-0.3-0.5-0.9-0.7-1.5-0.4l-8.6,5c-3.1,1.7-6,3.8-8.5,6.3l-6.7,6.7
	c-3,3.2-6,6.6-8.8,10.1l-2.4,3.1l5.4,5.4l3.1-2.4c3.5-2.7,6.9-5.7,10.1-8.9l6.7-6.7C-336.4,256.7-334.3,253.9-332.7,250.7z"/>
</svg>
