<?xml version="1.0" encoding="utf-8"?>
<!-- Generator: Adobe Illustrator 19.1.0, SVG Export Plug-In . SVG Version: 6.00 Build 0)  -->
<svg version="1.1" id="Calque_1" xmlns="http://www.w3.org/2000/svg" xmlns:xlink="http://www.w3.org/1999/xlink" x="0px" y="0px"
	 viewBox="-370 235.3 100 125" style="enable-background:new -370 235.3 100 125;" xml:space="preserve">
<g>
	<path d="M-292.6,264.4c0-8-7-8.1-7-8.1s-19.8,0-21.4,0c-1.6,0-2.8,0.7-6.8,7.5c0,0-3.1,5.9-6.1,11.2v-21.8l7.7,0
		c0,0,4.2-0.1,4.2-2.6c0,0.2,0.1-9.3,0.1-12.3h-0.1l-0.6,9h-1.4l-0.6-9.6l-0.6,9.6h-1.4l-0.6-9.6l-0.6,9.6h-1.4l-0.6-9.6l-0.6,9.6
		h-1.4l-0.6-9.6l-0.6,9.6h-1.1h-0.2l-0.6-9.6l-0.6,9.6h-0.2h-1.1l-0.6-9.6l-0.6,9.6h-1.4l-0.6-9.6l-0.6,9.6h-1.4l-0.6-9.6l-0.6,9.6
		h-1.4l-0.6-9.6l-0.6,9.6h-1.4l-0.6-9h-0.1c0,3,0.1,12.6,0.1,12.3c0,2.6,4,2.7,4,2.7l7.5-0.1V278c-1,2.6-2.2,4.6-2.4,4.9
		c-0.4,1.1-0.5,2.9,1.8,3.8c0.2,0.1,0.6,0.1,0.6,0.2v46.4h2v-46.5c1-0.3,1.5-1,1.8-1.6c0.4-1,10.3-17.4,10.3-17.4l1.9,0
		c0,0,0,60.8,0,62.6c0,1.8,1,3.8,4.3,3.8c3.7,0,4.4-2.3,4.4-4l-0.2-37h2.2c0,0-0.1,35.2-0.1,37c0,1.8,1,3.9,4.7,3.9
		c3.3,0,4.7-1.9,4.7-3.7s0-62.2,0-62.2h1c0,0,0.1,22.1,0.1,23.2c0,1.1,0.9,2.7,3.3,2.7c2.4,0,3.2-1.7,3.2-2.9
		C-292.5,290.2-292.6,272.4-292.6,264.4z"/>
	<path d="M-318.1,248c0.9,3.5,4,6.1,7.8,6.1c4.4,0,8-3.6,8-8c0-1.5-0.4-2.9-1.1-4.1l-13.7,5.8C-317.5,248-317.8,248-318.1,248z"/>
	<path d="M-318.3,247c0,0,0.1,0,0.1,0c0.2,0,0.4,0,0.6-0.1l13.5-5.7l4.3-1.8c0.8-0.3,1.2-1.3,0.9-2.1c-0.3-0.6-0.9-1-1.5-1
		c-0.2,0-0.4,0-0.6,0.1l-5.1,2.1c-1.4-0.9-3-1.4-4.8-1.4c-4.9,0-8.1,4.3-8.1,8.1C-319,245.9-318.8,246.9-318.3,247z"/>
</g>
</svg>
