<?xml version="1.0" encoding="utf-8"?>
<!-- Generator: Adobe Illustrator 19.1.0, SVG Export Plug-In . SVG Version: 6.00 Build 0)  -->
<svg version="1.1" id="Calque_1" xmlns="http://www.w3.org/2000/svg" xmlns:xlink="http://www.w3.org/1999/xlink" x="0px" y="0px"
	 viewBox="-370 235.3 100 125" style="enable-background:new -370 235.3 100 125;" xml:space="preserve">
<style type="text/css">
	.st0{opacity:0.8;}
	.st1{stroke:#F7EB5D;stroke-width:5.2991;stroke-miterlimit:10;}
	.st2{fill:none;stroke:#000000;stroke-width:2.072;stroke-linecap:round;stroke-miterlimit:10;}
	.st3{fill:none;stroke:#000000;stroke-width:2.59;stroke-linecap:round;stroke-miterlimit:10;}
</style>
<g class="st0">
	<path class="st1" d="M-1241.1,868"/>
</g>
<g>
	<path d="M-336.1,271.1C-336.1,271.1-336.1,271.1-336.1,271.1l-0.1-0.2l0,0c-0.6-0.9-1.7-1.3-2.7-0.8c-1,0.5-1.5,1.6-1.1,2.6l0,0
		l0.1,0.2c0,0,0,0,0,0c0,0,0,0,0,0l9.5,20.6l3.9-1.8L-336.1,271.1C-336.1,271.1-336.1,271.1-336.1,271.1z"/>
	<path d="M-304.5,271.1C-304.5,271.1-304.5,271.1-304.5,271.1l0.1-0.2l0,0c0.6-0.9,1.7-1.3,2.7-0.8c1,0.5,1.5,1.6,1.1,2.6l0,0
		l-0.1,0.2c0,0,0,0,0,0c0,0,0,0,0,0l-9.5,20.6l-3.9-1.8L-304.5,271.1C-304.5,271.1-304.5,271.1-304.5,271.1z"/>
	<circle cx="-320.2" cy="284.7" r="4.7"/>
</g>
<g>
	<path class="st2" d="M-354.7,289.5c4.3,0,4.3,3.6,8.6,3.6s4.3-3.6,8.6-3.6s4.3,3.6,8.6,3.6c4.3,0,4.3-3.6,8.6-3.6
		c4.3,0,4.3,3.6,8.6,3.6c4.3,0,4.3-3.6,8.6-3.6c4.3,0,4.3,3.6,8.6,3.6s4.3-3.6,8.6-3.6"/>
</g>
<g>
	<path class="st3" d="M-354.7,294.3c4.3,0,4.3,3.6,8.6,3.6s4.3-3.6,8.6-3.6s4.3,3.6,8.6,3.6c4.3,0,4.3-3.6,8.6-3.6
		c4.3,0,4.3,3.6,8.6,3.6c4.3,0,4.3-3.6,8.6-3.6c4.3,0,4.3,3.6,8.6,3.6s4.3-3.6,8.6-3.6"/>
</g>
</svg>
