<?xml version="1.0" encoding="utf-8"?>
<!-- Generator: Adobe Illustrator 19.1.0, SVG Export Plug-In . SVG Version: 6.00 Build 0)  -->
<svg version="1.1" id="Calque_1" xmlns="http://www.w3.org/2000/svg" xmlns:xlink="http://www.w3.org/1999/xlink" x="0px" y="0px"
	 viewBox="-408 283.3 24 30" style="enable-background:new -408 283.3 24 30;" xml:space="preserve">
<path d="M-398,303.3c0,1.1,0.9,2,2,2s2-0.9,2-2v-3h-4V303.3z"/>
<path d="M-390,291.3c0-3.2-2.7-6-6-6c-1.9,0-3.7,1-4.8,2.4l8.6,8.6C-390.9,294.7-390,293-390,291.3z"/>
<path d="M-404.7,286.3l-1.3,1.3l4,4c0.1,2.1,1.6,4.2,3.3,6c0.4,0.5,0.7,1.1,0.7,1.7h3.7l6,6l1.3-1.3L-404.7,286.3z"/>
</svg>
