<svg xmlns="http://www.w3.org/2000/svg" xmlns:xlink="http://www.w3.org/1999/xlink" version="1.1" id="Layer_1" x="0px" y="0px" width="94.461px" height="100px" viewBox="0 0 94.461 100" enable-background="new 0 0 94.461 100" xml:space="preserve">
<path fill="#000000" d="M13.132,76.351c-3.601,0-6.519-2.918-6.519-6.516c0-3.604,2.918-6.522,6.519-6.522  c3.603,0,6.521,2.919,6.521,6.522C19.653,73.433,16.735,76.351,13.132,76.351"/>
<path fill="#000000" d="M0,100V87.223c0-4.605,3.784-8.351,8.398-8.351h9.003c4.613,0,8.731,3.745,8.731,8.351V100H0z"/>
<path fill="#000000" d="M80.738,75.799c3.602,0,6.521-2.928,6.521-6.522c0-3.606-2.919-6.523-6.521-6.523  c-3.604,0-6.521,2.919-6.521,6.523C74.217,72.871,77.134,75.799,80.738,75.799"/>
<path fill="#000000" d="M93.864,100V87.223c0-4.605-3.785-8.351-8.402-8.351h-8.993c-4.62,0-8.733,3.745-8.733,8.351V100H93.864z"/>
<path fill="#000000" d="M46.925,63.234c3.641,0,6.596,2.928,6.596,6.543c0,3.611-2.955,6.539-6.596,6.539  c-3.645,0-6.597-2.928-6.597-6.539C40.328,66.162,43.28,63.234,46.925,63.234"/>
<path fill="#000000" d="M31.039,100l5.192-14.14c2.077-7.224,8.131-7.002,8.131-7.002h2.572h2.568c0,0,6.048-0.222,8.133,7.002  l5.19,14.14H31.039z"/>
<polygon fill="#000000" points="46.925,54.975 46.925,39.504 44.356,36.935 44.356,52.4 5.499,52.4 5.499,3.206 44.356,3.206   44.356,28.479 46.925,31.045 46.925,0.634 2.941,0.634 2.941,54.975 "/>
<path fill="#000000" d="M80.738,26.508c3.602,0,6.521-2.927,6.521-6.522c0-3.607-2.919-6.523-6.521-6.523  c-3.604,0-6.521,2.918-6.521,6.523C74.217,23.581,77.134,26.508,80.738,26.508"/>
<path fill="#000000" d="M85.461,28.588h-8.993c-1.621,0-3.174,0.467-4.516,1.266c-1.594,0.634-2.942,1.739-3.868,3.131l-5.405,8.154  l-8.198-0.003L42.899,29.555c-0.435-0.438-1.142-0.438-1.576,0c-0.438,0.435-0.44,1.142-0.003,1.579l11.019,11.02  c-0.238,0.394-0.612,1.193-0.612,1.698c0,1.521,1.229,2.743,2.744,2.743H63.5c1.024,0,2.375-0.415,2.949-1.277  c0.429-0.637,0.863-1.281,1.286-1.908v3.556v2.753v5.842h3.312H93.78h0.084v-5.842v-2.753V36.939  C93.864,32.333,90.079,28.588,85.461,28.588"/>
</svg>