<?xml version="1.0" encoding="utf-8"?>
<!-- Generator: Adobe Illustrator 17.0.2, SVG Export Plug-In . SVG Version: 6.00 Build 0)  -->
<!DOCTYPE svg PUBLIC "-//W3C//DTD SVG 1.1//EN" "http://www.w3.org/Graphics/SVG/1.1/DTD/svg11.dtd">
<svg version="1.1" id="Calque_1" xmlns="http://www.w3.org/2000/svg" xmlns:xlink="http://www.w3.org/1999/xlink" x="0px" y="0px"
	 width="100px" height="100px" viewBox="0 0 100 100" enable-background="new 0 0 100 100" xml:space="preserve">
<g id="Layer_1">
	<g>
		<polygon points="40.763,17.25 0,45.163 3.411,50.143 40.853,24.504 79.489,49.574 82.773,44.51 		"/>
	</g>
	<polygon points="81.044,100 2.562,100 2.562,97.864 81.044,97.864 	"/>
</g>
<g id="Layer_2">
	<circle cx="60.974" cy="48.483" r="4.475"/>
	<g>
		<path d="M66.147,53.893l-10.296-0.005c-3.168,0-5.621,2.584-5.621,5.808v11.053c-0.745-1.169-2.011-2.007-3.644-2.007
			l-8.147-0.004c-1.296,0-2.426,0.572-3.211,1.471l-3.71-12.199c-0.475-1.431-2.239-4.027-5.389-4.027h-7.618
			c-3.177,0-4.981,2.576-5.396,4.027L9.249,70.74c-0.804,2.737,2.707,3.785,3.536,1.231l3.483-11.718h1.471l-5.986,20.771h5.577
			l0.001,14.768c0,2.786,4.169,2.786,4.169,0l-0.002-14.875h1.693v14.898c0,2.747,4.155,2.763,4.155,0V81.023h5.555l-6.031-20.77
			h1.5l3.481,11.677c0.398,1.277,1.403,1.676,2.259,1.449v8.803c0,2.058,2.719,2.058,2.719,0v-8.688h1.225l-0.002,22.594
			c0,1.066,0.865,1.932,1.931,1.932c1.068,0,1.934-0.865,1.934-1.932l0.002-11.771h1.28l-0.006,11.771
			c0,1.066,0.865,1.932,1.933,1.932c1.067,0,1.932-0.865,1.932-1.932l0.009-22.594h1.214v8.688c0,2.074,2.704,2.074,2.697,0v-7.087
			c1.035,0.771,2.784,0.221,2.784-1.661V60.062h1.589l-0.004,35.312c0,1.383,1.124,2.508,2.509,2.508c1.387,0,2.51-1.125,2.51-2.508
			l0.003-20.072h1.381l-0.01,20.072c0,1.383,1.125,2.508,2.509,2.508c1.386,0,2.508-1.125,2.508-2.508l0.012-35.312h1.575v13.371
			c0,2.692,3.511,2.692,3.502,0V59.776C71.846,56.805,69.625,53.893,66.147,53.893z"/>
		<circle cx="42.283" cy="64.025" r="3.858"/>
	</g>
	<circle cx="22.345" cy="48.52" r="4.513"/>
</g>
</svg>
