<?xml version="1.0" encoding="utf-8"?>
<!-- Generator: Adobe Illustrator 19.1.0, SVG Export Plug-In . SVG Version: 6.00 Build 0)  -->
<svg version="1.1" id="Layer_1" xmlns="http://www.w3.org/2000/svg" xmlns:xlink="http://www.w3.org/1999/xlink" x="0px" y="0px"
	 viewBox="-395 272.9 50.4 50.4" style="enable-background:new -395 272.9 50.4 50.4;" xml:space="preserve">
<g id="Layer_1_1_">
</g>
<g id="Layer_2">
</g>
<polygon points="-374.8,278.9 -374.8,271.6 -376.1,271.6 -376.1,285 -373.6,285 -373.6,278.9 "/>
<g>
	<g>
		<path d="M-365.8,283.8h9.4v2.2l1.2,0l0-0.2c0,0,0-1.5,0-2.1c0-3.5-2.7-6.4-5.9-6.4c-3.3,0-5.9,2.9-5.9,6.4c0,0.6,0,2.2,0,2.2
			l0,0.1h1.2V283.8L-365.8,283.8z"/>
		<path d="M-364.9,284.6c0,0.1,0,0.2,0,0.3c0,2.1,1.7,3.9,3.9,3.9s3.9-1.7,3.9-3.9c0-0.1,0-0.2,0-0.3
			C-357.2,284.6-364.9,284.6-364.9,284.6z"/>
	</g>
	<path d="M-350.5,294.2V307c0,1-0.8,1.9-1.9,1.9s-1.9-0.8-1.9-1.9v-11.4h-1.2v13.3h-11.1v-13.3h-1.2V307c0,1-0.8,1.9-1.9,1.9
		c-1,0-1.9-0.8-1.9-1.9v-12.8c0-3.1,2.3-4.8,5.3-4.8h10.3C-352.8,289.4-350.5,291.2-350.5,294.2z"/>
</g>
<path d="M-372.6,307.7l0-12.3l-1,0l0-9.7l-2.4,0l0,9.1c0,0-0.8,1.3-3.1,1.3c-2.2,0-7-2.8-7-2.8l-1.7,4.1c0,0,3.5,1.7,5.4,2
	c0.7,0.1,1.5,0.2,2.2,0.2c-0.4,0.5-0.7,1.1-0.7,1.8c0,0.9,0.4,1.6,1.1,2.1l-4.2,2.1l1.7,3l4.2-2.9c0,0,0.4-0.3,0.8-0.1
	c0.3,0.2,0.4,0.6,0.4,0.6l0,1.4l1.4,0l0,1.2h1.7l0-1.2L-372.6,307.7L-372.6,307.7z M-378.2,302.8c-0.7,0-1.3-0.6-1.3-1.3
	c0-0.7,0.6-1.3,1.3-1.3c0.6,0,1,0.4,1.2,0.8h-1.4v1h1.3C-377.2,302.5-377.7,302.8-378.2,302.8z"/>
</svg>
