<?xml version="1.0" encoding="utf-8"?>
<!-- Generator: Adobe Illustrator 19.1.0, SVG Export Plug-In . SVG Version: 6.00 Build 0)  -->
<svg version="1.1" id="Calque_1" xmlns="http://www.w3.org/2000/svg" xmlns:xlink="http://www.w3.org/1999/xlink" x="0px" y="0px"
	 viewBox="-370 263.8 100 67.5" style="enable-background:new -370 263.8 100 67.5;" xml:space="preserve">
<path d="M-278.9,270.8H-295v-7h-75v44h12.1c-0.1,0.5-0.1,1-0.1,1.5c0,4.7,3.8,8.5,8.5,8.5s8.5-3.8,8.5-8.5c0-0.5-0.1-1-0.1-1.5h4.1
	v5h39v-5h4.1c-0.1,0.5-0.1,1-0.1,1.5c0,4.7,3.8,8.5,8.5,8.5s8.5-3.8,8.5-8.5c0-0.5-0.1-1-0.1-1.5h7.1v-17v-5.6L-278.9,270.8z
	 M-295,285.8v-11h13.9l6.8,11H-295z"/>
</svg>
