<?xml version="1.0" encoding="utf-8"?>
<!-- Generator: Adobe Illustrator 19.1.0, SVG Export Plug-In . SVG Version: 6.00 Build 0)  -->
<svg version="1.1" id="Livello_1" xmlns="http://www.w3.org/2000/svg" xmlns:xlink="http://www.w3.org/1999/xlink" x="0px" y="0px"
	 viewBox="-370 248.3 100 100" style="enable-background:new -370 248.3 100 100;" xml:space="preserve">
<g>
	<path d="M-352,263.1v0.1v38.9v0.1h66.7v-0.1v-38.9v-0.1H-352z M-301.1,301.3h-35.3v-37.2h35.3L-301.1,301.3L-301.1,301.3z"/>
	<path d="M-330.6,282.7l-1.3,0.7l6.4,5.4c0.2,0.2,0.4,0.6,0.3,0.9l-0.6,1.9c2.2-0.3,4.1-0.5,6.4-0.7c0.2,0,0.5,0.1,0.5,0.4l-0.3,7h1
		l-0.1-7c0-0.2,0.3-0.4,0.5-0.4c2.2,0.3,4.1,0.5,6.4,0.7l-0.6-1.9c-0.1-0.3,0.1-0.7,0.3-0.9l6.4-5.4l-1.3-0.7
		c-0.6-0.2-0.4-0.6-0.2-1.4l1-3.7l-3.7,0.8c-0.4,0.1-0.6-0.1-0.7-0.4l-0.4-1.7l-2.9,3.4c-0.4,0.5-1.3,0.5-1-0.7l1.3-6.9l-1.7,0.9
		c-0.4,0.3-1,0.3-1.2-0.1l-2.4-4.3l-2.3,4.5c-0.3,0.5-0.7,0.4-1.2,0.1l-1.7-1l1.3,6.9c0.3,1.3-0.6,1.3-1,0.7l-2.9-3.4l-0.4,1.7
		c-0.1,0.2-0.3,0.4-0.7,0.4l-3.7-0.8l1,3.7C-330.2,282.1-330,282.4-330.6,282.7z"/>
</g>
</svg>
