<?xml version="1.0" encoding="utf-8"?>
<!-- Generator: Adobe Illustrator 19.1.0, SVG Export Plug-In . SVG Version: 6.00 Build 0)  -->
<svg version="1.1" id="Livello_1" xmlns="http://www.w3.org/2000/svg" xmlns:xlink="http://www.w3.org/1999/xlink" x="0px" y="0px"
	 viewBox="-375 253.3 90 90" style="enable-background:new -375 253.3 90 90;" xml:space="preserve">
<g>
	<path d="M-333.6,251.8c-0.6,0-1.1,0.4-1.1,1v62.9c0,0.5,0.5,1,1.1,1s1.1-0.4,1.1-1v-62.9C-332.5,252.3-332.9,251.8-333.6,251.8z"/>
	<path d="M-324.1,251.8c-0.6,0-1.1,0.4-1.1,1v62.9c0,0.5,0.5,1,1.1,1s1.1-0.4,1.1-1v-62.9C-323,252.3-323.5,251.8-324.1,251.8z"/>
	<path d="M-341.9,291.6v-38.8c0-0.5-0.5-1-1.1-1s-1.1,0.4-1.1,1v39c-1.7,0.6-2.9,2.2-2.9,4.1v2.1c0,1.9,1.2,3.5,2.9,4.1v13.6
		c0,0.5,0.5,1,1.1,1s1.1-0.4,1.1-1v-13.3c0.4-0.1,0.8-0.2,1.1-0.4v2.9h4.9v-3.9h-3.6c0.7-0.7,1.1-1.8,1.1-3v-0.9h2.4v-3.9h-3.3
		C-339.7,292.4-340.8,291.8-341.9,291.6z"/>
	<path d="M-305.3,251.8c-0.6,0-1.1,0.4-1.1,1v62.9c0,0.5,0.5,1,1.1,1s1.1-0.4,1.1-1v-62.9C-304.2,252.3-304.7,251.8-305.3,251.8z"/>
	<path d="M-352.4,251.8c-0.6,0-1.1,0.4-1.1,1v62.9c0,0.5,0.5,1,1.1,1s1.1-0.4,1.1-1v-62.9C-351.3,252.3-351.7,251.8-352.4,251.8z"/>
	<rect x="-331.3" y="308.7" width="4.9" height="3.9"/>
	<rect x="-340.7" y="308.7" width="4.9" height="3.9"/>
	<rect x="-321.9" y="308.7" width="4.9" height="3.9"/>
	<rect x="-321.9" y="285.6" width="4.9" height="3.9"/>
	<rect x="-331.3" y="285.6" width="4.9" height="3.9"/>
	<rect x="-312.5" y="285.6" width="4.9" height="3.9"/>
	<rect x="-340.7" y="285.6" width="4.9" height="3.9"/>
	<rect x="-350.1" y="285.6" width="4.9" height="3.9"/>
	<rect x="-331.3" y="301" width="4.9" height="3.9"/>
	<path d="M-345.2,278.4c-1.6,0.6-2.7,1.6-3.7,2.9c-0.1,0.1-0.2,0.3-0.4,0.4h4.1V278.4z"/>
	<path d="M-308.7,281.3c-1-1.3-2.1-2.3-3.7-2.9v3.3h4.1C-308.5,281.6-308.6,281.5-308.7,281.3z"/>
	<path d="M-321.9,281.8h4.9v-4l0,0h-4.9V281.8z"/>
	<polygon points="-331.3,277.8 -331.3,281.8 -326.4,281.8 -326.4,277.8 -328.8,277.8 	"/>
	<path d="M-340.7,277.8v4h4.9v-4H-340.7L-340.7,277.8z"/>
	<path d="M-347.5,293.3h-2.6v9.2c1-0.2,1.9-0.4,2.7-0.6l-2.1-8.1L-347.5,293.3z"/>
	<path d="M-358.4,297.4c-1.2,3.5,1.1,5.9,3.6,6l-2-7.9l2.2-0.6v-1.6h-1.6C-357.5,295.7-358.4,297.4-358.4,297.4z"/>
	<path d="M-310.7,293.3l3,0.7l-2,8c0.7,0.1,1.4,0.3,2.2,0.4v-9.2H-310.7L-310.7,293.3z"/>
	<path d="M-299.3,297.4c0,0-0.9-1.7-2.1-4.1h-1.6v1.8l2.6,0.7l-1.9,7.6C-300.1,302.9-298.2,300.7-299.3,297.4z"/>
	<path d="M-311.5,293.2h-0.2c-0.5-0.6-1.2-1-1.9-1.3v-39c0-0.5-0.5-1-1.1-1c-0.6,0-1.1,0.4-1.1,1v38.8c-1.1,0.2-2.1,0.8-2.7,1.7
		h-3.3v3.9h2.4v0.9c0,1.1,0.4,2.1,1.1,3h-3.6v3.9h5V302c0.4,0.1,0.7,0.3,1.1,0.4v13.3c0,0.5,0.5,1,1.1,1s1.1-0.4,1.1-1v-13.5
		c1.7-0.6,2.9-2.2,2.9-4.1v-2.1c0-1-0.3-1.9-0.8-2.6L-311.5,293.2z"/>
	<rect x="-331.3" y="293.3" width="4.9" height="3.9"/>
	<path d="M-326.5,274.7v-19.1c-0.7-0.2-1.6-0.3-2.4-0.3c-0.8,0-1.6,0.1-2.4,0.3v19.1c0.7,0.2,1.6,0.3,2.4,0.3
		C-328,275.1-327.2,274.9-326.5,274.7z"/>
	<path d="M-335.8,258.2c-1.8,1.8-2.9,4.3-2.9,7s1.1,5.2,2.9,7V258.2z"/>
	<path d="M-321.9,258.2v14c1.8-1.8,2.9-4.3,2.9-7C-319.1,262.4-320.1,260-321.9,258.2z"/>
</g>
</svg>
