<svg xmlns="http://www.w3.org/2000/svg" xmlns:xlink="http://www.w3.org/1999/xlink" version="1.0" x="0px" y="0px" viewBox="0 0 100 100" enable-background="new 0 0 100 100" xml:space="preserve"><g><circle cx="35.555" cy="9.281" r="6.781"></circle><circle cx="56.323" cy="13.84" r="6.487"></circle><path d="M38.302,17.292l-2.167,0.641c-0.022,0-0.044,0.003-0.066,0.006c-0.12-0.153-0.278-0.249-0.454-0.249   c-0.188,0-0.357,0.107-0.479,0.28c-0.05-0.023-0.104-0.037-0.162-0.037l-2.167-0.641c-0.21,0-0.381,0.171-0.381,0.381v1.907   c0,0.211,0.171,0.382,0.381,0.382l2.167-0.607c0.062,0,0.12-0.016,0.171-0.042c0.122,0.166,0.287,0.268,0.47,0.268   c0.169,0,0.322-0.09,0.441-0.234c0.026,0.005,0.052,0.008,0.08,0.008l2.167,0.607c0.211,0,0.382-0.171,0.382-0.382v-1.907   C38.684,17.462,38.513,17.292,38.302,17.292z"></path><circle cx="35.555" cy="22.7" r="1.006"></circle><circle cx="35.555" cy="26.609" r="1.006"></circle><circle cx="35.555" cy="30.518" r="1.006"></circle><circle cx="35.555" cy="34.427" r="1.006"></circle><path d="M56.323,2.833c-6.39,0-10.055,4.012-10.055,11.007h2.081c0-4.072,1.383-8.927,7.974-8.927c6.592,0,7.976,4.854,7.976,8.927   h2.079C66.377,6.845,62.713,2.833,56.323,2.833z"></path><path d="M80.437,92.832L68.033,57.779V22.362H50.455c0,0-0.615-3.736-6.509-3.736h-3.779v15.377c0,0-0.035,3.537-4.611,3.537   s-4.611-3.571-4.611-3.571l-0.069-15.342h-6.379c0,0-5.062,0.364-5.062,4.664c0,4.299,0,32.175,0,32.175s0,2.185,2.964,2.185   c2.965,0,3.276-1.635,3.276-1.635v41.238h11.546c0,0,1.482,0.026,1.482-0.884c0.806,0.78,3.368,1.885,5.253,0   c0.962,0.65,2.704,2.029,5.07,0c0,0,2.756,2.314,5.071,0c1.274,0.78,2.34,1.846,5.122,0.156c1.301,0.676,3.147,1.716,5.071-0.078   c1.664,0.884,2.549,1.846,5.071,0c2.054,1.041,3.354,1.716,5.33-0.286C76.302,98.214,81.451,98.162,80.437,92.832z M26.748,29.443   c-1.245,0-2.253-1.009-2.253-2.254c0-1.244,1.009-2.253,2.253-2.253c1.245,0,2.254,1.009,2.254,2.253   C29.002,28.434,27.993,29.443,26.748,29.443z M77.195,95.892c-0.951,0-1.724-0.739-1.724-1.649c0-0.488,0.224-0.925,0.575-1.227   h0.005c0-0.496-0.656-0.897-1.465-0.897c-0.81,0-1.466,0.402-1.466,0.897h0.011c0.353,0.301,0.575,0.738,0.575,1.227   c0,0.911-0.771,1.649-1.723,1.649c-0.951,0-1.723-0.739-1.723-1.649c0-0.489,0.224-0.927,0.577-1.229H70.83   c-0.001-0.495-0.612-0.896-1.365-0.896c-0.754,0-1.365,0.402-1.365,0.897h0.003c0.353,0.301,0.575,0.738,0.575,1.227   c0,0.911-0.772,1.649-1.724,1.649s-1.724-0.739-1.724-1.649c0-0.489,0.225-0.927,0.578-1.229H65.78   c-0.002-0.495-0.648-0.896-1.446-0.896s-1.445,0.401-1.446,0.896h-0.006c0.354,0.301,0.578,0.739,0.578,1.229   c0,0.911-0.772,1.649-1.724,1.649s-1.724-0.739-1.724-1.649c0-0.488,0.224-0.925,0.575-1.227h0.012c0-0.496-0.627-0.897-1.4-0.897   c-0.772,0-1.399,0.402-1.399,0.897h0.018c0.353,0.301,0.575,0.738,0.575,1.227c0,0.911-0.772,1.649-1.723,1.649   c-0.952,0-1.724-0.739-1.724-1.649c0-0.489,0.224-0.927,0.577-1.229h-0.006c-0.002-0.495-0.659-0.896-1.468-0.896   c-0.811,0-1.466,0.401-1.468,0.896h-0.021c0.354,0.301,0.577,0.739,0.577,1.229c0,0.911-0.771,1.649-1.723,1.649   c-0.952,0-1.724-0.739-1.724-1.649c0-0.489,0.224-0.927,0.578-1.229h-0.017c-0.001-0.495-0.572-0.896-1.274-0.896   c-0.702,0-1.271,0.401-1.273,0.896h-0.02c0.354,0.301,0.578,0.739,0.578,1.229c0,0.911-0.771,1.649-1.723,1.649   s-1.723-0.739-1.723-1.649c0-0.488,0.223-0.925,0.575-1.227h0.034c0-0.496-0.69-0.897-1.541-0.897s-1.541,0.402-1.541,0.897h0.008   c0.352,0.301,0.575,0.738,0.575,1.227c0,0.911-0.771,1.649-1.723,1.649s-1.723-0.739-1.723-1.649c0-0.489,0.224-0.927,0.578-1.229   h-0.02c-0.002-0.495-0.616-0.896-1.373-0.896c-0.758,0-1.373,0.402-1.373,0.897h0.009c0.352,0.301,0.575,0.738,0.575,1.227   c0,0.911-0.771,1.649-1.724,1.649c-0.951,0-1.723-0.739-1.723-1.649c0-0.489,2.146-8.076,2.146-8.076l-0.017-26.229   c0,0-0.104-1.109,0.971-1.109s1.057,0.954,1.057,0.954l0.208,18.878l9.882-32.73h4.715c4.681-0.087,2.774-6.085,2.774-6.085   L51.226,24.78c-0.277-0.71,0.139-0.728,0.139-0.728h14.511c0.606,0,0.589,0.381,0.589,0.381L66.43,53.211l-5.496-14.424l2.358-6.05   c0,0,0.485-0.71-0.365-1.04c-0.849-0.33-1.161,0.294-1.161,0.294l-2.409,6.882l19.363,54.14c0,0,0.198,0.739,0.198,1.229   C78.918,95.153,78.146,95.892,77.195,95.892z"></path></g></svg>