<svg xmlns="http://www.w3.org/2000/svg" xmlns:xlink="http://www.w3.org/1999/xlink" version="1.1" id="Layer_1" x="0px" y="0px" width="84.557px" height="100px" viewBox="0 0 84.557 100" enable-background="new 0 0 84.557 100" xml:space="preserve">
<path d="M43.919,33.359h-3.574V0h3.574v2.754c2.917-1.159,5.657-1.784,8.223-1.784c0.769,0,1.673,0.13,2.767,0.397  c1.081,0.248,2.26,0.541,3.496,0.931c1.289,0.384,2.448,0.729,3.562,0.95c1.067,0.28,1.999,0.397,2.741,0.397  c1.419,0,2.676-0.273,3.834-0.769v15.085c-1.399,0.371-2.656,0.54-3.834,0.54c-0.742,0-1.674-0.104-2.741-0.358  c-1.113-0.26-2.272-0.566-3.562-0.97c-1.236-0.352-2.461-0.664-3.606-0.95c-1.126-0.254-2.097-0.378-2.852-0.378  c-0.391,0-0.983,0.085-1.804,0.287c-0.84,0.182-1.692,0.443-2.578,0.755c-0.904,0.325-1.68,0.625-2.402,0.885  c-0.514,0.189-0.904,0.234-1.243,0.293V33.359z"/>
<path d="M68.314,44.746v-8.685h-52.07v8.685H0V100h28.841v-7.513h26.511V100h29.205V44.746H68.314z M25.091,80.755h-4.857  l-9.648-15.618v15.618H6.081V56.81h4.713l9.792,15.99V56.81h4.505V80.755z M51.758,77.454c-1.016,0.983-2.487,1.85-4.401,2.592  c-1.927,0.742-3.867,1.119-5.833,1.119c-2.5,0-4.7-0.521-6.562-1.575c-1.862-1.048-3.255-2.552-4.192-4.505  s-1.406-4.089-1.406-6.381c0-2.5,0.534-4.713,1.575-6.653c1.042-1.94,2.565-3.425,4.583-4.46c1.537-0.794,3.451-1.191,5.742-1.191  c2.969,0,5.286,0.625,6.966,1.869c1.667,1.25,2.748,2.975,3.229,5.176l-4.805,0.898c-0.339-1.179-0.977-2.104-1.914-2.787  c-0.924-0.677-2.083-1.021-3.477-1.021c-2.109,0-3.802,0.67-5.039,2.012c-1.263,1.334-1.875,3.32-1.875,5.957  c0,2.845,0.625,4.98,1.888,6.393c1.263,1.426,2.917,2.136,4.974,2.136c1.003,0,2.019-0.195,3.047-0.599  c1.016-0.391,1.888-0.879,2.617-1.439v-3.04h-5.534v-4.036h10.417V77.454z M75.313,77.891c-2.097,2.188-4.909,3.274-8.425,3.274  c-3.567,0-6.394-1.08-8.489-3.262c-2.109-2.168-3.151-5.162-3.151-8.971c0-2.441,0.352-4.492,1.081-6.146  c0.547-1.217,1.289-2.311,2.239-3.281c0.938-0.97,1.966-1.686,3.086-2.154c1.497-0.639,3.216-0.951,5.169-0.951  c3.529,0,6.354,1.094,8.477,3.281c2.109,2.194,3.178,5.234,3.178,9.135C78.477,72.683,77.422,75.71,75.313,77.891z"/>
<path d="M66.875,60.534c-1.992,0-3.607,0.684-4.818,2.044c-1.224,1.374-1.836,3.431-1.836,6.191c0,2.708,0.639,4.766,1.889,6.159  c1.25,1.406,2.838,2.103,4.766,2.103c1.927,0,3.502-0.696,4.739-2.077c1.237-1.393,1.862-3.477,1.862-6.25  c0-2.747-0.612-4.798-1.811-6.146C70.456,61.211,68.868,60.534,66.875,60.534z"/>
</svg>