<?xml version="1.0" encoding="utf-8"?>
<!-- Generator: Adobe Illustrator 19.1.0, SVG Export Plug-In . SVG Version: 6.00 Build 0)  -->
<svg version="1.1" id="Calque_1" xmlns="http://www.w3.org/2000/svg" xmlns:xlink="http://www.w3.org/1999/xlink" x="0px" y="0px"
	 viewBox="-370 235.3 100 125" style="enable-background:new -370 235.3 100 125;" xml:space="preserve">
<g>
	<path d="M-317.8,257.3c0.6,0,1-0.4,1-1v-1.1l-2.1-1.2c-0.9-0.5-1.9-0.5-2.8,0l-7.1,3.9v0.3h-0.5l-1.8,1v2.3c0,0.6,0.4,1,1,1h1.5
		c0.2,2.3,0.8,4.1,2.5,5.8c1.9,1.9,4.3,2.9,7,2.9c5.1,0,8.8-3.2,9.7-8.3c0.1-0.3,0-0.6-0.2-0.8s-0.5-0.4-0.8-0.4h-3.7
		c-0.5,0-0.9,0.3-1,0.8c-0.3,1.3-1.2,3.4-4,3.4c-1.1,0-2.1-0.4-2.8-1.2c-0.5-0.5-0.8-1-0.9-2.2h5.1c0.6,0,1-0.4,1-1v-2.3
		c0-0.6-0.4-1-1-1h-5.4v-0.9C-323.2,257.3-317.8,257.3-317.8,257.3z"/>
	<path d="M-275.7,277.9l-39.1-21.6v0c0,0.5-0.1,1-0.4,1.5c0.2,0.4,0.4,0.9,0.4,1.5v0.5c0.2,0,0.4-0.1,0.6-0.1h3.7
		c0.9,0,1.7,0.4,2.3,1.1c0.6,0.7,0.8,1.6,0.7,2.4c-1,6-5.6,9.9-11.6,9.9c-3.3,0-6.2-1.2-8.4-3.5c-1.7-1.7-2.4-3.5-2.8-5.2
		c-1.5-0.1-2.8-1.4-2.8-3v-1.2l-31.9,17.7c-1.1,0.6-1.7,1.9-1.4,3.2c0.3,1.3,1.5,2.1,2.8,2.1h86.8c0,0,0,0,0,0
		c1.6,0,2.8-1.3,2.8-2.8C-274.1,279.3-274.7,278.3-275.7,277.9z"/>
</g>
<path d="M-275,323.8h-2.4v-3.9c0-0.8-0.7-1.5-1.5-1.5h-4.2v-29.3c0-0.7-0.6-1.3-1.3-1.3h-5.5c-0.7,0-1.3,0.6-1.3,1.3v29.3h-10.9
	v-29.1c0-0.7-0.6-1.3-1.3-1.3h-5.5c-0.7,0-1.3,0.6-1.3,1.3v29.1h-20v-29.3c0-0.7-0.6-1.3-1.3-1.3h-5.5c-0.7,0-1.3,0.6-1.3,1.3v29.3
	h-10.9v-29.1c0-0.7-0.6-1.3-1.3-1.3h-5.5c-0.7,0-1.3,0.6-1.3,1.3v29.1h-4.2c-0.8,0-1.5,0.7-1.5,1.5v3.9h-2.4c-0.8,0-1.5,0.7-1.5,1.5
	v4.9c0,0.8,0.7,1.5,1.5,1.5h90.6c0.8,0,1.5-0.7,1.5-1.5v-4.9C-273.5,324.4-274.2,323.8-275,323.8z"/>
<path d="M-309.7,262c-0.2-0.2-0.5-0.4-0.8-0.4h-3.7c-0.5,0-0.9,0.3-1,0.8c-0.3,1.3-1.2,3.4-4,3.4c-1.1,0-2.1-0.4-2.8-1.2
	c-0.5-0.5-0.8-1-0.9-2.2h5.1c0.6,0,1-0.4,1-1v-2.3c0-0.6-0.4-1-1-1h-5.4v-0.9h5.4c0.6,0,1-0.4,1-1V254c0-0.6-0.4-1-1-1h-5.1
	c0.2-1.1,0.4-1.6,0.9-2c0.7-0.8,1.7-1.2,2.8-1.2c2.7,0,3.7,2.1,4,3.4c0.1,0.5,0.5,0.8,1,0.8h3.7c0.3,0,0.6-0.1,0.8-0.4
	c0.2-0.2,0.3-0.5,0.2-0.8c-0.9-5.1-4.6-8.3-9.7-8.3c-2.7,0-5.1,1-7,2.9c-1.6,1.6-2.2,3.5-2.5,5.6h-1.5c-0.6,0-1,0.4-1,1v2.3
	c0,0.6,0.4,1,1,1h1.3v0.9h-1.3c-0.6,0-1,0.4-1,1v2.3c0,0.6,0.4,1,1,1h1.5c0.2,2.3,0.8,4.1,2.5,5.8c1.9,1.9,4.3,2.9,7,2.9
	c5.1,0,8.8-3.2,9.7-8.3C-309.5,262.5-309.5,262.2-309.7,262z"/>
<path d="M-309.7,262c-0.2-0.2-0.5-0.4-0.8-0.4h-3.7c-0.5,0-0.9,0.3-1,0.8c-0.3,1.3-1.2,3.4-4,3.4c-1.1,0-2.1-0.4-2.8-1.2
	c-0.5-0.5-0.8-1-0.9-2.2h5.1c0.6,0,1-0.4,1-1v-2.3c0-0.6-0.4-1-1-1h-5.4v-0.9h5.4c0.6,0,1-0.4,1-1V254c0-0.6-0.4-1-1-1h-5.1
	c0.2-1.1,0.4-1.6,0.9-2c0.7-0.8,1.7-1.2,2.8-1.2c2.7,0,3.7,2.1,4,3.4c0.1,0.5,0.5,0.8,1,0.8h3.7c0.3,0,0.6-0.1,0.8-0.4
	c0.2-0.2,0.3-0.5,0.2-0.8c-0.9-5.1-4.6-8.3-9.7-8.3c-2.7,0-5.1,1-7,2.9c-1.6,1.6-2.2,3.5-2.5,5.6h-1.5c-0.6,0-1,0.4-1,1v2.3
	c0,0.6,0.4,1,1,1h1.3v0.9h-1.3c-0.6,0-1,0.4-1,1v2.3c0,0.6,0.4,1,1,1h1.5c0.2,2.3,0.8,4.1,2.5,5.8c1.9,1.9,4.3,2.9,7,2.9
	c5.1,0,8.8-3.2,9.7-8.3C-309.5,262.5-309.5,262.2-309.7,262z"/>
</svg>
