<svg xmlns="http://www.w3.org/2000/svg" xmlns:xlink="http://www.w3.org/1999/xlink" version="1.1" id="Layer_1" x="0px" y="0px" width="100px" height="100px" viewBox="0 0 100 100" enable-background="new 0 0 100 100" xml:space="preserve">
<path d="M0,18.68V85.35h100V18.68H0z M68.52,39.37l0.82-2.52l0.83,2.52h2.65l-2.15,1.57l0.82,2.53l-2.15-1.56l-2.149,1.56  l0.829-2.53l-2.159-1.56L68.52,39.37z M29.88,39.77l0.82-2.53l0.82,2.53h2.66l-2.15,1.56l0.82,2.53L30.7,42.3l-2.15,1.56l0.82-2.53  l-2.15-1.56H29.88z M24.63,50.81h2.65l0.83-2.52l0.82,2.52h2.65l-2.15,1.561l0.83,2.53l-2.15-1.561L25.96,54.9l0.82-2.53  L24.63,50.81z M32.93,66.09l-2.15-1.56l-2.15,1.56l0.82-2.53L27.3,62h2.66l0.82-2.52L31.6,62h2.66l-2.15,1.56L32.93,66.09z   M40.97,74.04l-2.15-1.56l-2.15,1.56l0.82-2.53l-2.15-1.56H38l0.82-2.521l0.82,2.521h2.65l-2.14,1.56L40.97,74.04z M40.15,32.93  l0.82,2.52l-2.15-1.56l-2.15,1.56l0.82-2.52l-2.15-1.56H38l0.82-2.53l0.82,2.53h2.65L40.15,32.93z M52.33,77l-2.15-1.56L48.03,77  l0.82-2.52l-2.15-1.57h2.66l0.82-2.521l0.83,2.521h2.65l-2.15,1.57L52.33,77z M51.51,30.06l0.82,2.53l-2.15-1.57l-2.15,1.57  l0.82-2.53l-2.15-1.55l2.66-0.01l0.82-2.53l0.83,2.53h2.65L51.51,30.06z M60.15,31.37l0.83-2.53l0.819,2.53h2.65l-2.15,1.56  l0.82,2.52l-2.14-1.56l-2.15,1.56l0.82-2.52l-2.15-1.56H60.15z M63.39,74l-2.149-1.56L59.09,74l0.82-2.52l-2.15-1.57h2.66  l0.82-2.521l0.819,2.521h2.66l-2.149,1.57L63.39,74z M71.44,66.02l-2.15-1.56l-2.15,1.56l0.82-2.529l-2.15-1.57h2.66l0.82-2.51  l0.82,2.51h2.649l-2.149,1.57L71.44,66.02z M74.39,54.75l-2.14-1.56l-2.16,1.56l0.83-2.53l-2.15-1.56h2.65l0.83-2.53l0.82,2.53  h2.649l-2.14,1.56L74.39,54.75z"/>
</svg>