<?xml version="1.0" encoding="utf-8"?>
<!-- Generator: Adobe Illustrator 19.1.0, SVG Export Plug-In . SVG Version: 6.00 Build 0)  -->
<svg version="1.1" id="Calque_1" xmlns="http://www.w3.org/2000/svg" xmlns:xlink="http://www.w3.org/1999/xlink" x="0px" y="0px"
	 viewBox="-370 248.3 100 100" style="enable-background:new -370 248.3 100 100;" xml:space="preserve">
<g id="Layer_1">
</g>
<g id="Layer_2">
	<polygon points="-343,309.1 -320,309.1 -320,300 -343,300 	"/>
	<path d="M-313,252.9c-12.5,0-24,9.4-26.4,19.7c-0.5,2.3-1.1,8.3-1.1,8.3l-7.1,14c-0.1,0.3-0.2,0.6-0.2,0.9c0,1.2,1,2.2,2.2,2.2h0.6
		h4.4h22.6v13.1h-22.3c1,5.5,3.9,7.4,10.5,7.4h1.9v8.4h31.8v-23.4c6.4-5,10.5-14.4,10.5-23.2C-285.5,265.2-297.8,252.9-313,252.9z
		 M-334.3,286.4c-1.5,0-2.7-1.2-2.7-2.7c0-1.5,1.2-2.7,2.7-2.7c1.5,0,2.7,1.2,2.7,2.7C-331.6,285.2-332.8,286.4-334.3,286.4z
		 M-300,290.9c-0.6,2.1-1.9,3.9-3.5,5c-1.2,0.8-2.5,1.2-3.9,1.2c-0.6,0-1.2-0.1-1.7-0.2c-0.5-0.2-0.8-0.7-0.7-1.2
		c0.2-0.5,0.7-0.8,1.2-0.7c1.3,0.4,2.7,0.1,3.9-0.7c1.3-0.9,2.3-2.2,2.7-3.9c0.4-1.5,0.8-3.7-0.2-5.3c-0.6-1-1.6-1.7-3-2.1
		c-1.9-0.5-3.9,0.9-4.5,3.1c-0.2,0.5-0.7,0.8-1.2,0.7c-0.5-0.2-0.8-0.7-0.7-1.2c1-3.3,4-5.3,7-4.5c2,0.5,3.4,1.6,4.2,3.1
		C-299.3,285.8-299.2,288.2-300,290.9z"/>
</g>
</svg>
