<?xml version="1.0" encoding="utf-8"?>
<!-- Generator: Adobe Illustrator 15.1.0, SVG Export Plug-In . SVG Version: 6.00 Build 0)  -->
<!DOCTYPE svg PUBLIC "-//W3C//DTD SVG 1.1//EN" "http://www.w3.org/Graphics/SVG/1.1/DTD/svg11.dtd">
<svg version="1.1" id="Layer_1" xmlns="http://www.w3.org/2000/svg" xmlns:xlink="http://www.w3.org/1999/xlink" x="0px" y="0px"
	 width="75.914px" height="100px" viewBox="0 0 75.914 100" enable-background="new 0 0 75.914 100" xml:space="preserve">
<circle cx="37.957" cy="16.396" r="16.396"/>
<path d="M73.208,59.228c-1.801-3.859-4.414-8.199-6.492-11.681c-3.354-5.621-7.072-10.109-14.869-10.109
	c-2.63,0-11.582-0.001-25.417-0.001c-11.971,0-16.298,12.403-20.103,19.589C3.432,62.495,0.284,70.9,0.029,75.569
	c-0.52,9.509,6.089,15.733,7.109,16.462c5.34,3.812,11.539,7.053,21.678,7.898c7.549,0.628,14.371-3.03,15.067-7.203
	c0.825-4.955-2.321-8.407-8.81-8.114c-10.146,0.458-16.714-2.517-18.696-3.507c-5.008-2.504,0.979-2.411,2.248-2.509
	c3.148-0.242,6.296-0.969,7.869-2.301c1.614-1.366,0.153-0.945-1.94-7.484c-1.597-4.987,0.705-7.071,1.966-7.483
	c3.108-1.016,4.899,0.355,6.739,3.719c1.237,2.261,2.86,4.732,3.717,5.711c1.269,1.451,2.185,3.081,4.803,4.647
	c2.15,1.287,4.708,2.106,6.814,2.229c2.149,0.127,2.034,0.022,3.996-0.322c-2.093,1.966-9.328,7.039-4.313,12.432
	c2.663,2.865,8.63,1.766,11.425,0.679s7.607-4.404,11.729-9.51C79.41,71.03,74.584,62.176,73.208,59.228z M50.573,75.348
	c-6.29,0-11.391-5.1-11.391-11.392c0-6.291,5.101-11.392,11.391-11.392c6.292,0,11.392,5.101,11.392,11.392
	C61.964,70.248,56.865,75.348,50.573,75.348z"/>
</svg>
