<?xml version="1.0" encoding="utf-8"?>
<!-- Generator: Adobe Illustrator 19.1.0, SVG Export Plug-In . SVG Version: 6.00 Build 0)  -->
<svg version="1.1" id="Your_Icon" xmlns="http://www.w3.org/2000/svg" xmlns:xlink="http://www.w3.org/1999/xlink" x="0px" y="0px"
	 viewBox="-370 248.3 100 100" style="enable-background:new -370 248.3 100 100;" xml:space="preserve">
<path d="M-298,251.2h-36.2c0,0-0.1-0.1-0.1-0.1l0.1-0.1c0,0-5.1,0.8-5.1,6v3.7c0,0.2-0.9,0.8-0.9,1.4c0,0.6,0.9,1.1,0.9,1.4v8.5
	c0,0.2-0.9,0.8-0.9,1.4s0.9,1.1,0.9,1.4v8.5c0,0.2-0.9,0.8-0.9,1.4c0,0.6,0.9,1.1,0.9,1.4v8.5c0,0.2-0.9,0.8-0.9,1.4
	s0.9,1.1,0.9,1.4v8.9c0,0.7,0.5,1.7,1.1,1.7h4v7l2.7-3.2l3.2,3.2v-7h26.4c0.7,0,1.1-1,1.1-1.7v-2h2.8c0.6,0,0.9-1.3,0.9-1.9v-50
	C-297.1,251.4-297.4,251.2-298,251.2z M-312.7,275.6h-5.2v14.1h-3v-14.1h-5.2v-3h5.2v-5.9h3v5.9h5.2V275.6z M-299.4,301.6h-1.5
	v-44.6c0-0.7-0.4-0.6-1.1-0.6h-34.2l0.2-0.4c0.2-2.1,2.5-2.9,2.5-2.9v0.3h34.1V301.6z"/>
</svg>
